G75*
%MOIN*%
%OFA0B0*%
%FSLAX24Y24*%
%IPPOS*%
%LPD*%
%AMOC8*
5,1,8,0,0,1.08239X$1,22.5*
%
%ADD10C,0.0030*%
%ADD11C,0.0070*%
%ADD12C,0.0050*%
%ADD13C,0.0040*%
%ADD14C,0.0079*%
%ADD15C,0.0197*%
D10*
X014016Y-002414D02*
X013915Y-002050D01*
X014117Y-002050D01*
X014117Y-002091D01*
X014279Y-002050D02*
X014279Y-002333D01*
X014281Y-002349D01*
X014285Y-002364D01*
X014293Y-002378D01*
X014303Y-002390D01*
X014315Y-002400D01*
X014329Y-002408D01*
X014344Y-002412D01*
X014360Y-002414D01*
X014401Y-002414D01*
X010759Y004396D02*
X010698Y004507D01*
X010546Y004467D02*
X010547Y004445D01*
X010552Y004423D01*
X010559Y004401D01*
X010569Y004381D01*
X010582Y004362D01*
X010597Y004346D01*
X010698Y004508D02*
X010688Y004521D01*
X010675Y004533D01*
X010660Y004541D01*
X010644Y004546D01*
X010627Y004548D01*
X010611Y004546D01*
X010596Y004542D01*
X010582Y004534D01*
X010570Y004524D01*
X010560Y004512D01*
X010552Y004498D01*
X010548Y004483D01*
X010546Y004467D01*
X010881Y004528D02*
X010894Y004508D01*
X010903Y004485D01*
X010909Y004461D01*
X010911Y004437D01*
X010910Y004437D02*
X010908Y004421D01*
X010904Y004406D01*
X010896Y004392D01*
X010886Y004380D01*
X010874Y004370D01*
X010860Y004362D01*
X010845Y004358D01*
X010829Y004356D01*
X010812Y004358D01*
X010796Y004363D01*
X010781Y004371D01*
X010768Y004383D01*
X010758Y004396D01*
X010749Y004688D02*
X010648Y004688D01*
X010749Y004688D02*
X010749Y004809D01*
X010749Y004688D02*
X010772Y004690D01*
X010795Y004695D01*
X010816Y004703D01*
X010837Y004714D01*
X010855Y004728D01*
X010871Y004744D01*
X010885Y004762D01*
X010896Y004783D01*
X010904Y004804D01*
X010909Y004827D01*
X010911Y004850D01*
X010668Y004890D02*
X010648Y004890D01*
X010668Y004890D02*
X010684Y004888D01*
X010699Y004884D01*
X010713Y004876D01*
X010725Y004866D01*
X010735Y004854D01*
X010743Y004840D01*
X010747Y004825D01*
X010749Y004809D01*
X010648Y004890D02*
X010629Y004888D01*
X010612Y004883D01*
X010595Y004875D01*
X010580Y004864D01*
X010567Y004850D01*
X010558Y004834D01*
X010551Y004817D01*
X010547Y004798D01*
X010547Y004780D01*
X010551Y004761D01*
X010558Y004744D01*
X010567Y004728D01*
X010580Y004714D01*
X010595Y004703D01*
X010612Y004695D01*
X010629Y004690D01*
X010648Y004688D01*
X016739Y004898D02*
X016840Y004535D01*
X017076Y004535D02*
X017157Y004535D01*
X017173Y004537D01*
X017188Y004541D01*
X017202Y004549D01*
X017214Y004559D01*
X017224Y004571D01*
X017232Y004585D01*
X017236Y004600D01*
X017238Y004616D01*
X017238Y004818D01*
X017236Y004834D01*
X017232Y004849D01*
X017224Y004863D01*
X017214Y004875D01*
X017202Y004885D01*
X017188Y004893D01*
X017173Y004897D01*
X017157Y004899D01*
X017157Y004898D02*
X017076Y004898D01*
X016941Y004898D02*
X016739Y004898D01*
X016941Y004898D02*
X016941Y004858D01*
X020139Y006275D02*
X020503Y006275D01*
X020503Y006376D01*
X020501Y006395D01*
X020496Y006412D01*
X020488Y006429D01*
X020477Y006444D01*
X020463Y006457D01*
X020447Y006466D01*
X020430Y006473D01*
X020411Y006477D01*
X020393Y006477D01*
X020374Y006473D01*
X020357Y006466D01*
X020341Y006457D01*
X020327Y006444D01*
X020316Y006429D01*
X020308Y006412D01*
X020303Y006395D01*
X020301Y006376D01*
X020301Y006275D01*
X020301Y006397D02*
X020139Y006477D01*
X020240Y006627D02*
X020221Y006629D01*
X020204Y006634D01*
X020187Y006642D01*
X020172Y006653D01*
X020159Y006667D01*
X020150Y006683D01*
X020143Y006700D01*
X020139Y006719D01*
X020139Y006737D01*
X020143Y006756D01*
X020150Y006773D01*
X020159Y006789D01*
X020172Y006803D01*
X020187Y006814D01*
X020204Y006822D01*
X020221Y006827D01*
X020240Y006829D01*
X020259Y006827D01*
X020276Y006822D01*
X020293Y006814D01*
X020308Y006803D01*
X020321Y006789D01*
X020330Y006773D01*
X020337Y006756D01*
X020341Y006737D01*
X020341Y006719D01*
X020337Y006700D01*
X020330Y006683D01*
X020321Y006667D01*
X020308Y006653D01*
X020293Y006642D01*
X020276Y006634D01*
X020259Y006629D01*
X020240Y006627D01*
X020422Y006647D02*
X020405Y006649D01*
X020389Y006654D01*
X020374Y006662D01*
X020362Y006674D01*
X020352Y006688D01*
X020345Y006703D01*
X020341Y006720D01*
X020341Y006736D01*
X020345Y006753D01*
X020352Y006769D01*
X020362Y006782D01*
X020374Y006794D01*
X020389Y006802D01*
X020405Y006807D01*
X020422Y006809D01*
X020439Y006807D01*
X020455Y006802D01*
X020470Y006794D01*
X020482Y006782D01*
X020492Y006769D01*
X020499Y006753D01*
X020503Y006736D01*
X020503Y006720D01*
X020499Y006703D01*
X020492Y006688D01*
X020482Y006674D01*
X020470Y006662D01*
X020455Y006654D01*
X020439Y006649D01*
X020422Y006647D01*
X019526Y007737D02*
X019163Y007737D01*
X019324Y007737D02*
X019324Y007838D01*
X019324Y007859D02*
X019163Y007939D01*
X019264Y008090D02*
X019365Y008090D01*
X019365Y008211D01*
X019365Y008089D02*
X019388Y008091D01*
X019411Y008096D01*
X019432Y008104D01*
X019453Y008115D01*
X019471Y008129D01*
X019487Y008145D01*
X019501Y008163D01*
X019512Y008184D01*
X019520Y008205D01*
X019525Y008228D01*
X019527Y008251D01*
X019365Y008211D02*
X019363Y008227D01*
X019359Y008242D01*
X019351Y008256D01*
X019341Y008268D01*
X019329Y008278D01*
X019315Y008286D01*
X019300Y008290D01*
X019284Y008292D01*
X019264Y008292D01*
X019245Y008290D01*
X019228Y008285D01*
X019211Y008277D01*
X019196Y008266D01*
X019183Y008252D01*
X019174Y008236D01*
X019167Y008219D01*
X019163Y008200D01*
X019163Y008182D01*
X019167Y008163D01*
X019174Y008146D01*
X019183Y008130D01*
X019196Y008116D01*
X019211Y008105D01*
X019228Y008097D01*
X019245Y008092D01*
X019264Y008090D01*
X019324Y007838D02*
X019326Y007857D01*
X019331Y007874D01*
X019339Y007891D01*
X019350Y007906D01*
X019364Y007919D01*
X019380Y007928D01*
X019397Y007935D01*
X019416Y007939D01*
X019434Y007939D01*
X019453Y007935D01*
X019470Y007928D01*
X019486Y007919D01*
X019500Y007906D01*
X019511Y007891D01*
X019519Y007874D01*
X019524Y007857D01*
X019526Y007838D01*
X019526Y007737D01*
X020845Y008730D02*
X020744Y009093D01*
X020946Y009093D01*
X020946Y009053D01*
X021197Y009093D02*
X021298Y009093D01*
X021298Y008730D01*
X021298Y008891D02*
X021197Y008891D01*
X021177Y008891D02*
X021096Y008730D01*
X021197Y008891D02*
X021178Y008893D01*
X021161Y008898D01*
X021144Y008906D01*
X021129Y008917D01*
X021116Y008931D01*
X021107Y008947D01*
X021100Y008964D01*
X021096Y008983D01*
X021096Y009001D01*
X021100Y009020D01*
X021107Y009037D01*
X021116Y009053D01*
X021129Y009067D01*
X021144Y009078D01*
X021161Y009086D01*
X021178Y009091D01*
X021197Y009093D01*
X022600Y008225D02*
X022600Y008104D01*
X022599Y008225D02*
X022601Y008241D01*
X022605Y008256D01*
X022613Y008270D01*
X022623Y008282D01*
X022635Y008292D01*
X022649Y008300D01*
X022664Y008304D01*
X022680Y008306D01*
X022721Y008306D01*
X022737Y008304D01*
X022752Y008300D01*
X022766Y008292D01*
X022778Y008282D01*
X022788Y008270D01*
X022796Y008256D01*
X022800Y008241D01*
X022802Y008225D01*
X022802Y008104D01*
X022963Y008104D01*
X022963Y008306D01*
X022761Y007873D02*
X022600Y007954D01*
X022761Y007853D02*
X022761Y007752D01*
X022761Y007853D02*
X022763Y007872D01*
X022768Y007889D01*
X022776Y007906D01*
X022787Y007921D01*
X022801Y007934D01*
X022817Y007943D01*
X022834Y007950D01*
X022853Y007954D01*
X022871Y007954D01*
X022890Y007950D01*
X022907Y007943D01*
X022923Y007934D01*
X022937Y007921D01*
X022948Y007906D01*
X022956Y007889D01*
X022961Y007872D01*
X022963Y007853D01*
X022963Y007752D01*
X022600Y007752D01*
X025761Y005595D02*
X025882Y005595D01*
X025761Y005595D02*
X025744Y005593D01*
X025728Y005588D01*
X025713Y005580D01*
X025701Y005568D01*
X025691Y005555D01*
X025684Y005539D01*
X025680Y005522D01*
X025680Y005506D01*
X025684Y005489D01*
X025691Y005474D01*
X025701Y005460D01*
X025713Y005448D01*
X025728Y005440D01*
X025744Y005435D01*
X025761Y005433D01*
X025761Y005434D02*
X025842Y005434D01*
X025781Y005434D02*
X025762Y005432D01*
X025745Y005427D01*
X025728Y005419D01*
X025713Y005408D01*
X025700Y005394D01*
X025691Y005378D01*
X025684Y005361D01*
X025680Y005342D01*
X025680Y005324D01*
X025684Y005305D01*
X025691Y005288D01*
X025700Y005272D01*
X025713Y005258D01*
X025728Y005247D01*
X025745Y005239D01*
X025762Y005234D01*
X025781Y005232D01*
X025882Y005232D01*
X026045Y005312D02*
X026045Y005595D01*
X026045Y005312D02*
X026047Y005296D01*
X026051Y005281D01*
X026059Y005267D01*
X026069Y005255D01*
X026081Y005245D01*
X026095Y005237D01*
X026110Y005233D01*
X026126Y005231D01*
X026126Y005232D02*
X026166Y005232D01*
X027806Y007048D02*
X028009Y007048D01*
X028025Y007050D01*
X028040Y007054D01*
X028054Y007062D01*
X028066Y007072D01*
X028076Y007084D01*
X028084Y007098D01*
X028088Y007113D01*
X028090Y007129D01*
X028089Y007129D02*
X028089Y007210D01*
X027927Y007517D02*
X027939Y007527D01*
X027952Y007536D01*
X027967Y007542D01*
X027982Y007546D01*
X027998Y007547D01*
X027928Y007516D02*
X027726Y007345D01*
X027726Y007547D01*
X027726Y007699D02*
X027726Y007820D01*
X027725Y007820D02*
X027727Y007836D01*
X027731Y007851D01*
X027739Y007865D01*
X027749Y007877D01*
X027761Y007887D01*
X027775Y007895D01*
X027790Y007899D01*
X027806Y007901D01*
X027847Y007901D01*
X027863Y007899D01*
X027878Y007895D01*
X027892Y007887D01*
X027904Y007877D01*
X027914Y007865D01*
X027922Y007851D01*
X027926Y007836D01*
X027928Y007820D01*
X027928Y007699D01*
X028089Y007699D01*
X028089Y007901D01*
X027998Y007547D02*
X028016Y007545D01*
X028033Y007540D01*
X028049Y007532D01*
X028062Y007520D01*
X028074Y007507D01*
X028082Y007491D01*
X028087Y007474D01*
X028089Y007456D01*
X028090Y007456D02*
X028089Y007438D01*
X028084Y007420D01*
X028077Y007403D01*
X028068Y007387D01*
X028056Y007373D01*
X028042Y007361D01*
X028026Y007352D01*
X028009Y007345D01*
X027725Y007129D02*
X027727Y007113D01*
X027731Y007098D01*
X027739Y007084D01*
X027749Y007072D01*
X027761Y007062D01*
X027775Y007054D01*
X027790Y007050D01*
X027806Y007048D01*
X027726Y007129D02*
X027726Y007210D01*
X029104Y007210D02*
X029104Y007129D01*
X029103Y007129D02*
X029105Y007113D01*
X029109Y007098D01*
X029117Y007084D01*
X029127Y007072D01*
X029139Y007062D01*
X029153Y007054D01*
X029168Y007050D01*
X029184Y007048D01*
X029386Y007048D01*
X029402Y007050D01*
X029417Y007054D01*
X029431Y007062D01*
X029443Y007072D01*
X029453Y007084D01*
X029461Y007098D01*
X029465Y007113D01*
X029467Y007129D01*
X029467Y007210D01*
X029305Y007517D02*
X029317Y007527D01*
X029330Y007536D01*
X029345Y007542D01*
X029360Y007546D01*
X029376Y007547D01*
X029306Y007516D02*
X029104Y007345D01*
X029104Y007547D01*
X029184Y007699D02*
X029184Y007901D01*
X029265Y007841D02*
X029104Y007841D01*
X029184Y007699D02*
X029467Y007780D01*
X029376Y007547D02*
X029394Y007545D01*
X029411Y007540D01*
X029427Y007532D01*
X029440Y007520D01*
X029452Y007507D01*
X029460Y007491D01*
X029465Y007474D01*
X029467Y007456D01*
X029466Y007438D01*
X029461Y007420D01*
X029454Y007403D01*
X029445Y007387D01*
X029433Y007373D01*
X029419Y007361D01*
X029403Y007352D01*
X029386Y007345D01*
X030285Y007345D02*
X030285Y007547D01*
X030285Y007446D02*
X030648Y007446D01*
X030568Y007345D01*
X030648Y007210D02*
X030648Y007129D01*
X030649Y007129D02*
X030647Y007113D01*
X030643Y007098D01*
X030635Y007084D01*
X030625Y007072D01*
X030613Y007062D01*
X030599Y007054D01*
X030584Y007050D01*
X030568Y007048D01*
X030366Y007048D01*
X030350Y007050D01*
X030335Y007054D01*
X030321Y007062D01*
X030309Y007072D01*
X030299Y007084D01*
X030291Y007098D01*
X030287Y007113D01*
X030285Y007129D01*
X030285Y007210D01*
X030386Y007699D02*
X030487Y007699D01*
X030487Y007820D01*
X030487Y007699D02*
X030510Y007701D01*
X030533Y007706D01*
X030554Y007714D01*
X030575Y007725D01*
X030593Y007739D01*
X030609Y007755D01*
X030623Y007773D01*
X030634Y007794D01*
X030642Y007815D01*
X030647Y007838D01*
X030649Y007861D01*
X030406Y007901D02*
X030386Y007901D01*
X030406Y007901D02*
X030422Y007899D01*
X030437Y007895D01*
X030451Y007887D01*
X030463Y007877D01*
X030473Y007865D01*
X030481Y007851D01*
X030485Y007836D01*
X030487Y007820D01*
X030386Y007901D02*
X030367Y007899D01*
X030350Y007894D01*
X030333Y007886D01*
X030318Y007875D01*
X030305Y007861D01*
X030296Y007845D01*
X030289Y007828D01*
X030285Y007809D01*
X030285Y007791D01*
X030289Y007772D01*
X030296Y007755D01*
X030305Y007739D01*
X030318Y007725D01*
X030333Y007714D01*
X030350Y007706D01*
X030367Y007701D01*
X030386Y007699D01*
X031269Y007800D02*
X031633Y007901D01*
X031633Y007699D01*
X031592Y007699D01*
X031633Y007446D02*
X031269Y007446D01*
X031269Y007345D02*
X031269Y007547D01*
X031269Y007210D02*
X031269Y007129D01*
X031271Y007113D01*
X031275Y007098D01*
X031283Y007084D01*
X031293Y007072D01*
X031305Y007062D01*
X031319Y007054D01*
X031334Y007050D01*
X031350Y007048D01*
X031552Y007048D01*
X031568Y007050D01*
X031583Y007054D01*
X031597Y007062D01*
X031609Y007072D01*
X031619Y007084D01*
X031627Y007098D01*
X031631Y007113D01*
X031633Y007129D01*
X031633Y007210D01*
X031552Y007345D02*
X031633Y007446D01*
X032253Y007446D02*
X032617Y007446D01*
X032536Y007345D01*
X032617Y007210D02*
X032617Y007129D01*
X032615Y007113D01*
X032611Y007098D01*
X032603Y007084D01*
X032593Y007072D01*
X032581Y007062D01*
X032567Y007054D01*
X032552Y007050D01*
X032536Y007048D01*
X032334Y007048D01*
X032318Y007050D01*
X032303Y007054D01*
X032289Y007062D01*
X032277Y007072D01*
X032267Y007084D01*
X032259Y007098D01*
X032255Y007113D01*
X032253Y007129D01*
X032253Y007210D01*
X032253Y007345D02*
X032253Y007547D01*
X032354Y007699D02*
X032335Y007701D01*
X032318Y007706D01*
X032301Y007714D01*
X032286Y007725D01*
X032273Y007739D01*
X032264Y007755D01*
X032257Y007772D01*
X032253Y007791D01*
X032253Y007809D01*
X032257Y007828D01*
X032264Y007845D01*
X032273Y007861D01*
X032286Y007875D01*
X032301Y007886D01*
X032318Y007894D01*
X032335Y007899D01*
X032354Y007901D01*
X032373Y007899D01*
X032390Y007894D01*
X032407Y007886D01*
X032422Y007875D01*
X032435Y007861D01*
X032444Y007845D01*
X032451Y007828D01*
X032455Y007809D01*
X032455Y007791D01*
X032451Y007772D01*
X032444Y007755D01*
X032435Y007739D01*
X032422Y007725D01*
X032407Y007714D01*
X032390Y007706D01*
X032373Y007701D01*
X032354Y007699D01*
X032536Y007719D02*
X032519Y007721D01*
X032503Y007726D01*
X032488Y007734D01*
X032476Y007746D01*
X032466Y007760D01*
X032459Y007775D01*
X032455Y007792D01*
X032455Y007808D01*
X032459Y007825D01*
X032466Y007841D01*
X032476Y007854D01*
X032488Y007866D01*
X032503Y007874D01*
X032519Y007879D01*
X032536Y007881D01*
X032553Y007879D01*
X032569Y007874D01*
X032584Y007866D01*
X032596Y007854D01*
X032606Y007841D01*
X032613Y007825D01*
X032617Y007808D01*
X032617Y007792D01*
X032613Y007775D01*
X032606Y007760D01*
X032596Y007746D01*
X032584Y007734D01*
X032569Y007726D01*
X032553Y007721D01*
X032536Y007719D01*
X033533Y007210D02*
X033533Y007129D01*
X033535Y007113D01*
X033539Y007098D01*
X033547Y007084D01*
X033557Y007072D01*
X033569Y007062D01*
X033583Y007054D01*
X033598Y007050D01*
X033614Y007048D01*
X033816Y007048D01*
X033832Y007050D01*
X033847Y007054D01*
X033861Y007062D01*
X033873Y007072D01*
X033883Y007084D01*
X033891Y007098D01*
X033895Y007113D01*
X033897Y007129D01*
X033896Y007129D02*
X033896Y007210D01*
X033795Y007345D02*
X033775Y007345D01*
X033759Y007347D01*
X033744Y007351D01*
X033730Y007359D01*
X033718Y007369D01*
X033708Y007381D01*
X033700Y007395D01*
X033696Y007410D01*
X033694Y007426D01*
X033694Y007547D01*
X033795Y007547D01*
X033814Y007545D01*
X033831Y007540D01*
X033848Y007532D01*
X033863Y007521D01*
X033876Y007507D01*
X033885Y007491D01*
X033892Y007474D01*
X033896Y007455D01*
X033896Y007437D01*
X033892Y007418D01*
X033885Y007401D01*
X033876Y007385D01*
X033863Y007371D01*
X033848Y007360D01*
X033831Y007352D01*
X033814Y007347D01*
X033795Y007345D01*
X033694Y007547D02*
X033671Y007545D01*
X033648Y007540D01*
X033627Y007532D01*
X033606Y007521D01*
X033588Y007507D01*
X033572Y007491D01*
X033558Y007473D01*
X033547Y007452D01*
X033539Y007431D01*
X033534Y007408D01*
X033532Y007385D01*
X034517Y007345D02*
X034517Y007547D01*
X034517Y007446D02*
X034881Y007446D01*
X034800Y007345D01*
X034881Y007210D02*
X034881Y007129D01*
X034879Y007113D01*
X034875Y007098D01*
X034867Y007084D01*
X034857Y007072D01*
X034845Y007062D01*
X034831Y007054D01*
X034816Y007050D01*
X034800Y007048D01*
X034598Y007048D01*
X034582Y007050D01*
X034567Y007054D01*
X034553Y007062D01*
X034541Y007072D01*
X034531Y007084D01*
X034523Y007098D01*
X034519Y007113D01*
X034517Y007129D01*
X034517Y007210D01*
X034517Y007699D02*
X034517Y007901D01*
X034517Y007800D02*
X034881Y007800D01*
X034800Y007699D01*
X036584Y007542D02*
X036746Y007542D01*
X036665Y007603D02*
X036665Y007401D01*
X036948Y007481D01*
X036948Y007149D02*
X036948Y007048D01*
X036584Y007048D01*
X036746Y007048D02*
X036746Y007149D01*
X036746Y007170D02*
X036584Y007251D01*
X036746Y007149D02*
X036748Y007168D01*
X036753Y007185D01*
X036761Y007202D01*
X036772Y007217D01*
X036786Y007230D01*
X036802Y007239D01*
X036819Y007246D01*
X036838Y007250D01*
X036856Y007250D01*
X036875Y007246D01*
X036892Y007239D01*
X036908Y007230D01*
X036922Y007217D01*
X036933Y007202D01*
X036941Y007185D01*
X036946Y007168D01*
X036948Y007149D01*
X037300Y005901D02*
X037300Y005618D01*
X037302Y005602D01*
X037306Y005587D01*
X037314Y005573D01*
X037324Y005561D01*
X037336Y005551D01*
X037350Y005543D01*
X037365Y005539D01*
X037381Y005537D01*
X037381Y005538D02*
X037421Y005538D01*
X037137Y005639D02*
X037135Y005620D01*
X037130Y005603D01*
X037122Y005586D01*
X037111Y005571D01*
X037097Y005558D01*
X037081Y005549D01*
X037064Y005542D01*
X037045Y005538D01*
X037027Y005538D01*
X037008Y005542D01*
X036991Y005549D01*
X036975Y005558D01*
X036961Y005571D01*
X036950Y005586D01*
X036942Y005603D01*
X036937Y005620D01*
X036935Y005639D01*
X036937Y005658D01*
X036942Y005675D01*
X036950Y005692D01*
X036961Y005707D01*
X036975Y005720D01*
X036991Y005729D01*
X037008Y005736D01*
X037027Y005740D01*
X037045Y005740D01*
X037064Y005736D01*
X037081Y005729D01*
X037097Y005720D01*
X037111Y005707D01*
X037122Y005692D01*
X037130Y005675D01*
X037135Y005658D01*
X037137Y005639D01*
X037117Y005821D02*
X037115Y005804D01*
X037110Y005788D01*
X037102Y005773D01*
X037090Y005761D01*
X037077Y005751D01*
X037061Y005744D01*
X037044Y005740D01*
X037028Y005740D01*
X037011Y005744D01*
X036996Y005751D01*
X036982Y005761D01*
X036970Y005773D01*
X036962Y005788D01*
X036957Y005804D01*
X036955Y005821D01*
X036957Y005838D01*
X036962Y005854D01*
X036970Y005869D01*
X036982Y005881D01*
X036996Y005891D01*
X037011Y005898D01*
X037028Y005902D01*
X037044Y005902D01*
X037061Y005898D01*
X037077Y005891D01*
X037090Y005881D01*
X037102Y005869D01*
X037110Y005854D01*
X037115Y005838D01*
X037117Y005821D01*
X030068Y012532D02*
X029866Y012532D01*
X029850Y012534D01*
X029835Y012538D01*
X029821Y012546D01*
X029809Y012556D01*
X029799Y012568D01*
X029791Y012582D01*
X029787Y012597D01*
X029785Y012613D01*
X029785Y012694D01*
X029785Y012828D02*
X029785Y012929D01*
X029787Y012948D01*
X029792Y012965D01*
X029800Y012982D01*
X029811Y012997D01*
X029825Y013010D01*
X029841Y013019D01*
X029858Y013026D01*
X029877Y013030D01*
X029895Y013030D01*
X029914Y013026D01*
X029931Y013019D01*
X029947Y013010D01*
X029961Y012997D01*
X029972Y012982D01*
X029980Y012965D01*
X029985Y012948D01*
X029987Y012929D01*
X029987Y012949D02*
X029987Y012869D01*
X029987Y012949D02*
X029989Y012966D01*
X029994Y012982D01*
X030002Y012997D01*
X030014Y013009D01*
X030028Y013019D01*
X030043Y013026D01*
X030060Y013030D01*
X030076Y013030D01*
X030093Y013026D01*
X030109Y013019D01*
X030122Y013009D01*
X030134Y012997D01*
X030142Y012982D01*
X030147Y012966D01*
X030149Y012949D01*
X030148Y012949D02*
X030148Y012828D01*
X030148Y012694D02*
X030148Y012613D01*
X030149Y012613D02*
X030147Y012597D01*
X030143Y012582D01*
X030135Y012568D01*
X030125Y012556D01*
X030113Y012546D01*
X030099Y012538D01*
X030084Y012534D01*
X030068Y012532D01*
X029263Y012613D02*
X029263Y012694D01*
X029263Y012613D02*
X029261Y012597D01*
X029257Y012582D01*
X029249Y012568D01*
X029239Y012556D01*
X029227Y012546D01*
X029213Y012538D01*
X029198Y012534D01*
X029182Y012532D01*
X028980Y012532D01*
X028964Y012534D01*
X028949Y012538D01*
X028935Y012546D01*
X028923Y012556D01*
X028913Y012568D01*
X028905Y012582D01*
X028901Y012597D01*
X028899Y012613D01*
X028899Y012694D01*
X028899Y012828D02*
X028899Y013030D01*
X028899Y012929D02*
X029263Y012929D01*
X029182Y012828D01*
X028377Y012694D02*
X028377Y012613D01*
X028375Y012597D01*
X028371Y012582D01*
X028363Y012568D01*
X028353Y012556D01*
X028341Y012546D01*
X028327Y012538D01*
X028312Y012534D01*
X028296Y012532D01*
X028094Y012532D01*
X028078Y012534D01*
X028063Y012538D01*
X028049Y012546D01*
X028037Y012556D01*
X028027Y012568D01*
X028019Y012582D01*
X028015Y012597D01*
X028013Y012613D01*
X028013Y012694D01*
X028013Y012828D02*
X028013Y013030D01*
X028013Y012828D02*
X028215Y013000D01*
X028377Y012939D02*
X028376Y012921D01*
X028371Y012903D01*
X028364Y012886D01*
X028355Y012870D01*
X028343Y012856D01*
X028329Y012844D01*
X028313Y012835D01*
X028296Y012828D01*
X028215Y013001D02*
X028227Y013011D01*
X028240Y013020D01*
X028255Y013026D01*
X028270Y013030D01*
X028286Y013031D01*
X028286Y013030D02*
X028304Y013028D01*
X028321Y013023D01*
X028337Y013015D01*
X028350Y013003D01*
X028362Y012990D01*
X028370Y012974D01*
X028375Y012957D01*
X028377Y012939D01*
X025379Y013984D02*
X025116Y013984D01*
X025097Y013986D01*
X025080Y013991D01*
X025063Y013999D01*
X025048Y014010D01*
X025035Y014024D01*
X025026Y014040D01*
X025019Y014057D01*
X025015Y014076D01*
X025015Y014094D01*
X025019Y014113D01*
X025026Y014130D01*
X025035Y014146D01*
X025048Y014160D01*
X025063Y014171D01*
X025080Y014179D01*
X025097Y014184D01*
X025116Y014186D01*
X025379Y014186D01*
X025217Y014522D02*
X025229Y014532D01*
X025242Y014541D01*
X025257Y014547D01*
X025272Y014551D01*
X025288Y014552D01*
X025217Y014522D02*
X025015Y014350D01*
X025015Y014552D01*
X025298Y014350D02*
X025315Y014357D01*
X025331Y014366D01*
X025345Y014378D01*
X025357Y014392D01*
X025366Y014408D01*
X025373Y014425D01*
X025378Y014443D01*
X025379Y014461D01*
X025377Y014479D01*
X025372Y014496D01*
X025364Y014512D01*
X025352Y014525D01*
X025339Y014537D01*
X025323Y014545D01*
X025306Y014550D01*
X025288Y014552D01*
X020960Y012103D02*
X020960Y011901D01*
X020958Y011885D01*
X020954Y011870D01*
X020946Y011856D01*
X020936Y011844D01*
X020924Y011834D01*
X020910Y011826D01*
X020895Y011822D01*
X020879Y011820D01*
X020799Y011820D01*
X020664Y011820D02*
X020563Y011820D01*
X020544Y011822D01*
X020527Y011827D01*
X020510Y011835D01*
X020495Y011846D01*
X020482Y011860D01*
X020473Y011876D01*
X020466Y011893D01*
X020462Y011912D01*
X020462Y011930D01*
X020466Y011949D01*
X020473Y011966D01*
X020482Y011982D01*
X020495Y011996D01*
X020510Y012007D01*
X020527Y012015D01*
X020544Y012020D01*
X020563Y012022D01*
X020543Y012022D02*
X020623Y012022D01*
X020543Y012022D02*
X020526Y012024D01*
X020510Y012029D01*
X020495Y012037D01*
X020483Y012049D01*
X020473Y012063D01*
X020466Y012078D01*
X020462Y012095D01*
X020462Y012111D01*
X020466Y012128D01*
X020473Y012144D01*
X020483Y012157D01*
X020495Y012169D01*
X020510Y012177D01*
X020526Y012182D01*
X020543Y012184D01*
X020664Y012184D01*
X020799Y012184D02*
X020879Y012184D01*
X020895Y012182D01*
X020910Y012178D01*
X020924Y012170D01*
X020936Y012160D01*
X020946Y012148D01*
X020954Y012134D01*
X020958Y012119D01*
X020960Y012103D01*
X020310Y012184D02*
X020188Y012184D01*
X020171Y012182D01*
X020155Y012177D01*
X020140Y012169D01*
X020128Y012157D01*
X020118Y012144D01*
X020111Y012128D01*
X020107Y012111D01*
X020107Y012095D01*
X020111Y012078D01*
X020118Y012063D01*
X020128Y012049D01*
X020140Y012037D01*
X020155Y012029D01*
X020171Y012024D01*
X020188Y012022D01*
X020269Y012022D01*
X020209Y012022D02*
X020190Y012020D01*
X020173Y012015D01*
X020156Y012007D01*
X020141Y011996D01*
X020128Y011982D01*
X020119Y011966D01*
X020112Y011949D01*
X020108Y011930D01*
X020108Y011912D01*
X020112Y011893D01*
X020119Y011876D01*
X020128Y011860D01*
X020141Y011846D01*
X020156Y011835D01*
X020173Y011827D01*
X020190Y011822D01*
X020209Y011820D01*
X020310Y011820D01*
X019223Y014484D02*
X018859Y014484D01*
X019021Y014484D02*
X019021Y014585D01*
X019021Y014605D02*
X018859Y014686D01*
X018859Y014836D02*
X018859Y015038D01*
X018859Y014937D02*
X019223Y014937D01*
X019142Y014836D01*
X019223Y014585D02*
X019221Y014604D01*
X019216Y014621D01*
X019208Y014638D01*
X019197Y014653D01*
X019183Y014666D01*
X019167Y014675D01*
X019150Y014682D01*
X019131Y014686D01*
X019113Y014686D01*
X019094Y014682D01*
X019077Y014675D01*
X019061Y014666D01*
X019047Y014653D01*
X019036Y014638D01*
X019028Y014621D01*
X019023Y014604D01*
X019021Y014585D01*
X019223Y014585D02*
X019223Y014484D01*
X019223Y015190D02*
X019223Y015312D01*
X019221Y015329D01*
X019216Y015345D01*
X019208Y015360D01*
X019196Y015372D01*
X019183Y015382D01*
X019167Y015389D01*
X019150Y015393D01*
X019134Y015393D01*
X019117Y015389D01*
X019102Y015382D01*
X019088Y015372D01*
X019076Y015360D01*
X019068Y015345D01*
X019063Y015329D01*
X019061Y015312D01*
X019062Y015312D02*
X019062Y015231D01*
X019062Y015291D02*
X019060Y015310D01*
X019055Y015327D01*
X019047Y015344D01*
X019036Y015359D01*
X019022Y015372D01*
X019006Y015381D01*
X018989Y015388D01*
X018970Y015392D01*
X018952Y015392D01*
X018933Y015388D01*
X018916Y015381D01*
X018900Y015372D01*
X018886Y015359D01*
X018875Y015344D01*
X018867Y015327D01*
X018862Y015310D01*
X018860Y015291D01*
X018859Y015291D02*
X018859Y015190D01*
X018859Y015960D02*
X019223Y015960D01*
X019223Y016061D01*
X019221Y016080D01*
X019216Y016097D01*
X019208Y016114D01*
X019197Y016129D01*
X019183Y016142D01*
X019167Y016151D01*
X019150Y016158D01*
X019131Y016162D01*
X019113Y016162D01*
X019094Y016158D01*
X019077Y016151D01*
X019061Y016142D01*
X019047Y016129D01*
X019036Y016114D01*
X019028Y016097D01*
X019023Y016080D01*
X019021Y016061D01*
X019021Y015960D01*
X019021Y016082D02*
X018859Y016162D01*
X018859Y016312D02*
X018859Y016515D01*
X018859Y016414D02*
X019223Y016414D01*
X019142Y016312D01*
X018940Y016667D02*
X018940Y016869D01*
X019021Y016808D02*
X018859Y016808D01*
X018940Y016667D02*
X019223Y016748D01*
X017053Y019694D02*
X017053Y019940D01*
X016950Y019940D01*
X016950Y019941D02*
X016936Y019939D01*
X016923Y019935D01*
X016911Y019927D01*
X016902Y019918D01*
X016894Y019906D01*
X016890Y019893D01*
X016888Y019879D01*
X016888Y019694D01*
X016715Y019694D02*
X016612Y019694D01*
X016612Y019693D02*
X016598Y019695D01*
X016585Y019699D01*
X016573Y019707D01*
X016564Y019716D01*
X016556Y019728D01*
X016552Y019741D01*
X016550Y019755D01*
X016550Y019879D01*
X016552Y019893D01*
X016556Y019906D01*
X016564Y019918D01*
X016573Y019927D01*
X016585Y019935D01*
X016598Y019939D01*
X016612Y019941D01*
X016612Y019940D02*
X016715Y019940D01*
X016715Y019570D01*
X016725Y020808D02*
X016725Y021172D01*
X016624Y021172D01*
X016605Y021170D01*
X016588Y021165D01*
X016571Y021157D01*
X016556Y021146D01*
X016543Y021132D01*
X016534Y021116D01*
X016527Y021099D01*
X016523Y021080D01*
X016523Y021062D01*
X016527Y021043D01*
X016534Y021026D01*
X016543Y021010D01*
X016556Y020996D01*
X016571Y020985D01*
X016588Y020977D01*
X016605Y020972D01*
X016624Y020970D01*
X016725Y020970D01*
X016603Y020970D02*
X016523Y020808D01*
X016373Y020808D02*
X016201Y021010D01*
X016261Y021172D02*
X016279Y021171D01*
X016297Y021166D01*
X016314Y021159D01*
X016330Y021150D01*
X016344Y021138D01*
X016356Y021124D01*
X016365Y021108D01*
X016372Y021091D01*
X016200Y021010D02*
X016190Y021022D01*
X016181Y021035D01*
X016175Y021050D01*
X016171Y021065D01*
X016170Y021081D01*
X016172Y021099D01*
X016177Y021116D01*
X016185Y021132D01*
X016197Y021145D01*
X016210Y021157D01*
X016226Y021165D01*
X016243Y021170D01*
X016261Y021172D01*
X016018Y021091D02*
X015917Y021172D01*
X015917Y020808D01*
X016018Y020808D02*
X015816Y020808D01*
X016171Y020808D02*
X016373Y020808D01*
X010812Y016227D02*
X010812Y016106D01*
X010812Y016227D02*
X010810Y016244D01*
X010805Y016260D01*
X010797Y016275D01*
X010785Y016287D01*
X010772Y016297D01*
X010756Y016304D01*
X010739Y016308D01*
X010723Y016308D01*
X010706Y016304D01*
X010691Y016297D01*
X010677Y016287D01*
X010665Y016275D01*
X010657Y016260D01*
X010652Y016244D01*
X010650Y016227D01*
X010650Y016146D01*
X010650Y016207D02*
X010648Y016226D01*
X010643Y016243D01*
X010635Y016260D01*
X010624Y016275D01*
X010610Y016288D01*
X010594Y016297D01*
X010577Y016304D01*
X010558Y016308D01*
X010540Y016308D01*
X010521Y016304D01*
X010504Y016297D01*
X010488Y016288D01*
X010474Y016275D01*
X010463Y016260D01*
X010455Y016243D01*
X010450Y016226D01*
X010448Y016207D01*
X010448Y016106D01*
X010529Y015965D02*
X010513Y015963D01*
X010498Y015959D01*
X010484Y015951D01*
X010472Y015941D01*
X010462Y015929D01*
X010454Y015915D01*
X010450Y015900D01*
X010448Y015884D01*
X010529Y015965D02*
X010546Y015963D01*
X010562Y015958D01*
X010577Y015950D01*
X010590Y015938D01*
X010600Y015925D01*
X010660Y015814D01*
X010812Y015854D02*
X010810Y015878D01*
X010804Y015902D01*
X010795Y015925D01*
X010782Y015945D01*
X010660Y015813D02*
X010670Y015800D01*
X010683Y015788D01*
X010698Y015780D01*
X010714Y015775D01*
X010731Y015773D01*
X010747Y015775D01*
X010762Y015779D01*
X010776Y015787D01*
X010788Y015797D01*
X010798Y015809D01*
X010806Y015823D01*
X010810Y015838D01*
X010812Y015854D01*
X010499Y015763D02*
X010484Y015779D01*
X010471Y015798D01*
X010461Y015818D01*
X010454Y015840D01*
X010449Y015862D01*
X010448Y015884D01*
X014143Y014057D02*
X014507Y014158D01*
X014507Y013956D01*
X014466Y013956D01*
X014507Y013702D02*
X014143Y013702D01*
X014143Y013601D02*
X014143Y013803D01*
X014426Y013601D02*
X014507Y013702D01*
X014507Y013350D02*
X014507Y013249D01*
X014143Y013249D01*
X014305Y013249D02*
X014305Y013350D01*
X014305Y013370D02*
X014143Y013451D01*
X014305Y013350D02*
X014307Y013369D01*
X014312Y013386D01*
X014320Y013403D01*
X014331Y013418D01*
X014345Y013431D01*
X014361Y013440D01*
X014378Y013447D01*
X014397Y013451D01*
X014415Y013451D01*
X014434Y013447D01*
X014451Y013440D01*
X014467Y013431D01*
X014481Y013418D01*
X014492Y013403D01*
X014500Y013386D01*
X014505Y013369D01*
X014507Y013350D01*
X014507Y012601D02*
X014507Y012479D01*
X014507Y012601D02*
X014505Y012618D01*
X014500Y012634D01*
X014492Y012649D01*
X014480Y012661D01*
X014467Y012671D01*
X014451Y012678D01*
X014434Y012682D01*
X014418Y012682D01*
X014401Y012678D01*
X014386Y012671D01*
X014372Y012661D01*
X014360Y012649D01*
X014352Y012634D01*
X014347Y012618D01*
X014345Y012601D01*
X014345Y012520D01*
X014345Y012580D02*
X014343Y012599D01*
X014338Y012616D01*
X014330Y012633D01*
X014319Y012648D01*
X014305Y012661D01*
X014289Y012670D01*
X014272Y012677D01*
X014253Y012681D01*
X014235Y012681D01*
X014216Y012677D01*
X014199Y012670D01*
X014183Y012661D01*
X014169Y012648D01*
X014158Y012633D01*
X014150Y012616D01*
X014145Y012599D01*
X014143Y012580D01*
X014143Y012479D01*
X014143Y012327D02*
X014143Y012125D01*
X014345Y012297D01*
X014507Y012236D02*
X014506Y012218D01*
X014501Y012200D01*
X014494Y012183D01*
X014485Y012167D01*
X014473Y012153D01*
X014459Y012141D01*
X014443Y012132D01*
X014426Y012125D01*
X014345Y012297D02*
X014357Y012307D01*
X014370Y012316D01*
X014385Y012322D01*
X014400Y012326D01*
X014416Y012327D01*
X014434Y012325D01*
X014451Y012320D01*
X014467Y012312D01*
X014480Y012300D01*
X014492Y012287D01*
X014500Y012271D01*
X014505Y012254D01*
X014507Y012236D01*
X014507Y011874D02*
X014507Y011773D01*
X014143Y011773D01*
X014305Y011773D02*
X014305Y011874D01*
X014305Y011894D02*
X014143Y011975D01*
X014305Y011874D02*
X014307Y011893D01*
X014312Y011910D01*
X014320Y011927D01*
X014331Y011942D01*
X014345Y011955D01*
X014361Y011964D01*
X014378Y011971D01*
X014397Y011975D01*
X014415Y011975D01*
X014434Y011971D01*
X014451Y011964D01*
X014467Y011955D01*
X014481Y011942D01*
X014492Y011927D01*
X014500Y011910D01*
X014505Y011893D01*
X014507Y011874D01*
X013568Y010691D02*
X013285Y010610D01*
X013285Y010812D01*
X013366Y010751D02*
X013204Y010751D01*
X013356Y010429D02*
X013416Y010318D01*
X013568Y010358D02*
X013566Y010382D01*
X013560Y010406D01*
X013551Y010429D01*
X013538Y010449D01*
X013416Y010317D02*
X013426Y010304D01*
X013439Y010292D01*
X013454Y010284D01*
X013470Y010279D01*
X013487Y010277D01*
X013503Y010279D01*
X013518Y010283D01*
X013532Y010291D01*
X013544Y010301D01*
X013554Y010313D01*
X013562Y010327D01*
X013566Y010342D01*
X013568Y010358D01*
X013255Y010267D02*
X013240Y010283D01*
X013227Y010302D01*
X013217Y010322D01*
X013210Y010344D01*
X013205Y010366D01*
X013204Y010388D01*
X013206Y010404D01*
X013210Y010419D01*
X013218Y010433D01*
X013228Y010445D01*
X013240Y010455D01*
X013254Y010463D01*
X013269Y010467D01*
X013285Y010469D01*
X013302Y010467D01*
X013318Y010462D01*
X013333Y010454D01*
X013346Y010442D01*
X013356Y010429D01*
X016308Y011773D02*
X016672Y011773D01*
X016672Y011874D01*
X016670Y011893D01*
X016665Y011910D01*
X016657Y011927D01*
X016646Y011942D01*
X016632Y011955D01*
X016616Y011964D01*
X016599Y011971D01*
X016580Y011975D01*
X016562Y011975D01*
X016543Y011971D01*
X016526Y011964D01*
X016510Y011955D01*
X016496Y011942D01*
X016485Y011927D01*
X016477Y011910D01*
X016472Y011893D01*
X016470Y011874D01*
X016470Y011773D01*
X016470Y011894D02*
X016308Y011975D01*
X016308Y012125D02*
X016308Y012327D01*
X016308Y012479D02*
X016308Y012681D01*
X016308Y012479D02*
X016510Y012651D01*
X016672Y012590D02*
X016671Y012572D01*
X016666Y012554D01*
X016659Y012537D01*
X016650Y012521D01*
X016638Y012507D01*
X016624Y012495D01*
X016608Y012486D01*
X016591Y012479D01*
X016510Y012652D02*
X016522Y012662D01*
X016535Y012671D01*
X016550Y012677D01*
X016565Y012681D01*
X016581Y012682D01*
X016581Y012681D02*
X016599Y012679D01*
X016616Y012674D01*
X016632Y012666D01*
X016645Y012654D01*
X016657Y012641D01*
X016665Y012625D01*
X016670Y012608D01*
X016672Y012590D01*
X016510Y012297D02*
X016308Y012125D01*
X016591Y012125D02*
X016608Y012132D01*
X016624Y012141D01*
X016638Y012153D01*
X016650Y012167D01*
X016659Y012183D01*
X016666Y012200D01*
X016671Y012218D01*
X016672Y012236D01*
X016670Y012254D01*
X016665Y012271D01*
X016657Y012287D01*
X016645Y012300D01*
X016632Y012312D01*
X016616Y012320D01*
X016599Y012325D01*
X016581Y012327D01*
X016565Y012326D01*
X016550Y012322D01*
X016535Y012316D01*
X016522Y012307D01*
X016510Y012297D01*
X016470Y013151D02*
X016470Y013252D01*
X016470Y013272D02*
X016308Y013353D01*
X016308Y013503D02*
X016308Y013705D01*
X016308Y013604D02*
X016672Y013604D01*
X016591Y013503D01*
X016672Y013252D02*
X016670Y013271D01*
X016665Y013288D01*
X016657Y013305D01*
X016646Y013320D01*
X016632Y013333D01*
X016616Y013342D01*
X016599Y013349D01*
X016580Y013353D01*
X016562Y013353D01*
X016543Y013349D01*
X016526Y013342D01*
X016510Y013333D01*
X016496Y013320D01*
X016485Y013305D01*
X016477Y013288D01*
X016472Y013271D01*
X016470Y013252D01*
X016308Y013151D02*
X016672Y013151D01*
X016672Y013252D01*
X016591Y013877D02*
X016574Y013879D01*
X016558Y013884D01*
X016543Y013892D01*
X016531Y013904D01*
X016521Y013918D01*
X016514Y013933D01*
X016510Y013950D01*
X016510Y013966D01*
X016514Y013983D01*
X016521Y013999D01*
X016531Y014012D01*
X016543Y014024D01*
X016558Y014032D01*
X016574Y014037D01*
X016591Y014039D01*
X016608Y014037D01*
X016624Y014032D01*
X016639Y014024D01*
X016651Y014012D01*
X016661Y013999D01*
X016668Y013983D01*
X016672Y013966D01*
X016672Y013950D01*
X016668Y013933D01*
X016661Y013918D01*
X016651Y013904D01*
X016639Y013892D01*
X016624Y013884D01*
X016608Y013879D01*
X016591Y013877D01*
X016409Y013857D02*
X016390Y013859D01*
X016373Y013864D01*
X016356Y013872D01*
X016341Y013883D01*
X016328Y013897D01*
X016319Y013913D01*
X016312Y013930D01*
X016308Y013949D01*
X016308Y013967D01*
X016312Y013986D01*
X016319Y014003D01*
X016328Y014019D01*
X016341Y014033D01*
X016356Y014044D01*
X016373Y014052D01*
X016390Y014057D01*
X016409Y014059D01*
X016428Y014057D01*
X016445Y014052D01*
X016462Y014044D01*
X016477Y014033D01*
X016490Y014019D01*
X016499Y014003D01*
X016506Y013986D01*
X016510Y013967D01*
X016510Y013949D01*
X016506Y013930D01*
X016499Y013913D01*
X016490Y013897D01*
X016477Y013883D01*
X016462Y013872D01*
X016445Y013864D01*
X016428Y013859D01*
X016409Y013857D01*
X027332Y010341D02*
X027494Y010341D01*
X027413Y010401D02*
X027413Y010199D01*
X027696Y010280D01*
X027696Y010064D02*
X027696Y009984D01*
X027694Y009968D01*
X027690Y009953D01*
X027682Y009939D01*
X027672Y009927D01*
X027660Y009917D01*
X027646Y009909D01*
X027631Y009905D01*
X027615Y009903D01*
X027413Y009903D01*
X027397Y009905D01*
X027382Y009909D01*
X027368Y009917D01*
X027356Y009927D01*
X027346Y009939D01*
X027338Y009953D01*
X027334Y009968D01*
X027332Y009984D01*
X027332Y010064D01*
X032201Y013454D02*
X032403Y013454D01*
X032231Y013656D01*
X032291Y013818D02*
X032309Y013817D01*
X032327Y013812D01*
X032344Y013805D01*
X032360Y013796D01*
X032374Y013784D01*
X032386Y013770D01*
X032395Y013754D01*
X032402Y013737D01*
X032230Y013656D02*
X032220Y013668D01*
X032211Y013681D01*
X032205Y013696D01*
X032201Y013711D01*
X032200Y013727D01*
X032202Y013745D01*
X032207Y013762D01*
X032215Y013778D01*
X032227Y013791D01*
X032240Y013803D01*
X032256Y013811D01*
X032273Y013816D01*
X032291Y013818D01*
X032656Y013818D02*
X032656Y013454D01*
X032757Y013454D02*
X032555Y013454D01*
X032757Y013737D02*
X032656Y013818D01*
X033008Y013818D02*
X033109Y013818D01*
X033109Y013454D01*
X033109Y013616D02*
X033008Y013616D01*
X032988Y013616D02*
X032907Y013454D01*
X033008Y013616D02*
X032989Y013618D01*
X032972Y013623D01*
X032955Y013631D01*
X032940Y013642D01*
X032927Y013656D01*
X032918Y013672D01*
X032911Y013689D01*
X032907Y013708D01*
X032907Y013726D01*
X032911Y013745D01*
X032918Y013762D01*
X032927Y013778D01*
X032940Y013792D01*
X032955Y013803D01*
X032972Y013811D01*
X032989Y013816D01*
X033008Y013818D01*
X033736Y013717D02*
X033736Y013616D01*
X033857Y013616D01*
X033736Y013616D02*
X033738Y013593D01*
X033743Y013570D01*
X033751Y013549D01*
X033762Y013528D01*
X033776Y013510D01*
X033792Y013494D01*
X033810Y013480D01*
X033831Y013469D01*
X033852Y013461D01*
X033875Y013456D01*
X033898Y013454D01*
X034088Y013454D02*
X034169Y013616D01*
X034189Y013616D02*
X034290Y013616D01*
X034189Y013616D02*
X034170Y013618D01*
X034153Y013623D01*
X034136Y013631D01*
X034121Y013642D01*
X034108Y013656D01*
X034099Y013672D01*
X034092Y013689D01*
X034088Y013708D01*
X034088Y013726D01*
X034092Y013745D01*
X034099Y013762D01*
X034108Y013778D01*
X034121Y013792D01*
X034136Y013803D01*
X034153Y013811D01*
X034170Y013816D01*
X034189Y013818D01*
X034290Y013818D01*
X034290Y013454D01*
X033938Y013696D02*
X033938Y013717D01*
X033938Y013696D02*
X033936Y013680D01*
X033932Y013665D01*
X033924Y013651D01*
X033914Y013639D01*
X033902Y013629D01*
X033888Y013621D01*
X033873Y013617D01*
X033857Y013615D01*
X033938Y013717D02*
X033936Y013736D01*
X033931Y013753D01*
X033923Y013770D01*
X033912Y013785D01*
X033898Y013798D01*
X033882Y013807D01*
X033865Y013814D01*
X033846Y013818D01*
X033828Y013818D01*
X033809Y013814D01*
X033792Y013807D01*
X033776Y013798D01*
X033762Y013785D01*
X033751Y013770D01*
X033743Y013753D01*
X033738Y013736D01*
X033736Y013717D01*
X034760Y013454D02*
X034962Y013454D01*
X034861Y013454D02*
X034861Y013818D01*
X034962Y013737D01*
X035215Y013818D02*
X035215Y013454D01*
X035316Y013454D02*
X035114Y013454D01*
X035316Y013737D02*
X035215Y013818D01*
X035567Y013818D02*
X035668Y013818D01*
X035668Y013454D01*
X035668Y013616D02*
X035567Y013616D01*
X035547Y013616D02*
X035466Y013454D01*
X035567Y013616D02*
X035548Y013618D01*
X035531Y013623D01*
X035514Y013631D01*
X035499Y013642D01*
X035486Y013656D01*
X035477Y013672D01*
X035470Y013689D01*
X035466Y013708D01*
X035466Y013726D01*
X035470Y013745D01*
X035477Y013762D01*
X035486Y013778D01*
X035499Y013792D01*
X035514Y013803D01*
X035531Y013811D01*
X035548Y013816D01*
X035567Y013818D01*
X036241Y013636D02*
X036239Y013602D01*
X036233Y013569D01*
X036224Y013536D01*
X036211Y013505D01*
X036221Y013535D02*
X036059Y013737D01*
X036069Y013767D02*
X036076Y013781D01*
X036085Y013794D01*
X036096Y013804D01*
X036110Y013812D01*
X036125Y013816D01*
X036140Y013818D01*
X036155Y013816D01*
X036170Y013812D01*
X036184Y013804D01*
X036195Y013794D01*
X036204Y013781D01*
X036211Y013767D01*
X036069Y013767D02*
X036056Y013736D01*
X036047Y013703D01*
X036041Y013670D01*
X036039Y013636D01*
X036241Y013636D02*
X036239Y013670D01*
X036233Y013703D01*
X036224Y013736D01*
X036211Y013767D01*
X036039Y013636D02*
X036041Y013602D01*
X036047Y013569D01*
X036056Y013536D01*
X036069Y013505D01*
X036140Y013454D02*
X036155Y013456D01*
X036170Y013460D01*
X036184Y013468D01*
X036195Y013478D01*
X036204Y013491D01*
X036211Y013505D01*
X036140Y013454D02*
X036125Y013456D01*
X036110Y013460D01*
X036096Y013468D01*
X036085Y013478D01*
X036076Y013491D01*
X036069Y013505D01*
X036393Y013454D02*
X036595Y013454D01*
X036494Y013454D02*
X036494Y013818D01*
X036595Y013737D01*
X036847Y013818D02*
X036828Y013816D01*
X036811Y013811D01*
X036794Y013803D01*
X036779Y013792D01*
X036766Y013778D01*
X036757Y013762D01*
X036750Y013745D01*
X036746Y013726D01*
X036746Y013708D01*
X036750Y013689D01*
X036757Y013672D01*
X036766Y013656D01*
X036779Y013642D01*
X036794Y013631D01*
X036811Y013623D01*
X036828Y013618D01*
X036847Y013616D01*
X036948Y013616D01*
X036826Y013616D02*
X036746Y013454D01*
X036948Y013454D02*
X036948Y013818D01*
X036847Y013818D01*
X002544Y010796D02*
X002544Y010594D01*
X002382Y010594D01*
X002382Y010715D01*
X002383Y010715D02*
X002381Y010731D01*
X002377Y010746D01*
X002369Y010760D01*
X002359Y010772D01*
X002347Y010782D01*
X002333Y010790D01*
X002318Y010794D01*
X002302Y010796D01*
X002261Y010796D01*
X002245Y010794D01*
X002230Y010790D01*
X002216Y010782D01*
X002204Y010772D01*
X002194Y010760D01*
X002186Y010746D01*
X002182Y010731D01*
X002180Y010715D01*
X002180Y010594D01*
X002261Y010453D02*
X002245Y010451D01*
X002230Y010447D01*
X002216Y010439D01*
X002204Y010429D01*
X002194Y010417D01*
X002186Y010403D01*
X002182Y010388D01*
X002180Y010372D01*
X002261Y010453D02*
X002278Y010451D01*
X002294Y010446D01*
X002309Y010438D01*
X002322Y010426D01*
X002332Y010413D01*
X002393Y010302D01*
X002545Y010342D02*
X002543Y010366D01*
X002537Y010390D01*
X002528Y010413D01*
X002515Y010433D01*
X002463Y010261D02*
X002446Y010263D01*
X002430Y010268D01*
X002415Y010276D01*
X002402Y010288D01*
X002392Y010301D01*
X002463Y010261D02*
X002479Y010263D01*
X002494Y010267D01*
X002508Y010275D01*
X002520Y010285D01*
X002530Y010297D01*
X002538Y010311D01*
X002542Y010326D01*
X002544Y010342D01*
X002231Y010251D02*
X002216Y010267D01*
X002203Y010286D01*
X002193Y010306D01*
X002186Y010328D01*
X002181Y010350D01*
X002180Y010372D01*
D11*
X023657Y004160D02*
X023657Y003942D01*
X023659Y003921D01*
X023664Y003900D01*
X023672Y003880D01*
X023683Y003862D01*
X023697Y003846D01*
X023713Y003832D01*
X023731Y003821D01*
X023751Y003813D01*
X023772Y003808D01*
X023793Y003806D01*
X023929Y003806D01*
X023929Y004296D01*
X023793Y004296D01*
X023772Y004294D01*
X023751Y004289D01*
X023731Y004281D01*
X023713Y004270D01*
X023697Y004256D01*
X023683Y004240D01*
X023672Y004222D01*
X023664Y004202D01*
X023659Y004181D01*
X023657Y004160D01*
X024150Y004296D02*
X024259Y004296D01*
X024278Y004294D01*
X024296Y004289D01*
X024314Y004281D01*
X024329Y004270D01*
X024342Y004257D01*
X024353Y004242D01*
X024361Y004224D01*
X024366Y004206D01*
X024368Y004187D01*
X024368Y003915D01*
X024366Y003896D01*
X024361Y003878D01*
X024353Y003861D01*
X024342Y003845D01*
X024329Y003832D01*
X024314Y003821D01*
X024296Y003813D01*
X024278Y003808D01*
X024259Y003806D01*
X024150Y003806D01*
X024567Y003806D02*
X024785Y003806D01*
X024785Y004296D01*
X036534Y006273D02*
X036534Y006491D01*
X036536Y006512D01*
X036541Y006533D01*
X036549Y006553D01*
X036560Y006571D01*
X036574Y006587D01*
X036590Y006601D01*
X036608Y006612D01*
X036628Y006620D01*
X036649Y006625D01*
X036670Y006627D01*
X036806Y006627D01*
X036806Y006137D01*
X036670Y006137D01*
X036649Y006139D01*
X036628Y006144D01*
X036608Y006152D01*
X036590Y006163D01*
X036574Y006177D01*
X036560Y006193D01*
X036549Y006211D01*
X036541Y006231D01*
X036536Y006252D01*
X036534Y006273D01*
X037027Y006137D02*
X037136Y006137D01*
X037155Y006139D01*
X037173Y006144D01*
X037191Y006152D01*
X037206Y006163D01*
X037219Y006176D01*
X037230Y006192D01*
X037238Y006209D01*
X037243Y006227D01*
X037245Y006246D01*
X037245Y006518D01*
X037243Y006537D01*
X037238Y006555D01*
X037230Y006573D01*
X037219Y006588D01*
X037206Y006601D01*
X037191Y006612D01*
X037173Y006620D01*
X037155Y006625D01*
X037136Y006627D01*
X037027Y006627D01*
X037662Y006627D02*
X037662Y006137D01*
X037444Y006137D01*
D12*
X037402Y005315D02*
X037067Y005315D01*
X037067Y004331D01*
X036516Y004331D01*
X037402Y003740D02*
X037402Y005315D01*
X035138Y004331D02*
X034587Y004331D01*
X034587Y005315D01*
X034252Y005315D01*
X034252Y003740D01*
X034941Y002362D02*
X036713Y002362D01*
X013262Y-003864D02*
X013262Y-004207D01*
X013262Y-004055D02*
X013167Y-004055D01*
X013167Y-004054D02*
X013148Y-004052D01*
X013131Y-004047D01*
X013114Y-004038D01*
X013100Y-004026D01*
X013088Y-004012D01*
X013079Y-003995D01*
X013074Y-003978D01*
X013072Y-003959D01*
X013074Y-003940D01*
X013079Y-003923D01*
X013088Y-003906D01*
X013100Y-003892D01*
X013114Y-003880D01*
X013131Y-003871D01*
X013148Y-003866D01*
X013167Y-003864D01*
X013262Y-003864D01*
X012912Y-003864D02*
X012912Y-004207D01*
X012912Y-004055D02*
X012816Y-004055D01*
X012797Y-004055D02*
X012721Y-004207D01*
X012561Y-004112D02*
X012561Y-003959D01*
X012560Y-003959D02*
X012558Y-003940D01*
X012553Y-003923D01*
X012544Y-003906D01*
X012532Y-003892D01*
X012518Y-003880D01*
X012501Y-003871D01*
X012484Y-003866D01*
X012465Y-003864D01*
X012446Y-003866D01*
X012429Y-003871D01*
X012412Y-003880D01*
X012398Y-003892D01*
X012386Y-003906D01*
X012377Y-003923D01*
X012372Y-003940D01*
X012370Y-003959D01*
X012370Y-004112D01*
X012372Y-004131D01*
X012377Y-004148D01*
X012386Y-004165D01*
X012398Y-004179D01*
X012412Y-004191D01*
X012429Y-004200D01*
X012446Y-004205D01*
X012465Y-004207D01*
X012484Y-004205D01*
X012501Y-004200D01*
X012518Y-004191D01*
X012532Y-004179D01*
X012544Y-004165D01*
X012553Y-004148D01*
X012558Y-004131D01*
X012560Y-004112D01*
X012816Y-004054D02*
X012797Y-004052D01*
X012780Y-004047D01*
X012763Y-004038D01*
X012749Y-004026D01*
X012737Y-004012D01*
X012728Y-003995D01*
X012723Y-003978D01*
X012721Y-003959D01*
X012723Y-003940D01*
X012728Y-003923D01*
X012737Y-003906D01*
X012749Y-003892D01*
X012763Y-003880D01*
X012780Y-003871D01*
X012797Y-003866D01*
X012816Y-003864D01*
X012912Y-003864D01*
X012194Y-003940D02*
X012194Y-004131D01*
X012193Y-004146D01*
X012188Y-004160D01*
X012181Y-004173D01*
X012172Y-004185D01*
X012160Y-004194D01*
X012147Y-004201D01*
X012133Y-004206D01*
X012118Y-004207D01*
X012003Y-004207D01*
X012003Y-004016D01*
X012061Y-004016D01*
X012194Y-003940D02*
X012193Y-003925D01*
X012188Y-003911D01*
X012181Y-003898D01*
X012172Y-003886D01*
X012160Y-003877D01*
X012147Y-003870D01*
X012133Y-003865D01*
X012118Y-003864D01*
X012003Y-003864D01*
X011813Y-003864D02*
X011718Y-003864D01*
X011699Y-003866D01*
X011682Y-003871D01*
X011665Y-003880D01*
X011651Y-003892D01*
X011639Y-003906D01*
X011630Y-003923D01*
X011625Y-003940D01*
X011623Y-003959D01*
X011625Y-003978D01*
X011630Y-003995D01*
X011639Y-004012D01*
X011651Y-004026D01*
X011665Y-004038D01*
X011682Y-004047D01*
X011699Y-004052D01*
X011718Y-004054D01*
X011718Y-004055D02*
X011813Y-004055D01*
X011699Y-004055D02*
X011623Y-004207D01*
X011481Y-004207D02*
X011367Y-003864D01*
X011252Y-004207D01*
X011281Y-004121D02*
X011453Y-004121D01*
X011465Y-004454D02*
X011465Y-004798D01*
X011503Y-004798D02*
X011427Y-004798D01*
X011265Y-004798D02*
X011265Y-004454D01*
X011074Y-004798D01*
X011074Y-004454D01*
X010887Y-004531D02*
X010887Y-004721D01*
X010886Y-004736D01*
X010881Y-004750D01*
X010874Y-004763D01*
X010865Y-004775D01*
X010853Y-004784D01*
X010840Y-004791D01*
X010826Y-004796D01*
X010811Y-004797D01*
X010811Y-004798D02*
X010696Y-004798D01*
X010696Y-004607D01*
X010753Y-004607D01*
X010887Y-004531D02*
X010886Y-004516D01*
X010881Y-004502D01*
X010874Y-004489D01*
X010865Y-004477D01*
X010853Y-004468D01*
X010840Y-004461D01*
X010826Y-004456D01*
X010811Y-004455D01*
X010811Y-004454D02*
X010696Y-004454D01*
X010666Y-004207D02*
X010666Y-003864D01*
X010552Y-004055D01*
X010437Y-003864D01*
X010437Y-004207D01*
X010271Y-004207D02*
X010195Y-004207D01*
X010233Y-004207D02*
X010233Y-003864D01*
X010271Y-003864D02*
X010195Y-003864D01*
X010033Y-003864D02*
X009842Y-004207D01*
X009842Y-003864D01*
X010033Y-003864D02*
X010033Y-004207D01*
X009655Y-004131D02*
X009655Y-003940D01*
X009654Y-003925D01*
X009649Y-003911D01*
X009642Y-003898D01*
X009633Y-003886D01*
X009621Y-003877D01*
X009608Y-003870D01*
X009594Y-003865D01*
X009579Y-003864D01*
X009464Y-003864D01*
X009464Y-004016D02*
X009464Y-004207D01*
X009579Y-004207D01*
X009594Y-004206D01*
X009608Y-004201D01*
X009621Y-004194D01*
X009633Y-004185D01*
X009642Y-004173D01*
X009649Y-004160D01*
X009654Y-004146D01*
X009655Y-004131D01*
X009521Y-004016D02*
X009464Y-004016D01*
X010862Y-003864D02*
X010862Y-004207D01*
X010977Y-004055D02*
X010862Y-003864D01*
X010977Y-004055D02*
X011091Y-003864D01*
X011091Y-004207D01*
X011427Y-004454D02*
X011503Y-004454D01*
X011665Y-004454D02*
X011779Y-004454D01*
X011779Y-004455D02*
X011794Y-004456D01*
X011808Y-004461D01*
X011821Y-004468D01*
X011833Y-004477D01*
X011842Y-004489D01*
X011849Y-004502D01*
X011854Y-004516D01*
X011855Y-004531D01*
X011856Y-004531D02*
X011856Y-004721D01*
X011855Y-004721D02*
X011854Y-004736D01*
X011849Y-004750D01*
X011842Y-004763D01*
X011833Y-004775D01*
X011821Y-004784D01*
X011808Y-004791D01*
X011794Y-004796D01*
X011779Y-004797D01*
X011779Y-004798D02*
X011665Y-004798D01*
X011665Y-004607D01*
X011722Y-004607D01*
X012028Y-004798D02*
X012104Y-004645D01*
X012123Y-004645D02*
X012219Y-004645D01*
X012123Y-004645D02*
X012104Y-004643D01*
X012087Y-004638D01*
X012070Y-004629D01*
X012056Y-004617D01*
X012044Y-004603D01*
X012035Y-004586D01*
X012030Y-004569D01*
X012028Y-004550D01*
X012030Y-004531D01*
X012035Y-004514D01*
X012044Y-004497D01*
X012056Y-004483D01*
X012070Y-004471D01*
X012087Y-004462D01*
X012104Y-004457D01*
X012123Y-004455D01*
X012123Y-004454D02*
X012219Y-004454D01*
X012219Y-004798D01*
X012378Y-004798D02*
X012492Y-004454D01*
X012607Y-004798D01*
X012578Y-004712D02*
X012406Y-004712D01*
X012763Y-004798D02*
X012763Y-004454D01*
X012763Y-004607D02*
X012954Y-004607D01*
X012954Y-004454D02*
X012954Y-004798D01*
X013110Y-004798D02*
X013186Y-004798D01*
X013186Y-004797D02*
X013201Y-004796D01*
X013215Y-004791D01*
X013228Y-004784D01*
X013240Y-004775D01*
X013249Y-004763D01*
X013256Y-004750D01*
X013261Y-004736D01*
X013262Y-004721D01*
X013262Y-004531D01*
X013261Y-004516D01*
X013256Y-004502D01*
X013249Y-004489D01*
X013240Y-004477D01*
X013228Y-004468D01*
X013215Y-004461D01*
X013201Y-004456D01*
X013186Y-004455D01*
X013186Y-004454D02*
X013110Y-004454D01*
X011813Y-004207D02*
X011813Y-003864D01*
D13*
X013885Y-003374D02*
X014227Y-003374D01*
X014034Y-003159D02*
X014034Y-003148D01*
X014032Y-003131D01*
X014027Y-003114D01*
X014019Y-003099D01*
X014008Y-003086D01*
X013995Y-003075D01*
X013980Y-003067D01*
X013963Y-003062D01*
X013946Y-003060D01*
X013885Y-003060D01*
X013885Y-003059D02*
X013870Y-003057D01*
X013856Y-003052D01*
X013844Y-003045D01*
X013833Y-003034D01*
X013826Y-003022D01*
X013821Y-003008D01*
X013819Y-002993D01*
X013819Y-002993D01*
X013818Y-002993D02*
X013819Y-002980D01*
X013824Y-002967D01*
X013831Y-002955D01*
X013841Y-002945D01*
X013853Y-002938D01*
X013866Y-002933D01*
X013879Y-002932D01*
X013880Y-002933D02*
X014249Y-002933D01*
X014249Y-005013D01*
X013880Y-005013D01*
X013879Y-005014D02*
X013866Y-005015D01*
X013853Y-005020D01*
X013842Y-005027D01*
X013832Y-005037D01*
X013825Y-005048D01*
X013820Y-005061D01*
X013819Y-005074D01*
X013819Y-005074D01*
X013821Y-005089D01*
X013826Y-005103D01*
X013833Y-005115D01*
X013844Y-005126D01*
X013856Y-005133D01*
X013870Y-005138D01*
X013885Y-005140D01*
X013946Y-005140D01*
X013946Y-005141D02*
X013963Y-005143D01*
X013980Y-005148D01*
X013995Y-005156D01*
X014008Y-005167D01*
X014019Y-005180D01*
X014027Y-005195D01*
X014032Y-005212D01*
X014034Y-005229D01*
X014034Y-005240D01*
X014032Y-005257D01*
X014027Y-005274D01*
X014019Y-005289D01*
X014008Y-005302D01*
X013995Y-005313D01*
X013980Y-005321D01*
X013963Y-005326D01*
X013946Y-005328D01*
X013880Y-005328D01*
X013866Y-005330D01*
X013854Y-005334D01*
X013842Y-005341D01*
X013832Y-005351D01*
X013825Y-005363D01*
X013821Y-005375D01*
X013819Y-005389D01*
X013821Y-005404D01*
X013826Y-005418D01*
X013833Y-005430D01*
X013844Y-005441D01*
X013856Y-005448D01*
X013870Y-005453D01*
X013885Y-005455D01*
X014227Y-005455D01*
X014271Y-005968D02*
X014879Y-005968D01*
X014901Y-005966D01*
X014922Y-005961D01*
X014942Y-005953D01*
X014960Y-005942D01*
X014977Y-005928D01*
X014991Y-005911D01*
X015002Y-005893D01*
X015010Y-005873D01*
X015015Y-005852D01*
X015017Y-005830D01*
X015017Y-005814D01*
X015083Y-004368D01*
X015082Y-004354D01*
X015078Y-004340D01*
X015070Y-004329D01*
X015060Y-004319D01*
X015048Y-004312D01*
X015035Y-004308D01*
X015021Y-004307D01*
X015007Y-004310D01*
X014994Y-004316D01*
X014984Y-004324D01*
X014975Y-004336D01*
X014969Y-004348D01*
X014967Y-004362D01*
X014879Y-005698D01*
X014879Y-005697D02*
X014876Y-005716D01*
X014869Y-005733D01*
X014860Y-005749D01*
X014847Y-005763D01*
X014832Y-005774D01*
X014816Y-005782D01*
X014798Y-005787D01*
X014779Y-005788D01*
X014761Y-005786D01*
X014743Y-005780D01*
X014727Y-005771D01*
X014713Y-005759D01*
X014701Y-005744D01*
X014692Y-005728D01*
X014687Y-005710D01*
X014685Y-005692D01*
X014597Y-004351D01*
X014595Y-004339D01*
X014589Y-004328D01*
X014581Y-004319D01*
X014571Y-004312D01*
X014560Y-004308D01*
X014548Y-004307D01*
X014547Y-004307D02*
X014271Y-004307D01*
X014249Y-005013D02*
X014249Y-006437D01*
X017246Y-006437D01*
X017246Y-002933D01*
X016750Y-002933D01*
X016728Y-002935D01*
X016706Y-002940D01*
X016685Y-002949D01*
X016666Y-002960D01*
X016649Y-002975D01*
X016634Y-002992D01*
X016623Y-003011D01*
X016614Y-003032D01*
X016609Y-003054D01*
X016607Y-003076D01*
X016606Y-003076D02*
X016606Y-003286D01*
X017246Y-003374D02*
X017616Y-003374D01*
X017616Y-003375D02*
X017629Y-003373D01*
X017642Y-003369D01*
X017654Y-003362D01*
X017664Y-003352D01*
X017671Y-003340D01*
X017676Y-003327D01*
X017677Y-003314D01*
X017677Y-003313D02*
X017677Y-003313D01*
X017675Y-003298D01*
X017670Y-003284D01*
X017663Y-003272D01*
X017652Y-003261D01*
X017640Y-003254D01*
X017626Y-003249D01*
X017611Y-003247D01*
X017550Y-003247D01*
X017533Y-003245D01*
X017516Y-003240D01*
X017501Y-003232D01*
X017488Y-003221D01*
X017477Y-003208D01*
X017469Y-003193D01*
X017464Y-003176D01*
X017462Y-003159D01*
X017462Y-003148D01*
X017464Y-003131D01*
X017469Y-003114D01*
X017477Y-003099D01*
X017488Y-003086D01*
X017501Y-003075D01*
X017516Y-003067D01*
X017533Y-003062D01*
X017550Y-003060D01*
X017616Y-003060D01*
X017630Y-003058D01*
X017642Y-003054D01*
X017654Y-003047D01*
X017664Y-003037D01*
X017671Y-003025D01*
X017675Y-003013D01*
X017677Y-002999D01*
X017675Y-002984D01*
X017670Y-002970D01*
X017663Y-002958D01*
X017652Y-002947D01*
X017640Y-002940D01*
X017626Y-002935D01*
X017611Y-002933D01*
X017241Y-002933D01*
X016043Y-004191D02*
X015464Y-004191D01*
X015441Y-004193D01*
X015420Y-004198D01*
X015399Y-004207D01*
X015379Y-004219D01*
X015362Y-004233D01*
X015348Y-004250D01*
X015336Y-004270D01*
X015327Y-004291D01*
X015322Y-004312D01*
X015320Y-004335D01*
X015237Y-005908D01*
X015238Y-005908D02*
X015240Y-005921D01*
X015246Y-005934D01*
X015255Y-005945D01*
X015266Y-005953D01*
X015279Y-005958D01*
X015293Y-005960D01*
X015307Y-005958D01*
X015320Y-005953D01*
X015331Y-005945D01*
X015340Y-005934D01*
X015346Y-005921D01*
X015348Y-005908D01*
X015403Y-004710D01*
X015403Y-004682D01*
X015405Y-004658D01*
X015410Y-004635D01*
X015418Y-004613D01*
X015429Y-004592D01*
X015444Y-004573D01*
X015460Y-004557D01*
X015479Y-004542D01*
X015500Y-004531D01*
X015522Y-004523D01*
X015545Y-004518D01*
X015569Y-004516D01*
X015569Y-004517D02*
X015916Y-004517D01*
X015940Y-004519D01*
X015964Y-004524D01*
X015987Y-004532D01*
X016008Y-004544D01*
X016028Y-004559D01*
X016045Y-004576D01*
X016060Y-004596D01*
X016072Y-004617D01*
X016080Y-004640D01*
X016085Y-004664D01*
X016087Y-004688D01*
X016154Y-005913D01*
X016153Y-005913D02*
X016156Y-005926D01*
X016162Y-005939D01*
X016171Y-005949D01*
X016182Y-005957D01*
X016195Y-005962D01*
X016209Y-005963D01*
X016222Y-005960D01*
X016235Y-005954D01*
X016245Y-005945D01*
X016253Y-005934D01*
X016258Y-005921D01*
X016259Y-005907D01*
X016258Y-005908D02*
X016176Y-004324D01*
X016174Y-004303D01*
X016169Y-004283D01*
X016161Y-004264D01*
X016151Y-004246D01*
X016137Y-004230D01*
X016121Y-004216D01*
X016103Y-004206D01*
X016084Y-004198D01*
X016064Y-004193D01*
X016043Y-004191D01*
X016413Y-004368D02*
X016479Y-005814D01*
X016479Y-005830D01*
X016481Y-005852D01*
X016486Y-005873D01*
X016494Y-005893D01*
X016505Y-005911D01*
X016519Y-005928D01*
X016536Y-005942D01*
X016554Y-005953D01*
X016574Y-005961D01*
X016595Y-005966D01*
X016617Y-005968D01*
X017224Y-005968D01*
X016810Y-005692D02*
X016899Y-004351D01*
X016901Y-004339D01*
X016907Y-004328D01*
X016915Y-004319D01*
X016925Y-004312D01*
X016936Y-004308D01*
X016948Y-004307D01*
X017224Y-004307D01*
X016529Y-004362D02*
X016617Y-005698D01*
X016617Y-005697D02*
X016620Y-005716D01*
X016627Y-005733D01*
X016636Y-005749D01*
X016649Y-005763D01*
X016664Y-005774D01*
X016680Y-005782D01*
X016698Y-005787D01*
X016717Y-005788D01*
X016735Y-005786D01*
X016753Y-005780D01*
X016769Y-005771D01*
X016783Y-005759D01*
X016795Y-005744D01*
X016804Y-005728D01*
X016809Y-005710D01*
X016811Y-005692D01*
X017246Y-005455D02*
X017616Y-005455D01*
X017616Y-005454D02*
X017629Y-005453D01*
X017642Y-005448D01*
X017653Y-005441D01*
X017663Y-005431D01*
X017670Y-005420D01*
X017675Y-005407D01*
X017676Y-005394D01*
X017677Y-005394D02*
X017677Y-005394D01*
X017675Y-005379D01*
X017670Y-005365D01*
X017663Y-005353D01*
X017652Y-005342D01*
X017640Y-005335D01*
X017626Y-005330D01*
X017611Y-005328D01*
X017550Y-005328D01*
X017533Y-005326D01*
X017516Y-005321D01*
X017501Y-005313D01*
X017488Y-005302D01*
X017477Y-005289D01*
X017469Y-005274D01*
X017464Y-005257D01*
X017462Y-005240D01*
X017462Y-005229D01*
X017464Y-005212D01*
X017469Y-005195D01*
X017477Y-005180D01*
X017488Y-005167D01*
X017501Y-005156D01*
X017516Y-005148D01*
X017533Y-005143D01*
X017550Y-005141D01*
X017550Y-005140D02*
X017616Y-005140D01*
X017616Y-005141D02*
X017630Y-005139D01*
X017642Y-005135D01*
X017654Y-005128D01*
X017664Y-005118D01*
X017671Y-005106D01*
X017675Y-005094D01*
X017677Y-005080D01*
X017675Y-005065D01*
X017670Y-005051D01*
X017663Y-005039D01*
X017652Y-005028D01*
X017640Y-005021D01*
X017626Y-005016D01*
X017611Y-005014D01*
X017611Y-005013D02*
X017268Y-005013D01*
X016529Y-004362D02*
X016527Y-004348D01*
X016521Y-004336D01*
X016512Y-004324D01*
X016502Y-004316D01*
X016489Y-004310D01*
X016475Y-004307D01*
X016461Y-004308D01*
X016448Y-004312D01*
X016436Y-004319D01*
X016426Y-004329D01*
X016418Y-004340D01*
X016414Y-004354D01*
X016413Y-004368D01*
X014890Y-003302D02*
X014890Y-003071D01*
X014888Y-003049D01*
X014883Y-003028D01*
X014875Y-003008D01*
X014864Y-002990D01*
X014850Y-002973D01*
X014833Y-002959D01*
X014815Y-002948D01*
X014795Y-002940D01*
X014774Y-002935D01*
X014752Y-002933D01*
X014249Y-002933D01*
X014034Y-003159D02*
X014032Y-003176D01*
X014027Y-003193D01*
X014019Y-003208D01*
X014008Y-003221D01*
X013995Y-003232D01*
X013980Y-003240D01*
X013963Y-003245D01*
X013946Y-003247D01*
X013880Y-003247D01*
X013866Y-003249D01*
X013854Y-003253D01*
X013842Y-003260D01*
X013832Y-003270D01*
X013825Y-003282D01*
X013821Y-003294D01*
X013819Y-003308D01*
X013821Y-003323D01*
X013826Y-003337D01*
X013833Y-003349D01*
X013844Y-003360D01*
X013856Y-003367D01*
X013870Y-003372D01*
X013885Y-003374D01*
D14*
X025197Y002264D02*
X025197Y005020D01*
X033661Y005020D01*
X033661Y002264D01*
X032677Y002264D01*
X032677Y002953D01*
X026378Y002953D01*
X026378Y002264D01*
X032677Y002264D01*
X026378Y002264D02*
X025197Y002264D01*
X025787Y013780D02*
X025787Y013976D01*
X026575Y013976D01*
X026575Y013780D01*
X025787Y013780D01*
X025787Y013976D02*
X025787Y014764D01*
X026575Y014764D01*
X026575Y013976D01*
D15*
X006890Y004331D02*
X005512Y004331D01*
X005512Y009055D01*
X006890Y009055D01*
X006890Y006693D01*
X007480Y006693D01*
X008071Y006102D01*
X008268Y006693D02*
X008858Y006693D01*
X008858Y009055D01*
X006890Y009055D01*
X007480Y010039D02*
X006102Y010039D01*
X006102Y012402D01*
X005512Y012402D01*
X006102Y012402D02*
X006102Y014764D01*
X004134Y014764D01*
X004134Y012402D01*
X004724Y012402D01*
X005315Y011811D01*
X004134Y012402D02*
X004134Y010039D01*
X006102Y010039D01*
X007480Y010039D02*
X007480Y014764D01*
X006102Y014764D01*
X005512Y015748D02*
X006890Y015748D01*
X006890Y018110D01*
X007480Y018110D01*
X008071Y017520D01*
X008268Y018110D02*
X008858Y018110D01*
X008858Y020472D01*
X006890Y020472D01*
X006890Y018110D01*
X008858Y018110D02*
X008858Y015748D01*
X010236Y015748D01*
X010236Y020472D01*
X008858Y020472D01*
X006890Y020472D02*
X005512Y020472D01*
X005512Y015748D01*
X004134Y014764D02*
X002756Y014764D01*
X002756Y010039D01*
X004134Y010039D01*
X008268Y010039D02*
X008268Y014764D01*
X009646Y014764D01*
X009646Y012402D01*
X010236Y012402D01*
X009646Y012402D02*
X009646Y010039D01*
X011614Y010039D01*
X011614Y012402D01*
X011024Y012402D01*
X010433Y012992D01*
X011614Y012402D02*
X011614Y014764D01*
X009646Y014764D01*
X008858Y015748D02*
X006890Y015748D01*
X011614Y014764D02*
X012992Y014764D01*
X012992Y010039D01*
X011614Y010039D01*
X010236Y009055D02*
X010236Y004331D01*
X008858Y004331D01*
X008858Y006693D01*
X006890Y006693D02*
X006890Y004331D01*
X008858Y004331D01*
X008858Y009055D02*
X010236Y009055D01*
X009646Y010039D02*
X008268Y010039D01*
M02*
