%
M48
M72
T01C0.0138
T02C0.0315
T03C0.0362
T04C0.0400
T05C0.0531
T06C0.0906
T07C0.2165
%
T01
X15748Y5118
X16043Y5020
X19193Y6102
X19980Y7283
X20768Y7283
X20472Y8957
X19587Y8957
X19587Y9547
X18012Y9744
X18110Y8661
X16634Y9744
X15453Y11614
X15453Y12500
X15354Y13287
X15453Y14075
X16634Y14469
X19390Y15748
X21358Y14469
X20177Y13287
X20669Y11614
X24016Y11614
X24705Y10433
X25000Y10433
X25394Y10433
X25295Y9744
X24409Y10236
X24016Y9547
X22146Y8957
X23917Y7776
X25098Y7776
X25689Y7087
X25492Y6791
X26083Y6988
X25492Y5709
X25098Y5709
X25098Y4528
X25098Y3740
X23917Y3445
X26772Y4134
X26575Y5512
X26870Y5610
X27165Y5512
X28445Y5807
X28740Y5807
X29626Y5610
X29921Y5512
X31102Y5512
X31693Y5512
X30610Y4232
X30315Y4134
X29232Y4134
X31594Y4134
X34646Y5020
X30807Y7382
X30807Y7677
X30807Y7972
X31102Y8268
X31102Y8563
X30906Y8858
X29134Y8366
X28839Y8465
X28543Y8563
X28445Y8858
X28740Y9055
X28543Y10236
X29528Y10236
X29528Y11417
X28543Y11417
X27165Y11122
X26575Y10630
X26969Y10039
X27362Y9154
X30315Y12106
X30807Y12402
X31102Y12106
X29626Y12598
X28543Y12697
X27854Y13091
X27756Y13583
X27067Y14272
X27165Y14567
X25984Y15157
X24803Y15059
X24508Y15256
X25787Y13780
X25394Y13583
X28740Y13976
X32677Y13976
X33957Y13976
X35236Y13976
X36516Y13976
X37402Y13976
X32972Y9449
X35433Y8957
X23031Y16929
X18602Y17421
X17520Y17520
X17126Y18406
X17126Y20374
X15354Y20374
X13681Y20079
X12598Y20079
X11024Y20079
X12598Y12795
X11024Y11417
X11811Y10630
T02
X32776Y11417
X33563Y11417
X34350Y11417
X35138Y11417
X35925Y11417
X36713Y11417
T03
X22535Y17209
X22535Y18193
X22535Y18980
X22535Y19965
T04
X23228Y13591
X23228Y12591
T05
X6890Y4232
X8858Y4232
X8858Y9154
X9646Y9941
X11614Y9941
X6890Y9154
X6102Y9941
X4134Y9941
X4134Y14862
X6102Y14862
X6890Y15650
X8858Y15650
X9646Y14862
X11614Y14862
X8858Y20571
X6890Y20571
T06
X23594Y21173
X23594Y16000
T07
X14370Y16732
X14370Y7874
X1969Y7874
X1969Y16732
M30
