G75*
%MOIN*%
%OFA0B0*%
%FSLAX24Y24*%
%IPPOS*%
%LPD*%
%AMOC8*
5,1,8,0,0,1.08239X$1,22.5*
%
%ADD10C,0.0000*%
D10*
X038189Y014764D02*
X038189Y002559D01*
X038187Y002520D01*
X038181Y002482D01*
X038172Y002445D01*
X038159Y002408D01*
X038142Y002373D01*
X038123Y002340D01*
X038100Y002309D01*
X038074Y002280D01*
X038045Y002254D01*
X038014Y002231D01*
X037981Y002212D01*
X037946Y002195D01*
X037909Y002182D01*
X037872Y002173D01*
X037834Y002167D01*
X037795Y002165D01*
X018504Y002165D01*
X018504Y002166D02*
X018465Y002164D01*
X018427Y002158D01*
X018390Y002149D01*
X018353Y002136D01*
X018318Y002119D01*
X018285Y002100D01*
X018254Y002077D01*
X018225Y002051D01*
X018199Y002022D01*
X018176Y001991D01*
X018157Y001958D01*
X018140Y001923D01*
X018127Y001886D01*
X018118Y001849D01*
X018112Y001811D01*
X018110Y001772D01*
X018110Y-005512D01*
X018111Y-005512D02*
X018109Y-005551D01*
X018103Y-005589D01*
X018094Y-005626D01*
X018081Y-005663D01*
X018064Y-005698D01*
X018045Y-005731D01*
X018022Y-005762D01*
X017996Y-005791D01*
X017967Y-005817D01*
X017936Y-005840D01*
X017903Y-005859D01*
X017868Y-005876D01*
X017831Y-005889D01*
X017794Y-005898D01*
X017756Y-005904D01*
X017717Y-005906D01*
X000492Y-005906D01*
X000451Y-005909D01*
X000410Y-005908D01*
X000369Y-005903D01*
X000329Y-005894D01*
X000290Y-005882D01*
X000252Y-005866D01*
X000215Y-005846D01*
X000181Y-005824D01*
X000149Y-005798D01*
X000119Y-005769D01*
X000092Y-005738D01*
X000068Y-005705D01*
X000047Y-005669D01*
X000030Y-005632D01*
X000016Y-005593D01*
X000006Y-005553D01*
X000000Y-005512D01*
X000000Y021654D01*
X000002Y021693D01*
X000008Y021731D01*
X000017Y021768D01*
X000030Y021805D01*
X000047Y021840D01*
X000066Y021873D01*
X000089Y021904D01*
X000115Y021933D01*
X000144Y021959D01*
X000175Y021982D01*
X000208Y022001D01*
X000243Y022018D01*
X000280Y022031D01*
X000317Y022040D01*
X000355Y022046D01*
X000394Y022048D01*
X000394Y022047D02*
X027362Y022047D01*
X027362Y022048D02*
X027401Y022046D01*
X027439Y022040D01*
X027476Y022031D01*
X027513Y022018D01*
X027548Y022001D01*
X027581Y021982D01*
X027612Y021959D01*
X027641Y021933D01*
X027667Y021904D01*
X027690Y021873D01*
X027709Y021840D01*
X027726Y021805D01*
X027739Y021768D01*
X027748Y021731D01*
X027754Y021693D01*
X027756Y021654D01*
X027756Y015551D01*
X027758Y015512D01*
X027764Y015474D01*
X027773Y015437D01*
X027786Y015400D01*
X027803Y015365D01*
X027822Y015332D01*
X027845Y015301D01*
X027871Y015272D01*
X027900Y015246D01*
X027931Y015223D01*
X027964Y015204D01*
X027999Y015187D01*
X028036Y015174D01*
X028073Y015165D01*
X028111Y015159D01*
X028150Y015157D01*
X037795Y015157D01*
X037795Y015158D02*
X037834Y015156D01*
X037872Y015150D01*
X037909Y015141D01*
X037946Y015128D01*
X037981Y015111D01*
X038014Y015092D01*
X038045Y015069D01*
X038074Y015043D01*
X038100Y015014D01*
X038123Y014983D01*
X038142Y014950D01*
X038159Y014915D01*
X038172Y014878D01*
X038181Y014841D01*
X038187Y014803D01*
X038189Y014764D01*
M02*
