G75*
%MOIN*%
%OFA0B0*%
%FSLAX24Y24*%
%IPPOS*%
%LPD*%
%AMOC8*
5,1,8,0,0,1.08239X$1,22.5*
%
%ADD10C,0.0050*%
%ADD11C,0.0080*%
%ADD12C,0.0070*%
%ADD13C,0.0040*%
%ADD14C,0.0060*%
%ADD15C,0.0030*%
%ADD16C,0.0039*%
%ADD17C,0.0120*%
%ADD18R,0.0079X0.0039*%
%ADD19C,0.0197*%
%ADD20C,0.0160*%
%ADD21C,0.0079*%
%ADD22C,0.0157*%
%ADD23R,0.0018X0.0006*%
%ADD24R,0.0030X0.0006*%
%ADD25R,0.0042X0.0006*%
%ADD26R,0.0024X0.0006*%
%ADD27R,0.0024X0.0006*%
%ADD28R,0.0012X0.0006*%
%ADD29R,0.0006X0.0006*%
%ADD30R,0.0078X0.0006*%
%ADD31R,0.0126X0.0006*%
%ADD32R,0.0150X0.0006*%
%ADD33R,0.0222X0.0006*%
%ADD34R,0.0258X0.0006*%
%ADD35R,0.0306X0.0006*%
%ADD36R,0.0330X0.0006*%
%ADD37R,0.0354X0.0006*%
%ADD38R,0.0342X0.0006*%
%ADD39R,0.0318X0.0006*%
%ADD40R,0.0252X0.0006*%
%ADD41R,0.0228X0.0006*%
%ADD42R,0.0174X0.0006*%
%ADD43R,0.0138X0.0006*%
%ADD44R,0.0084X0.0006*%
%ADD45R,0.0048X0.0006*%
%ADD46R,0.0090X0.0006*%
%ADD47R,0.0216X0.0006*%
%ADD48R,0.0294X0.0006*%
%ADD49R,0.0336X0.0006*%
%ADD50R,0.0414X0.0006*%
%ADD51R,0.0456X0.0006*%
%ADD52R,0.0486X0.0006*%
%ADD53R,0.0498X0.0006*%
%ADD54R,0.0492X0.0006*%
%ADD55R,0.0324X0.0006*%
%ADD56R,0.0234X0.0006*%
%ADD57R,0.0198X0.0006*%
%ADD58R,0.0114X0.0006*%
%ADD59R,0.0102X0.0006*%
%ADD60R,0.0108X0.0006*%
%ADD61R,0.0264X0.0006*%
%ADD62R,0.0426X0.0006*%
%ADD63R,0.0510X0.0006*%
%ADD64R,0.0570X0.0006*%
%ADD65R,0.0630X0.0006*%
%ADD66R,0.0636X0.0006*%
%ADD67R,0.0642X0.0006*%
%ADD68R,0.0606X0.0006*%
%ADD69R,0.0474X0.0006*%
%ADD70R,0.0270X0.0006*%
%ADD71R,0.0168X0.0006*%
%ADD72R,0.0012X0.0006*%
%ADD73R,0.0036X0.0006*%
%ADD74R,0.0102X0.0006*%
%ADD75R,0.0282X0.0006*%
%ADD76R,0.0402X0.0006*%
%ADD77R,0.0462X0.0006*%
%ADD78R,0.0582X0.0006*%
%ADD79R,0.0726X0.0006*%
%ADD80R,0.0744X0.0006*%
%ADD81R,0.0738X0.0006*%
%ADD82R,0.0696X0.0006*%
%ADD83R,0.0576X0.0006*%
%ADD84R,0.0210X0.0006*%
%ADD85R,0.0222X0.0006*%
%ADD86R,0.0186X0.0006*%
%ADD87R,0.0144X0.0006*%
%ADD88R,0.0360X0.0006*%
%ADD89R,0.0366X0.0006*%
%ADD90R,0.0348X0.0006*%
%ADD91R,0.0390X0.0006*%
%ADD92R,0.0876X0.0006*%
%ADD93R,0.0882X0.0006*%
%ADD94R,0.0894X0.0006*%
%ADD95R,0.0792X0.0006*%
%ADD96R,0.0714X0.0006*%
%ADD97R,0.0594X0.0006*%
%ADD98R,0.0600X0.0006*%
%ADD99R,0.0648X0.0006*%
%ADD100R,0.0672X0.0006*%
%ADD101R,0.0678X0.0006*%
%ADD102R,0.0750X0.0006*%
%ADD103R,0.0762X0.0006*%
%ADD104R,0.0822X0.0006*%
%ADD105R,0.0828X0.0006*%
%ADD106R,0.0852X0.0006*%
%ADD107R,0.0870X0.0006*%
%ADD108R,0.0942X0.0006*%
%ADD109R,0.0936X0.0006*%
%ADD110R,0.0054X0.0006*%
%ADD111R,0.0864X0.0006*%
%ADD112R,0.0060X0.0006*%
%ADD113R,0.0858X0.0006*%
%ADD114R,0.0054X0.0006*%
%ADD115R,0.0066X0.0006*%
%ADD116R,0.0072X0.0006*%
%ADD117R,0.0846X0.0006*%
%ADD118R,0.0072X0.0006*%
%ADD119R,0.0708X0.0006*%
%ADD120R,0.0702X0.0006*%
%ADD121R,0.0666X0.0006*%
%ADD122R,0.0642X0.0006*%
%ADD123R,0.0096X0.0006*%
%ADD124R,0.0612X0.0006*%
%ADD125R,0.0564X0.0006*%
%ADD126R,0.0558X0.0006*%
%ADD127R,0.0114X0.0006*%
%ADD128R,0.0414X0.0006*%
%ADD129R,0.0378X0.0006*%
%ADD130R,0.0312X0.0006*%
%ADD131R,0.0282X0.0006*%
%ADD132R,0.0156X0.0006*%
%ADD133R,0.0132X0.0006*%
%ADD134R,0.0162X0.0006*%
%ADD135R,0.0084X0.0006*%
%ADD136R,0.0180X0.0006*%
%ADD137R,0.0300X0.0006*%
%ADD138R,0.0372X0.0006*%
%ADD139R,0.0396X0.0006*%
%ADD140R,0.0462X0.0006*%
%ADD141R,0.0468X0.0006*%
%ADD142R,0.0588X0.0006*%
%ADD143R,0.0204X0.0006*%
%ADD144R,0.0240X0.0006*%
%ADD145R,0.0732X0.0006*%
%ADD146R,0.0234X0.0006*%
%ADD147R,0.0246X0.0006*%
%ADD148R,0.0774X0.0006*%
%ADD149R,0.0120X0.0006*%
%ADD150R,0.0786X0.0006*%
%ADD151R,0.0780X0.0006*%
%ADD152R,0.0162X0.0006*%
%ADD153R,0.0204X0.0006*%
%ADD154R,0.0654X0.0006*%
%ADD155R,0.0288X0.0006*%
%ADD156R,0.0294X0.0006*%
%ADD157R,0.0546X0.0006*%
%ADD158R,0.0042X0.0006*%
%ADD159R,0.0432X0.0006*%
%ADD160R,0.0528X0.0006*%
%ADD161R,0.0438X0.0006*%
%ADD162R,0.0522X0.0006*%
%ADD163R,0.0480X0.0006*%
%ADD164R,0.0408X0.0006*%
%ADD165R,0.0444X0.0006*%
%ADD166R,0.0420X0.0006*%
%ADD167R,0.0402X0.0006*%
%ADD168R,0.0354X0.0006*%
%ADD169R,0.0492X0.0006*%
%ADD170R,0.0324X0.0006*%
%ADD171R,0.0312X0.0006*%
%ADD172R,0.0618X0.0006*%
%ADD173R,0.0450X0.0006*%
%ADD174R,0.0690X0.0006*%
%ADD175R,0.0192X0.0006*%
%ADD176R,0.0144X0.0006*%
%ADD177R,0.0372X0.0006*%
%ADD178R,0.0342X0.0006*%
%ADD179R,0.0540X0.0006*%
%ADD180R,0.0252X0.0006*%
%ADD181R,0.0276X0.0006*%
%ADD182R,0.0534X0.0006*%
%ADD183R,0.0534X0.0006*%
%ADD184R,0.0264X0.0006*%
%ADD185R,0.0384X0.0006*%
%ADD186R,0.0624X0.0006*%
%ADD187R,0.0672X0.0006*%
%ADD188R,0.0684X0.0006*%
%ADD189R,0.0702X0.0006*%
%ADD190R,0.0732X0.0006*%
%ADD191R,0.0174X0.0006*%
%ADD192R,0.0762X0.0006*%
%ADD193R,0.0798X0.0006*%
%ADD194R,0.0792X0.0006*%
%ADD195R,0.0804X0.0006*%
%ADD196R,0.0810X0.0006*%
%ADD197R,0.0816X0.0006*%
%ADD198R,0.0822X0.0006*%
%ADD199R,0.0918X0.0006*%
%ADD200R,0.0756X0.0006*%
%ADD201R,0.0930X0.0006*%
%ADD202R,0.0966X0.0006*%
%ADD203R,0.0972X0.0006*%
%ADD204R,0.0978X0.0006*%
%ADD205R,0.0984X0.0006*%
%ADD206R,0.0990X0.0006*%
%ADD207R,0.1104X0.0006*%
%ADD208R,0.1086X0.0006*%
%ADD209R,0.0504X0.0006*%
%ADD210R,0.1092X0.0006*%
%ADD211R,0.1074X0.0006*%
%ADD212R,0.0516X0.0006*%
%ADD213R,0.1068X0.0006*%
%ADD214R,0.0660X0.0006*%
%ADD215R,0.0564X0.0006*%
%ADD216R,0.0906X0.0006*%
%ADD217R,0.0582X0.0006*%
%ADD218R,0.1080X0.0006*%
%ADD219R,0.1098X0.0006*%
%ADD220R,0.1116X0.0006*%
%ADD221R,0.0132X0.0006*%
%ADD222R,0.1278X0.0006*%
%ADD223R,0.0594X0.0006*%
%ADD224R,0.1266X0.0006*%
%ADD225R,0.1272X0.0006*%
%ADD226R,0.0192X0.0006*%
%ADD227R,0.0552X0.0006*%
%ADD228R,0.0624X0.0006*%
%ADD229R,0.0522X0.0006*%
%ADD230R,0.0474X0.0006*%
%ADD231R,0.0612X0.0006*%
%ADD232R,0.0552X0.0006*%
D10*
X018657Y-000071D02*
X018657Y008315D01*
X024457Y008315D01*
X024457Y-000071D01*
X018657Y-000071D01*
X027520Y009409D02*
X027520Y009626D01*
X027520Y009409D02*
X027736Y009409D01*
X030138Y009409D02*
X030354Y009409D01*
X030354Y009626D01*
X031594Y010236D02*
X037894Y010236D01*
X037894Y012598D01*
X031594Y012598D01*
X031594Y010236D01*
X032382Y008547D02*
X032382Y002878D01*
X032776Y002878D01*
X032540Y002776D02*
X032542Y002735D01*
X032547Y002694D01*
X032556Y002654D01*
X032568Y002615D01*
X032584Y002577D01*
X032603Y002540D01*
X032625Y002505D01*
X032650Y002473D01*
X032678Y002442D01*
X032709Y002414D01*
X032741Y002389D01*
X032776Y002367D01*
X032813Y002348D01*
X032851Y002332D01*
X032890Y002320D01*
X032930Y002311D01*
X032971Y002306D01*
X033012Y002304D01*
X033012Y002303D02*
X036634Y002303D01*
X036634Y001949D02*
X036675Y001947D01*
X036716Y001949D01*
X036757Y001955D01*
X036798Y001964D01*
X036837Y001976D01*
X036875Y001992D01*
X036912Y002011D01*
X036946Y002034D01*
X036979Y002059D01*
X037010Y002087D01*
X037037Y002118D01*
X037062Y002151D01*
X037084Y002186D01*
X037103Y002222D01*
X037119Y002261D01*
X037131Y002300D01*
X037140Y002341D01*
X037145Y002382D01*
X037500Y002602D02*
X037498Y002651D01*
X037492Y002701D01*
X037483Y002749D01*
X037469Y002797D01*
X037452Y002843D01*
X037431Y002888D01*
X037407Y002931D01*
X037380Y002972D01*
X037349Y003011D01*
X037315Y003047D01*
X037279Y003081D01*
X037240Y003112D01*
X037199Y003139D01*
X037156Y003163D01*
X037111Y003184D01*
X037065Y003201D01*
X037017Y003215D01*
X036969Y003224D01*
X036919Y003230D01*
X036870Y003232D01*
X033051Y003232D01*
X033052Y003232D02*
X033017Y003225D01*
X032983Y003215D01*
X032950Y003201D01*
X032919Y003183D01*
X032890Y003162D01*
X032864Y003138D01*
X032841Y003112D01*
X032821Y003082D01*
X032804Y003051D01*
X032791Y003018D01*
X032781Y002984D01*
X032776Y002949D01*
X032774Y002913D01*
X032776Y002878D01*
X032540Y002421D02*
X032542Y002380D01*
X032547Y002339D01*
X032556Y002299D01*
X032568Y002260D01*
X032584Y002222D01*
X032603Y002185D01*
X032625Y002150D01*
X032650Y002118D01*
X032678Y002087D01*
X032709Y002059D01*
X032741Y002034D01*
X032776Y002012D01*
X032813Y001993D01*
X032851Y001977D01*
X032890Y001965D01*
X032930Y001956D01*
X032971Y001951D01*
X033012Y001949D01*
X036634Y001949D01*
X037500Y002602D02*
X037894Y002602D01*
X037894Y008547D01*
X032382Y008547D01*
X030354Y012028D02*
X030354Y012244D01*
X030138Y012244D01*
X027736Y012244D02*
X027520Y012244D01*
X027520Y012028D01*
X026949Y011785D02*
X026949Y012822D01*
X026948Y012822D02*
X026946Y012841D01*
X026941Y012860D01*
X026933Y012878D01*
X026922Y012893D01*
X026908Y012907D01*
X026893Y012918D01*
X026875Y012926D01*
X026856Y012931D01*
X026837Y012933D01*
X026522Y012933D01*
X026503Y012931D01*
X026484Y012927D01*
X026466Y012919D01*
X026449Y012909D01*
X026434Y012897D01*
X026422Y012882D01*
X026412Y012865D01*
X026404Y012847D01*
X026400Y012828D01*
X026398Y012809D01*
X026398Y011761D01*
X026400Y011744D01*
X026405Y011727D01*
X026413Y011712D01*
X026424Y011699D01*
X026437Y011688D01*
X026452Y011680D01*
X026469Y011675D01*
X026486Y011673D01*
X026837Y011673D01*
X026837Y011674D02*
X026856Y011676D01*
X026875Y011681D01*
X026893Y011689D01*
X026908Y011700D01*
X026922Y011714D01*
X026933Y011730D01*
X026941Y011747D01*
X026946Y011766D01*
X026948Y011785D01*
X026831Y011909D02*
X026831Y012697D01*
X026829Y012717D01*
X026824Y012737D01*
X026815Y012756D01*
X026803Y012773D01*
X026789Y012787D01*
X026772Y012799D01*
X026753Y012808D01*
X026733Y012813D01*
X026713Y012815D01*
X026634Y012815D01*
X026613Y012813D01*
X026594Y012808D01*
X026575Y012799D01*
X026558Y012787D01*
X026544Y012773D01*
X026532Y012756D01*
X026523Y012737D01*
X026518Y012718D01*
X026516Y012697D01*
X026516Y011870D01*
X026521Y011854D01*
X026529Y011838D01*
X026539Y011824D01*
X026551Y011812D01*
X026566Y011802D01*
X026582Y011795D01*
X026599Y011791D01*
X026616Y011790D01*
X026634Y011792D01*
X026634Y011791D02*
X026752Y011791D01*
X026752Y011792D02*
X026768Y011797D01*
X026784Y011805D01*
X026798Y011815D01*
X026810Y011827D01*
X026820Y011842D01*
X026827Y011858D01*
X026831Y011875D01*
X026832Y011892D01*
X026830Y011910D01*
X024294Y011954D02*
X024294Y011904D01*
X024294Y011954D02*
X024292Y011971D01*
X024288Y011988D01*
X024281Y012004D01*
X024271Y012018D01*
X024258Y012031D01*
X024244Y012041D01*
X024228Y012048D01*
X024211Y012052D01*
X024194Y012054D01*
X023844Y012054D01*
X023944Y012267D02*
X023844Y012392D01*
X024294Y012392D01*
X024294Y012267D02*
X024294Y012517D01*
X024232Y012929D02*
X024201Y012943D01*
X024169Y012953D01*
X024136Y012961D01*
X024103Y012965D01*
X024069Y012967D01*
X024069Y012717D02*
X024103Y012719D01*
X024136Y012723D01*
X024169Y012731D01*
X024201Y012741D01*
X024232Y012755D01*
X024194Y012742D02*
X023944Y012942D01*
X023906Y012930D02*
X023891Y012923D01*
X023877Y012914D01*
X023865Y012903D01*
X023856Y012889D01*
X023849Y012874D01*
X023844Y012858D01*
X023843Y012842D01*
X023844Y012826D01*
X023849Y012810D01*
X023856Y012795D01*
X023865Y012781D01*
X023877Y012770D01*
X023891Y012761D01*
X023906Y012754D01*
X023906Y012929D02*
X023937Y012943D01*
X023969Y012953D01*
X024002Y012961D01*
X024035Y012965D01*
X024069Y012967D01*
X024069Y012717D02*
X024035Y012719D01*
X024002Y012723D01*
X023969Y012731D01*
X023937Y012741D01*
X023906Y012755D01*
X024231Y012930D02*
X024246Y012923D01*
X024260Y012914D01*
X024272Y012903D01*
X024281Y012889D01*
X024288Y012874D01*
X024293Y012858D01*
X024294Y012842D01*
X024293Y012826D01*
X024288Y012810D01*
X024281Y012795D01*
X024272Y012781D01*
X024260Y012770D01*
X024246Y012761D01*
X024231Y012754D01*
X031423Y014640D02*
X031537Y014297D01*
X031652Y014640D01*
X031815Y014640D02*
X031910Y014640D01*
X031926Y014638D01*
X031941Y014633D01*
X031955Y014625D01*
X031966Y014615D01*
X031976Y014602D01*
X031982Y014587D01*
X031986Y014572D01*
X031986Y014556D01*
X031982Y014541D01*
X031976Y014526D01*
X031966Y014513D01*
X031955Y014503D01*
X031941Y014495D01*
X031926Y014490D01*
X031910Y014488D01*
X031815Y014488D01*
X031910Y014487D02*
X031929Y014485D01*
X031946Y014480D01*
X031963Y014471D01*
X031977Y014459D01*
X031989Y014445D01*
X031998Y014428D01*
X032003Y014411D01*
X032005Y014392D01*
X032003Y014373D01*
X031998Y014356D01*
X031989Y014339D01*
X031977Y014325D01*
X031963Y014313D01*
X031946Y014304D01*
X031929Y014299D01*
X031910Y014297D01*
X031815Y014297D01*
X031815Y014640D01*
X032162Y014640D02*
X032162Y014392D01*
X032163Y014392D02*
X032165Y014373D01*
X032170Y014356D01*
X032179Y014339D01*
X032191Y014325D01*
X032205Y014313D01*
X032222Y014304D01*
X032239Y014299D01*
X032258Y014297D01*
X032277Y014299D01*
X032294Y014304D01*
X032311Y014313D01*
X032325Y014325D01*
X032337Y014339D01*
X032346Y014356D01*
X032351Y014373D01*
X032353Y014392D01*
X032353Y014640D01*
X032564Y014497D02*
X032669Y014440D01*
X032631Y014297D02*
X032610Y014298D01*
X032589Y014303D01*
X032569Y014309D01*
X032550Y014319D01*
X032533Y014331D01*
X032517Y014345D01*
X032670Y014440D02*
X032683Y014431D01*
X032693Y014419D01*
X032701Y014404D01*
X032706Y014389D01*
X032708Y014373D01*
X032707Y014373D02*
X032706Y014358D01*
X032701Y014344D01*
X032694Y014331D01*
X032685Y014319D01*
X032673Y014310D01*
X032660Y014303D01*
X032646Y014298D01*
X032631Y014297D01*
X032688Y014611D02*
X032668Y014624D01*
X032647Y014633D01*
X032625Y014638D01*
X032602Y014640D01*
X032587Y014639D01*
X032573Y014634D01*
X032560Y014627D01*
X032548Y014618D01*
X032539Y014606D01*
X032532Y014593D01*
X032527Y014579D01*
X032526Y014564D01*
X032528Y014548D01*
X032533Y014533D01*
X032541Y014518D01*
X032551Y014506D01*
X032564Y014497D01*
X033293Y014430D02*
X033522Y014430D01*
X033407Y014316D02*
X033407Y014545D01*
X033690Y014488D02*
X033690Y014640D01*
X033881Y014640D01*
X034025Y014640D02*
X034140Y014297D01*
X034254Y014640D01*
X034671Y014640D02*
X034785Y014297D01*
X034900Y014640D01*
X035063Y014640D02*
X035158Y014640D01*
X035174Y014638D01*
X035189Y014633D01*
X035203Y014625D01*
X035214Y014615D01*
X035224Y014602D01*
X035230Y014587D01*
X035234Y014572D01*
X035234Y014556D01*
X035230Y014541D01*
X035224Y014526D01*
X035214Y014513D01*
X035203Y014503D01*
X035189Y014495D01*
X035174Y014490D01*
X035158Y014488D01*
X035063Y014488D01*
X035158Y014487D02*
X035177Y014485D01*
X035194Y014480D01*
X035211Y014471D01*
X035225Y014459D01*
X035237Y014445D01*
X035246Y014428D01*
X035251Y014411D01*
X035253Y014392D01*
X035251Y014373D01*
X035246Y014356D01*
X035237Y014339D01*
X035225Y014325D01*
X035211Y014313D01*
X035194Y014304D01*
X035177Y014299D01*
X035158Y014297D01*
X035063Y014297D01*
X035063Y014640D01*
X035408Y014383D02*
X035580Y014383D01*
X035608Y014297D02*
X035494Y014640D01*
X035379Y014297D01*
X035825Y014297D02*
X035825Y014640D01*
X035920Y014640D02*
X035729Y014640D01*
X036344Y014430D02*
X036573Y014430D01*
X036458Y014316D02*
X036458Y014545D01*
X036741Y014640D02*
X036856Y014640D01*
X036872Y014638D01*
X036887Y014633D01*
X036901Y014625D01*
X036912Y014615D01*
X036922Y014602D01*
X036928Y014587D01*
X036932Y014572D01*
X036932Y014556D01*
X036928Y014541D01*
X036922Y014526D01*
X036912Y014513D01*
X036901Y014503D01*
X036887Y014495D01*
X036872Y014490D01*
X036856Y014488D01*
X036779Y014488D01*
X036836Y014487D02*
X036855Y014485D01*
X036872Y014480D01*
X036889Y014471D01*
X036903Y014459D01*
X036915Y014445D01*
X036924Y014428D01*
X036929Y014411D01*
X036931Y014392D01*
X036929Y014373D01*
X036924Y014356D01*
X036915Y014339D01*
X036903Y014325D01*
X036889Y014313D01*
X036872Y014304D01*
X036855Y014299D01*
X036836Y014297D01*
X036741Y014297D01*
X037075Y014297D02*
X037094Y014297D01*
X037094Y014316D01*
X037075Y014316D01*
X037075Y014297D01*
X037237Y014297D02*
X037332Y014297D01*
X037351Y014299D01*
X037368Y014304D01*
X037385Y014313D01*
X037399Y014325D01*
X037411Y014339D01*
X037420Y014356D01*
X037425Y014373D01*
X037427Y014392D01*
X037425Y014411D01*
X037420Y014428D01*
X037411Y014445D01*
X037399Y014459D01*
X037385Y014471D01*
X037368Y014480D01*
X037351Y014485D01*
X037332Y014487D01*
X037352Y014488D02*
X037275Y014488D01*
X037352Y014488D02*
X037368Y014490D01*
X037383Y014495D01*
X037397Y014503D01*
X037408Y014513D01*
X037418Y014526D01*
X037424Y014541D01*
X037428Y014556D01*
X037428Y014572D01*
X037424Y014587D01*
X037418Y014602D01*
X037408Y014615D01*
X037397Y014625D01*
X037383Y014633D01*
X037368Y014638D01*
X037352Y014640D01*
X037237Y014640D01*
X037572Y014640D02*
X037687Y014297D01*
X037801Y014640D01*
X037279Y011913D02*
X037124Y011913D01*
X037124Y011912D02*
X037107Y011911D01*
X037091Y011906D01*
X037076Y011899D01*
X037062Y011889D01*
X037050Y011877D01*
X037040Y011864D01*
X037033Y011848D01*
X037028Y011832D01*
X037027Y011815D01*
X037027Y011718D01*
X037377Y011718D01*
X037377Y011815D01*
X037376Y011815D02*
X037375Y011832D01*
X037370Y011848D01*
X037363Y011864D01*
X037353Y011877D01*
X037341Y011889D01*
X037328Y011899D01*
X037312Y011906D01*
X037296Y011911D01*
X037279Y011912D01*
X037377Y011529D02*
X037027Y011529D01*
X037027Y011334D02*
X037377Y011529D01*
X037377Y011334D02*
X037027Y011334D01*
X037027Y011145D02*
X037027Y011028D01*
X037026Y011028D02*
X037028Y011011D01*
X037034Y010994D01*
X037043Y010979D01*
X037055Y010967D01*
X037070Y010958D01*
X037087Y010952D01*
X037104Y010950D01*
X037299Y010950D01*
X037316Y010952D01*
X037333Y010958D01*
X037348Y010967D01*
X037360Y010979D01*
X037369Y010994D01*
X037375Y011011D01*
X037377Y011028D01*
X037377Y011145D01*
X037182Y011145D01*
X037182Y011086D01*
X033804Y014297D02*
X033690Y014297D01*
X033804Y014297D02*
X033819Y014298D01*
X033833Y014303D01*
X033846Y014310D01*
X033858Y014319D01*
X033867Y014331D01*
X033874Y014344D01*
X033879Y014358D01*
X033880Y014373D01*
X033881Y014373D02*
X033881Y014411D01*
X033880Y014411D02*
X033879Y014426D01*
X033874Y014440D01*
X033867Y014453D01*
X033858Y014465D01*
X033846Y014474D01*
X033833Y014481D01*
X033819Y014486D01*
X033804Y014487D01*
X033804Y014488D02*
X033690Y014488D01*
X021850Y018898D02*
X021516Y018898D01*
X021516Y019882D01*
X020965Y019882D01*
X021850Y020472D02*
X021850Y018898D01*
X019587Y019882D02*
X019035Y019882D01*
X019035Y018898D01*
X018701Y018898D01*
X018701Y020472D01*
X017815Y020472D02*
X017815Y018898D01*
X017480Y018898D01*
X017480Y019882D01*
X016929Y019882D01*
X015551Y019882D02*
X015000Y019882D01*
X015000Y018898D01*
X014665Y018898D01*
X014665Y020472D01*
X015354Y021850D02*
X017126Y021850D01*
X019390Y021850D02*
X021161Y021850D01*
X037145Y002737D02*
X037140Y002696D01*
X037131Y002655D01*
X037119Y002616D01*
X037103Y002577D01*
X037084Y002541D01*
X037062Y002506D01*
X037037Y002473D01*
X037010Y002442D01*
X036979Y002414D01*
X036946Y002389D01*
X036912Y002366D01*
X036875Y002347D01*
X036837Y002331D01*
X036798Y002319D01*
X036757Y002310D01*
X036716Y002304D01*
X036675Y002302D01*
X036634Y002304D01*
X037145Y000886D02*
X037140Y000845D01*
X037131Y000804D01*
X037119Y000765D01*
X037103Y000726D01*
X037084Y000690D01*
X037062Y000655D01*
X037037Y000622D01*
X037010Y000591D01*
X036979Y000563D01*
X036946Y000538D01*
X036912Y000515D01*
X036875Y000496D01*
X036837Y000480D01*
X036798Y000468D01*
X036757Y000459D01*
X036716Y000453D01*
X036675Y000451D01*
X036634Y000453D01*
X033012Y000453D01*
X032971Y000455D01*
X032930Y000460D01*
X032890Y000469D01*
X032851Y000481D01*
X032813Y000497D01*
X032776Y000516D01*
X032741Y000538D01*
X032709Y000563D01*
X032678Y000591D01*
X032650Y000622D01*
X032625Y000654D01*
X032603Y000689D01*
X032584Y000726D01*
X032568Y000764D01*
X032556Y000803D01*
X032547Y000843D01*
X032542Y000884D01*
X032540Y000925D01*
D11*
X016004Y012343D02*
X016004Y013445D01*
X014902Y013445D01*
X014902Y012343D01*
X016004Y012343D01*
X022177Y016165D02*
X022177Y016913D01*
X022177Y017504D02*
X022177Y017898D01*
X022177Y018488D02*
X022177Y018685D01*
X022177Y019276D02*
X022177Y019669D01*
X022177Y020260D02*
X022177Y021008D01*
X027492Y021008D01*
X027492Y020831D01*
X027610Y020831D01*
X027610Y019177D01*
X027374Y019177D01*
X027374Y017996D01*
X027610Y017996D01*
X027610Y016343D01*
X027492Y016343D01*
X027492Y016165D01*
X022177Y016165D01*
X023122Y016126D02*
X023319Y015634D01*
X023909Y015634D01*
X024106Y016126D01*
X024052Y015216D02*
X023785Y014923D01*
X023892Y015029D02*
X024052Y014736D01*
X024280Y014736D02*
X024280Y015216D01*
X024494Y015216D01*
X024672Y015216D02*
X024832Y014989D01*
X024832Y014736D01*
X024832Y014989D02*
X024992Y015216D01*
X025230Y015216D02*
X025363Y015216D01*
X025383Y015214D01*
X025402Y015209D01*
X025419Y015200D01*
X025435Y015188D01*
X025448Y015173D01*
X025459Y015157D01*
X025466Y015138D01*
X025470Y015119D01*
X025470Y015099D01*
X025466Y015080D01*
X025459Y015061D01*
X025448Y015045D01*
X025435Y015030D01*
X025419Y015018D01*
X025402Y015009D01*
X025383Y015004D01*
X025363Y015002D01*
X025363Y015003D02*
X025230Y015003D01*
X025363Y015002D02*
X025385Y015000D01*
X025406Y014995D01*
X025426Y014986D01*
X025445Y014974D01*
X025461Y014959D01*
X025474Y014942D01*
X025485Y014922D01*
X025492Y014902D01*
X025496Y014880D01*
X025496Y014858D01*
X025492Y014836D01*
X025485Y014816D01*
X025474Y014796D01*
X025461Y014779D01*
X025445Y014764D01*
X025426Y014752D01*
X025406Y014743D01*
X025385Y014738D01*
X025363Y014736D01*
X025230Y014736D01*
X025230Y015216D01*
X025707Y015083D02*
X025707Y014869D01*
X025709Y014847D01*
X025714Y014826D01*
X025723Y014806D01*
X025735Y014787D01*
X025750Y014771D01*
X025767Y014758D01*
X025787Y014747D01*
X025807Y014740D01*
X025829Y014736D01*
X025851Y014736D01*
X025873Y014740D01*
X025893Y014747D01*
X025913Y014758D01*
X025930Y014771D01*
X025945Y014787D01*
X025957Y014806D01*
X025966Y014826D01*
X025971Y014847D01*
X025973Y014869D01*
X025973Y015083D01*
X025971Y015105D01*
X025966Y015126D01*
X025957Y015146D01*
X025945Y015165D01*
X025930Y015181D01*
X025913Y015194D01*
X025893Y015205D01*
X025873Y015212D01*
X025851Y015216D01*
X025829Y015216D01*
X025807Y015212D01*
X025787Y015205D01*
X025767Y015194D01*
X025750Y015181D01*
X025735Y015165D01*
X025723Y015146D01*
X025714Y015126D01*
X025709Y015105D01*
X025707Y015083D01*
X026224Y014856D02*
X026464Y014856D01*
X026504Y014736D02*
X026344Y015216D01*
X026184Y014736D01*
X026736Y014736D02*
X026736Y015216D01*
X026869Y015216D01*
X026891Y015214D01*
X026912Y015209D01*
X026932Y015200D01*
X026951Y015188D01*
X026967Y015173D01*
X026980Y015156D01*
X026991Y015136D01*
X026998Y015116D01*
X027002Y015094D01*
X027002Y015072D01*
X026998Y015050D01*
X026991Y015030D01*
X026980Y015010D01*
X026967Y014993D01*
X026951Y014978D01*
X026932Y014966D01*
X026912Y014957D01*
X026891Y014952D01*
X026869Y014950D01*
X026869Y014949D02*
X026736Y014949D01*
X026896Y014949D02*
X027003Y014736D01*
X027252Y014736D02*
X027386Y014736D01*
X027407Y014738D01*
X027427Y014743D01*
X027446Y014750D01*
X027464Y014761D01*
X027480Y014775D01*
X027494Y014791D01*
X027505Y014809D01*
X027512Y014828D01*
X027517Y014848D01*
X027519Y014869D01*
X027519Y015083D01*
X027517Y015104D01*
X027512Y015124D01*
X027505Y015143D01*
X027494Y015161D01*
X027480Y015177D01*
X027464Y015191D01*
X027446Y015202D01*
X027427Y015209D01*
X027407Y015214D01*
X027386Y015216D01*
X027252Y015216D01*
X027252Y014736D01*
X027610Y016047D02*
X027608Y016067D01*
X027603Y016087D01*
X027594Y016106D01*
X027582Y016123D01*
X027568Y016137D01*
X027551Y016149D01*
X027532Y016158D01*
X027512Y016163D01*
X027492Y016165D01*
X027059Y017209D02*
X025484Y016815D01*
X025484Y017996D02*
X027059Y017602D01*
X027059Y017209D01*
X027059Y019571D02*
X025484Y019177D01*
X025484Y020358D02*
X027059Y019965D01*
X027059Y019571D01*
X027492Y021008D02*
X027512Y021010D01*
X027532Y021015D01*
X027551Y021024D01*
X027568Y021036D01*
X027582Y021050D01*
X027594Y021067D01*
X027603Y021086D01*
X027608Y021106D01*
X027610Y021126D01*
X024106Y021047D02*
X023909Y021539D01*
X023319Y021539D01*
X023122Y021047D01*
X020473Y018267D02*
X020340Y018267D01*
X020340Y017787D01*
X020340Y018000D02*
X020473Y018000D01*
X020473Y018001D02*
X020495Y018003D01*
X020516Y018008D01*
X020536Y018017D01*
X020555Y018029D01*
X020571Y018044D01*
X020584Y018061D01*
X020595Y018081D01*
X020602Y018101D01*
X020606Y018123D01*
X020606Y018145D01*
X020602Y018167D01*
X020595Y018187D01*
X020584Y018207D01*
X020571Y018224D01*
X020555Y018239D01*
X020536Y018251D01*
X020516Y018260D01*
X020495Y018265D01*
X020473Y018267D01*
X020106Y018267D02*
X020106Y018240D01*
X020080Y018240D01*
X020080Y018267D01*
X020106Y018267D01*
X020093Y018107D02*
X020093Y017787D01*
X019906Y017787D02*
X019692Y017787D01*
X019692Y018267D01*
X020810Y018000D02*
X020810Y017894D01*
X020809Y017894D02*
X020811Y017874D01*
X020816Y017855D01*
X020825Y017838D01*
X020837Y017822D01*
X020852Y017809D01*
X020868Y017798D01*
X020887Y017791D01*
X020906Y017787D01*
X020926Y017787D01*
X020945Y017791D01*
X020964Y017798D01*
X020980Y017809D01*
X020995Y017822D01*
X021007Y017838D01*
X021016Y017855D01*
X021021Y017874D01*
X021023Y017894D01*
X021023Y018000D01*
X021021Y018020D01*
X021016Y018039D01*
X021007Y018056D01*
X020995Y018072D01*
X020980Y018085D01*
X020964Y018096D01*
X020945Y018103D01*
X020926Y018107D01*
X020906Y018107D01*
X020887Y018103D01*
X020868Y018096D01*
X020852Y018085D01*
X020837Y018072D01*
X020825Y018056D01*
X020816Y018039D01*
X020811Y018020D01*
X020809Y018000D01*
X023785Y015216D02*
X023785Y014736D01*
X024280Y014736D02*
X024494Y014736D01*
X024440Y015003D02*
X024280Y015003D01*
X012978Y-002785D02*
X012978Y-003405D01*
X012806Y-003405D01*
X012786Y-003403D01*
X012767Y-003397D01*
X012749Y-003388D01*
X012733Y-003375D01*
X012720Y-003359D01*
X012711Y-003341D01*
X012705Y-003322D01*
X012703Y-003302D01*
X012703Y-003095D01*
X012705Y-003077D01*
X012709Y-003060D01*
X012717Y-003044D01*
X012727Y-003029D01*
X012740Y-003016D01*
X012755Y-003006D01*
X012771Y-002998D01*
X012788Y-002994D01*
X012806Y-002992D01*
X012978Y-002992D01*
X013260Y-003129D02*
X013260Y-003302D01*
X013262Y-003322D01*
X013268Y-003341D01*
X013277Y-003359D01*
X013290Y-003375D01*
X013306Y-003388D01*
X013324Y-003397D01*
X013343Y-003403D01*
X013363Y-003405D01*
X013536Y-003405D01*
X013536Y-003198D02*
X013260Y-003198D01*
X013260Y-003129D02*
X013262Y-003106D01*
X013267Y-003084D01*
X013277Y-003063D01*
X013289Y-003044D01*
X013305Y-003027D01*
X013323Y-003013D01*
X013343Y-003003D01*
X013364Y-002995D01*
X013387Y-002991D01*
X013409Y-002991D01*
X013432Y-002995D01*
X013453Y-003003D01*
X013473Y-003013D01*
X013491Y-003027D01*
X013507Y-003044D01*
X013519Y-003063D01*
X013529Y-003084D01*
X013534Y-003106D01*
X013536Y-003129D01*
X013536Y-003198D01*
X013818Y-003405D02*
X013818Y-002992D01*
X014025Y-002992D01*
X014025Y-003060D01*
X012424Y-003095D02*
X012424Y-003405D01*
X012269Y-003405D01*
X012248Y-003403D01*
X012228Y-003398D01*
X012209Y-003389D01*
X012191Y-003377D01*
X012176Y-003362D01*
X012164Y-003345D01*
X012155Y-003325D01*
X012150Y-003305D01*
X012148Y-003284D01*
X012150Y-003263D01*
X012155Y-003243D01*
X012164Y-003224D01*
X012176Y-003206D01*
X012191Y-003191D01*
X012209Y-003179D01*
X012228Y-003170D01*
X012248Y-003165D01*
X012269Y-003163D01*
X012269Y-003164D02*
X012424Y-003164D01*
X012424Y-003095D02*
X012422Y-003075D01*
X012416Y-003056D01*
X012407Y-003038D01*
X012394Y-003022D01*
X012378Y-003009D01*
X012360Y-003000D01*
X012341Y-002994D01*
X012321Y-002992D01*
X012183Y-002992D01*
X011894Y-003129D02*
X011894Y-003198D01*
X011619Y-003198D01*
X011619Y-003129D02*
X011619Y-003302D01*
X011621Y-003322D01*
X011627Y-003341D01*
X011636Y-003359D01*
X011649Y-003375D01*
X011665Y-003388D01*
X011683Y-003397D01*
X011702Y-003403D01*
X011722Y-003405D01*
X011894Y-003405D01*
X011895Y-003129D02*
X011893Y-003106D01*
X011888Y-003084D01*
X011878Y-003063D01*
X011866Y-003044D01*
X011850Y-003027D01*
X011832Y-003013D01*
X011812Y-003003D01*
X011791Y-002995D01*
X011768Y-002991D01*
X011746Y-002991D01*
X011723Y-002995D01*
X011702Y-003003D01*
X011682Y-003013D01*
X011664Y-003027D01*
X011648Y-003044D01*
X011636Y-003063D01*
X011626Y-003084D01*
X011621Y-003106D01*
X011619Y-003129D01*
X011359Y-003405D02*
X011221Y-003129D01*
X011187Y-003129D02*
X011014Y-003129D01*
X011187Y-003129D02*
X011211Y-003127D01*
X011235Y-003122D01*
X011258Y-003113D01*
X011280Y-003102D01*
X011300Y-003087D01*
X011317Y-003070D01*
X011332Y-003050D01*
X011343Y-003028D01*
X011352Y-003005D01*
X011357Y-002981D01*
X011359Y-002957D01*
X011357Y-002933D01*
X011352Y-002909D01*
X011343Y-002886D01*
X011332Y-002864D01*
X011317Y-002844D01*
X011300Y-002827D01*
X011280Y-002812D01*
X011258Y-002801D01*
X011235Y-002792D01*
X011211Y-002787D01*
X011187Y-002785D01*
X011014Y-002785D01*
X011014Y-003405D01*
X010373Y-003405D02*
X010201Y-003405D01*
X010181Y-003403D01*
X010162Y-003397D01*
X010144Y-003388D01*
X010128Y-003375D01*
X010115Y-003359D01*
X010106Y-003341D01*
X010100Y-003322D01*
X010098Y-003302D01*
X010097Y-003302D02*
X010097Y-003095D01*
X010098Y-003095D02*
X010100Y-003077D01*
X010104Y-003060D01*
X010112Y-003044D01*
X010122Y-003029D01*
X010135Y-003016D01*
X010150Y-003006D01*
X010166Y-002998D01*
X010183Y-002994D01*
X010201Y-002992D01*
X010373Y-002992D01*
X010373Y-002785D02*
X010373Y-003405D01*
X009901Y-003060D02*
X009901Y-002992D01*
X009695Y-002992D01*
X009695Y-003405D01*
X009388Y-003405D02*
X009388Y-003095D01*
X009388Y-003164D02*
X009233Y-003164D01*
X009388Y-003095D02*
X009386Y-003075D01*
X009380Y-003056D01*
X009371Y-003038D01*
X009358Y-003022D01*
X009342Y-003009D01*
X009324Y-003000D01*
X009305Y-002994D01*
X009285Y-002992D01*
X009147Y-002992D01*
X009233Y-003163D02*
X009212Y-003165D01*
X009192Y-003170D01*
X009173Y-003179D01*
X009155Y-003191D01*
X009140Y-003206D01*
X009128Y-003224D01*
X009119Y-003243D01*
X009114Y-003263D01*
X009112Y-003284D01*
X009114Y-003305D01*
X009119Y-003325D01*
X009128Y-003345D01*
X009140Y-003362D01*
X009155Y-003377D01*
X009173Y-003389D01*
X009192Y-003398D01*
X009212Y-003403D01*
X009233Y-003405D01*
X009388Y-003405D01*
X008884Y-003405D02*
X008746Y-003405D01*
X008724Y-003403D01*
X008703Y-003398D01*
X008683Y-003390D01*
X008665Y-003379D01*
X008648Y-003365D01*
X008634Y-003348D01*
X008623Y-003330D01*
X008615Y-003310D01*
X008610Y-003289D01*
X008608Y-003267D01*
X008608Y-002923D01*
X008610Y-002901D01*
X008615Y-002880D01*
X008623Y-002860D01*
X008634Y-002842D01*
X008648Y-002825D01*
X008665Y-002811D01*
X008683Y-002800D01*
X008703Y-002792D01*
X008724Y-002787D01*
X008746Y-002785D01*
X008884Y-002785D01*
X008038Y-002992D02*
X007831Y-003612D01*
X007762Y-003612D01*
X007900Y-003405D02*
X007762Y-002992D01*
X007583Y-002992D02*
X007583Y-003060D01*
X007583Y-002992D02*
X007377Y-002992D01*
X007377Y-003405D01*
X007070Y-003405D02*
X007070Y-003095D01*
X007070Y-003164D02*
X006915Y-003164D01*
X007070Y-003095D02*
X007068Y-003075D01*
X007062Y-003056D01*
X007053Y-003038D01*
X007040Y-003022D01*
X007024Y-003009D01*
X007006Y-003000D01*
X006987Y-002994D01*
X006967Y-002992D01*
X006829Y-002992D01*
X006546Y-002992D02*
X006546Y-003405D01*
X006298Y-003302D02*
X006298Y-003095D01*
X006297Y-003095D02*
X006295Y-003077D01*
X006291Y-003060D01*
X006283Y-003044D01*
X006273Y-003029D01*
X006260Y-003016D01*
X006246Y-003006D01*
X006229Y-002998D01*
X006212Y-002994D01*
X006194Y-002992D01*
X006022Y-002992D01*
X006022Y-003612D01*
X006022Y-003405D02*
X006194Y-003405D01*
X006212Y-003403D01*
X006229Y-003399D01*
X006246Y-003391D01*
X006260Y-003381D01*
X006273Y-003368D01*
X006283Y-003354D01*
X006291Y-003337D01*
X006295Y-003320D01*
X006297Y-003302D01*
X006529Y-002819D02*
X006563Y-002819D01*
X006563Y-002785D01*
X006529Y-002785D01*
X006529Y-002819D01*
X006915Y-003163D02*
X006894Y-003165D01*
X006874Y-003170D01*
X006855Y-003179D01*
X006837Y-003191D01*
X006822Y-003206D01*
X006810Y-003224D01*
X006801Y-003243D01*
X006796Y-003263D01*
X006794Y-003284D01*
X006796Y-003305D01*
X006801Y-003325D01*
X006810Y-003345D01*
X006822Y-003362D01*
X006837Y-003377D01*
X006855Y-003389D01*
X006874Y-003398D01*
X006894Y-003403D01*
X006915Y-003405D01*
X007070Y-003405D01*
X005768Y-003405D02*
X005562Y-002785D01*
X005355Y-003405D01*
X005407Y-003250D02*
X005717Y-003250D01*
D12*
X005486Y-004003D02*
X005350Y-004003D01*
X005350Y-004493D01*
X005350Y-004275D02*
X005486Y-004275D01*
X005513Y-004275D02*
X005622Y-004493D01*
X005843Y-004411D02*
X005843Y-004275D01*
X005843Y-004329D02*
X006061Y-004329D01*
X006061Y-004275D01*
X006059Y-004255D01*
X006054Y-004236D01*
X006045Y-004218D01*
X006033Y-004202D01*
X006018Y-004188D01*
X006001Y-004177D01*
X005982Y-004170D01*
X005962Y-004166D01*
X005942Y-004166D01*
X005922Y-004170D01*
X005903Y-004177D01*
X005886Y-004188D01*
X005871Y-004202D01*
X005859Y-004218D01*
X005850Y-004236D01*
X005845Y-004255D01*
X005843Y-004275D01*
X005843Y-004411D02*
X005845Y-004427D01*
X005849Y-004442D01*
X005857Y-004457D01*
X005867Y-004469D01*
X005879Y-004479D01*
X005894Y-004487D01*
X005909Y-004491D01*
X005925Y-004493D01*
X006061Y-004493D01*
X006372Y-004493D02*
X006481Y-004166D01*
X006263Y-004166D02*
X006372Y-004493D01*
X006959Y-004493D02*
X007231Y-004493D01*
X007095Y-004493D02*
X007095Y-004003D01*
X006959Y-004111D01*
X007937Y-004248D02*
X007935Y-004285D01*
X007930Y-004321D01*
X007922Y-004357D01*
X007911Y-004391D01*
X007896Y-004425D01*
X007888Y-004441D01*
X007878Y-004456D01*
X007866Y-004469D01*
X007851Y-004479D01*
X007835Y-004487D01*
X007818Y-004491D01*
X007800Y-004493D01*
X007782Y-004491D01*
X007765Y-004487D01*
X007749Y-004479D01*
X007734Y-004469D01*
X007722Y-004456D01*
X007712Y-004441D01*
X007704Y-004425D01*
X007691Y-004384D02*
X007909Y-004111D01*
X007896Y-004070D02*
X007888Y-004054D01*
X007878Y-004039D01*
X007866Y-004026D01*
X007851Y-004016D01*
X007835Y-004008D01*
X007818Y-004004D01*
X007800Y-004002D01*
X007782Y-004004D01*
X007765Y-004008D01*
X007749Y-004016D01*
X007734Y-004026D01*
X007722Y-004039D01*
X007712Y-004054D01*
X007704Y-004070D01*
X007896Y-004071D02*
X007911Y-004105D01*
X007922Y-004139D01*
X007930Y-004175D01*
X007935Y-004211D01*
X007937Y-004248D01*
X007664Y-004248D02*
X007666Y-004211D01*
X007671Y-004175D01*
X007679Y-004139D01*
X007690Y-004105D01*
X007705Y-004071D01*
X007664Y-004248D02*
X007666Y-004285D01*
X007671Y-004321D01*
X007679Y-004357D01*
X007690Y-004391D01*
X007705Y-004425D01*
X007461Y-004465D02*
X007461Y-004493D01*
X007434Y-004493D01*
X007434Y-004465D01*
X007461Y-004465D01*
X005486Y-004275D02*
X005508Y-004273D01*
X005530Y-004268D01*
X005551Y-004259D01*
X005570Y-004246D01*
X005586Y-004231D01*
X005600Y-004213D01*
X005611Y-004194D01*
X005618Y-004172D01*
X005622Y-004150D01*
X005622Y-004128D01*
X005618Y-004106D01*
X005611Y-004084D01*
X005600Y-004065D01*
X005586Y-004047D01*
X005570Y-004032D01*
X005551Y-004019D01*
X005530Y-004010D01*
X005508Y-004005D01*
X005486Y-004003D01*
X014504Y-000260D02*
X014504Y000370D01*
X014679Y000370D01*
X014704Y000368D01*
X014728Y000363D01*
X014752Y000354D01*
X014774Y000342D01*
X014794Y000327D01*
X014811Y000310D01*
X014826Y000290D01*
X014838Y000268D01*
X014847Y000244D01*
X014852Y000220D01*
X014854Y000195D01*
X014852Y000170D01*
X014847Y000146D01*
X014838Y000122D01*
X014826Y000100D01*
X014811Y000080D01*
X014794Y000063D01*
X014774Y000048D01*
X014752Y000036D01*
X014728Y000027D01*
X014704Y000022D01*
X014679Y000020D01*
X014504Y000020D01*
X014714Y000020D02*
X014854Y-000260D01*
X015137Y-000260D02*
X015137Y000370D01*
X015417Y000370D01*
X015347Y000090D02*
X015137Y000090D01*
X015137Y-000260D02*
X015417Y-000260D01*
X015908Y000002D02*
X015925Y-000010D01*
X015941Y-000024D01*
X015954Y-000041D01*
X015964Y-000059D01*
X015972Y-000078D01*
X015976Y-000099D01*
X015978Y-000120D01*
X015976Y-000142D01*
X015971Y-000163D01*
X015963Y-000184D01*
X015951Y-000202D01*
X015937Y-000219D01*
X015920Y-000233D01*
X015902Y-000245D01*
X015881Y-000253D01*
X015860Y-000258D01*
X015838Y-000260D01*
X015908Y000002D02*
X015715Y000107D01*
X015785Y000370D02*
X015813Y000368D01*
X015841Y000364D01*
X015868Y000357D01*
X015894Y000346D01*
X015919Y000333D01*
X015943Y000317D01*
X015715Y000108D02*
X015698Y000120D01*
X015682Y000134D01*
X015669Y000151D01*
X015659Y000169D01*
X015651Y000188D01*
X015647Y000209D01*
X015645Y000230D01*
X015647Y000252D01*
X015652Y000273D01*
X015660Y000294D01*
X015672Y000312D01*
X015686Y000329D01*
X015703Y000343D01*
X015721Y000355D01*
X015742Y000363D01*
X015763Y000368D01*
X015785Y000370D01*
X015628Y-000173D02*
X015653Y-000196D01*
X015680Y-000215D01*
X015709Y-000231D01*
X015740Y-000244D01*
X015772Y-000253D01*
X015805Y-000259D01*
X015838Y-000261D01*
X016244Y-000260D02*
X016244Y000370D01*
X016524Y000370D01*
X016715Y000370D02*
X017065Y000370D01*
X016890Y000370D02*
X016890Y-000260D01*
X016524Y-000260D02*
X016244Y-000260D01*
X016244Y000090D02*
X016454Y000090D01*
X030704Y011171D02*
X030938Y011171D01*
X030957Y011173D01*
X030975Y011179D01*
X030991Y011188D01*
X031005Y011201D01*
X031016Y011216D01*
X031024Y011233D01*
X031028Y011252D01*
X031028Y011270D01*
X031024Y011289D01*
X031016Y011306D01*
X031005Y011321D01*
X030991Y011334D01*
X030975Y011343D01*
X030957Y011349D01*
X030938Y011351D01*
X030704Y011351D01*
X030776Y011537D02*
X030704Y011627D01*
X031028Y011627D01*
X031028Y011537D02*
X031028Y011717D01*
D13*
X025124Y013254D02*
X024664Y013254D01*
X024664Y013382D01*
X024663Y013382D02*
X024665Y013403D01*
X024670Y013424D01*
X024678Y013443D01*
X024690Y013461D01*
X024704Y013476D01*
X024721Y013489D01*
X024740Y013499D01*
X024760Y013506D01*
X024780Y013510D01*
X024802Y013510D01*
X024822Y013506D01*
X024842Y013499D01*
X024861Y013489D01*
X024878Y013476D01*
X024892Y013461D01*
X024904Y013443D01*
X024912Y013424D01*
X024917Y013403D01*
X024919Y013382D01*
X024919Y013254D01*
X024919Y013408D02*
X025124Y013510D01*
X025124Y013701D02*
X025124Y013957D01*
X025021Y014151D02*
X024664Y014254D01*
X024919Y014330D02*
X025124Y014330D01*
X025021Y014407D02*
X025021Y014151D01*
X024868Y013919D02*
X025124Y013701D01*
X024765Y013701D02*
X024744Y013710D01*
X024724Y013722D01*
X024706Y013737D01*
X024691Y013755D01*
X024679Y013775D01*
X024670Y013796D01*
X024665Y013819D01*
X024663Y013842D01*
X024664Y013842D02*
X024666Y013862D01*
X024671Y013881D01*
X024679Y013900D01*
X024691Y013916D01*
X024705Y013930D01*
X024722Y013942D01*
X024740Y013950D01*
X024759Y013955D01*
X024779Y013957D01*
X024799Y013955D01*
X024818Y013951D01*
X024837Y013943D01*
X024854Y013932D01*
X024869Y013919D01*
X020689Y011496D02*
X020492Y011496D01*
X020492Y011339D01*
X020610Y011339D01*
X020625Y011337D01*
X020640Y011333D01*
X020654Y011326D01*
X020666Y011316D01*
X020676Y011304D01*
X020683Y011290D01*
X020687Y011275D01*
X020689Y011260D01*
X020689Y011221D01*
X020687Y011206D01*
X020683Y011191D01*
X020676Y011177D01*
X020666Y011165D01*
X020654Y011155D01*
X020640Y011148D01*
X020625Y011144D01*
X020610Y011142D01*
X020492Y011142D01*
X020323Y011240D02*
X020323Y011496D01*
X020126Y011496D02*
X020126Y011240D01*
X020127Y011240D02*
X020129Y011222D01*
X020134Y011205D01*
X020142Y011188D01*
X020153Y011174D01*
X020166Y011162D01*
X020181Y011152D01*
X020198Y011146D01*
X020216Y011142D01*
X020234Y011142D01*
X020252Y011146D01*
X020269Y011152D01*
X020284Y011162D01*
X020297Y011174D01*
X020308Y011188D01*
X020316Y011205D01*
X020321Y011222D01*
X020323Y011240D01*
X015245Y011406D02*
X015049Y011406D01*
X015127Y011682D01*
X015186Y011485D02*
X015186Y011328D01*
X014879Y011426D02*
X014879Y011682D01*
X014683Y011682D02*
X014683Y011426D01*
X014685Y011408D01*
X014690Y011391D01*
X014698Y011374D01*
X014709Y011360D01*
X014722Y011348D01*
X014737Y011338D01*
X014754Y011332D01*
X014772Y011328D01*
X014790Y011328D01*
X014808Y011332D01*
X014825Y011338D01*
X014840Y011348D01*
X014853Y011360D01*
X014864Y011374D01*
X014872Y011391D01*
X014877Y011408D01*
X014879Y011426D01*
X017475Y018366D02*
X017515Y018366D01*
X017530Y018368D01*
X017545Y018372D01*
X017559Y018379D01*
X017571Y018389D01*
X017581Y018401D01*
X017588Y018415D01*
X017592Y018430D01*
X017594Y018445D01*
X017593Y018445D02*
X017593Y018720D01*
X017761Y018563D02*
X017761Y018465D01*
X017761Y018563D02*
X017879Y018563D01*
X017761Y018563D02*
X017763Y018588D01*
X017769Y018612D01*
X017778Y018634D01*
X017791Y018655D01*
X017807Y018674D01*
X017826Y018690D01*
X017847Y018703D01*
X017869Y018712D01*
X017893Y018718D01*
X017918Y018720D01*
X017879Y018563D02*
X017894Y018561D01*
X017909Y018557D01*
X017923Y018550D01*
X017935Y018540D01*
X017945Y018528D01*
X017952Y018514D01*
X017956Y018499D01*
X017958Y018484D01*
X017958Y018465D01*
X017957Y018465D02*
X017955Y018447D01*
X017950Y018430D01*
X017942Y018413D01*
X017931Y018399D01*
X017918Y018387D01*
X017903Y018377D01*
X017886Y018371D01*
X017868Y018367D01*
X017850Y018367D01*
X017832Y018371D01*
X017815Y018377D01*
X017800Y018387D01*
X017787Y018399D01*
X017776Y018413D01*
X017768Y018430D01*
X017763Y018447D01*
X017761Y018465D01*
X012388Y019100D02*
X012388Y019180D01*
X012388Y019100D02*
X012386Y019084D01*
X012382Y019069D01*
X012375Y019056D01*
X012365Y019043D01*
X012352Y019033D01*
X012339Y019026D01*
X012324Y019022D01*
X012308Y019020D01*
X012108Y019020D01*
X012092Y019022D01*
X012077Y019026D01*
X012064Y019033D01*
X012051Y019043D01*
X012041Y019056D01*
X012034Y019069D01*
X012030Y019084D01*
X012028Y019100D01*
X012028Y019180D01*
X012028Y019334D02*
X012388Y019334D01*
X012388Y019534D02*
X012028Y019534D01*
X012188Y019534D02*
X012188Y019334D01*
X012298Y019716D02*
X012298Y019896D01*
X012388Y019926D02*
X012028Y019806D01*
X012388Y019686D01*
X012388Y020080D02*
X012028Y020080D01*
X012028Y020180D01*
X012030Y020198D01*
X012035Y020216D01*
X012043Y020233D01*
X012054Y020247D01*
X012068Y020260D01*
X012083Y020270D01*
X012101Y020276D01*
X012119Y020280D01*
X012137Y020280D01*
X012155Y020276D01*
X012173Y020270D01*
X012188Y020260D01*
X012202Y020247D01*
X012213Y020233D01*
X012221Y020216D01*
X012226Y020198D01*
X012228Y020180D01*
X012228Y020080D01*
X012228Y020200D02*
X012388Y020280D01*
X012308Y020450D02*
X012108Y020450D01*
X012092Y020452D01*
X012077Y020456D01*
X012064Y020463D01*
X012051Y020473D01*
X012041Y020486D01*
X012034Y020499D01*
X012030Y020514D01*
X012028Y020530D01*
X012028Y020650D01*
X012028Y020810D02*
X012028Y020890D01*
X012028Y020850D02*
X012388Y020850D01*
X012388Y020810D02*
X012388Y020890D01*
X012388Y021050D02*
X012028Y021050D01*
X012388Y021250D01*
X012028Y021250D01*
X012108Y021434D02*
X012308Y021434D01*
X012324Y021436D01*
X012339Y021440D01*
X012352Y021447D01*
X012365Y021457D01*
X012375Y021470D01*
X012382Y021483D01*
X012386Y021498D01*
X012388Y021514D01*
X012388Y021634D01*
X012188Y021634D01*
X012188Y021574D01*
X012108Y021434D02*
X012092Y021436D01*
X012077Y021440D01*
X012064Y021447D01*
X012051Y021457D01*
X012041Y021470D01*
X012034Y021483D01*
X012030Y021498D01*
X012028Y021514D01*
X012028Y021634D01*
X010813Y021534D02*
X010813Y021434D01*
X010453Y021434D01*
X010453Y021534D01*
X010455Y021551D01*
X010459Y021568D01*
X010466Y021584D01*
X010476Y021598D01*
X010489Y021611D01*
X010503Y021621D01*
X010519Y021628D01*
X010536Y021632D01*
X010553Y021634D01*
X010713Y021634D01*
X010730Y021632D01*
X010747Y021628D01*
X010763Y021621D01*
X010777Y021611D01*
X010790Y021598D01*
X010800Y021584D01*
X010807Y021568D01*
X010811Y021551D01*
X010813Y021534D01*
X010813Y021282D02*
X010813Y021122D01*
X010453Y021122D01*
X010453Y021282D01*
X010613Y021242D02*
X010613Y021122D01*
X010613Y020938D02*
X010813Y020938D01*
X010813Y020818D01*
X010811Y020802D01*
X010807Y020787D01*
X010800Y020774D01*
X010790Y020761D01*
X010777Y020751D01*
X010764Y020744D01*
X010749Y020740D01*
X010733Y020738D01*
X010533Y020738D01*
X010517Y020740D01*
X010502Y020744D01*
X010489Y020751D01*
X010476Y020761D01*
X010466Y020774D01*
X010459Y020787D01*
X010455Y020802D01*
X010453Y020818D01*
X010453Y020938D01*
X010613Y020938D02*
X010613Y020878D01*
X010813Y020568D02*
X010653Y020488D01*
X010653Y020468D02*
X010653Y020368D01*
X010653Y020468D02*
X010651Y020486D01*
X010646Y020504D01*
X010638Y020521D01*
X010627Y020535D01*
X010613Y020548D01*
X010598Y020558D01*
X010580Y020564D01*
X010562Y020568D01*
X010544Y020568D01*
X010526Y020564D01*
X010508Y020558D01*
X010493Y020548D01*
X010479Y020535D01*
X010468Y020521D01*
X010460Y020504D01*
X010455Y020486D01*
X010453Y020468D01*
X010453Y020368D01*
X010813Y020368D01*
X010813Y020214D02*
X010453Y020094D01*
X010813Y019974D01*
X010723Y020004D02*
X010723Y020184D01*
X010813Y019822D02*
X010453Y019822D01*
X010613Y019822D02*
X010613Y019622D01*
X010453Y019622D02*
X010813Y019622D01*
X010813Y019468D02*
X010813Y019388D01*
X010811Y019372D01*
X010807Y019357D01*
X010800Y019344D01*
X010790Y019331D01*
X010777Y019321D01*
X010764Y019314D01*
X010749Y019310D01*
X010733Y019308D01*
X010533Y019308D01*
X010517Y019310D01*
X010502Y019314D01*
X010489Y019321D01*
X010476Y019331D01*
X010466Y019344D01*
X010459Y019357D01*
X010455Y019372D01*
X010453Y019388D01*
X010453Y019468D01*
X012188Y020590D02*
X012188Y020650D01*
X012388Y020650D01*
X012388Y020530D01*
X012386Y020514D01*
X012382Y020499D01*
X012375Y020486D01*
X012365Y020473D01*
X012352Y020463D01*
X012339Y020456D01*
X012324Y020452D01*
X012308Y020450D01*
X026581Y019039D02*
X026581Y018939D01*
X026941Y018939D01*
X026941Y019039D01*
X026939Y019057D01*
X026934Y019075D01*
X026926Y019092D01*
X026915Y019106D01*
X026901Y019119D01*
X026886Y019129D01*
X026868Y019135D01*
X026850Y019139D01*
X026832Y019139D01*
X026814Y019135D01*
X026796Y019129D01*
X026781Y019119D01*
X026767Y019106D01*
X026756Y019092D01*
X026748Y019075D01*
X026743Y019057D01*
X026741Y019039D01*
X026741Y018939D01*
X026741Y019039D02*
X026739Y019056D01*
X026734Y019072D01*
X026726Y019086D01*
X026715Y019098D01*
X026701Y019108D01*
X026686Y019115D01*
X026669Y019119D01*
X026653Y019119D01*
X026636Y019115D01*
X026621Y019108D01*
X026607Y019098D01*
X026596Y019086D01*
X026588Y019072D01*
X026583Y019056D01*
X026581Y019039D01*
X026791Y018733D02*
X026731Y018623D01*
X026581Y018663D02*
X026583Y018687D01*
X026589Y018710D01*
X026598Y018733D01*
X026611Y018753D01*
X026731Y018623D02*
X026721Y018609D01*
X026708Y018598D01*
X026694Y018590D01*
X026678Y018585D01*
X026661Y018583D01*
X026645Y018585D01*
X026630Y018589D01*
X026617Y018596D01*
X026604Y018606D01*
X026594Y018619D01*
X026587Y018632D01*
X026583Y018647D01*
X026581Y018663D01*
X026891Y018573D02*
X026906Y018590D01*
X026918Y018608D01*
X026928Y018628D01*
X026935Y018649D01*
X026940Y018671D01*
X026941Y018693D01*
X026939Y018709D01*
X026935Y018724D01*
X026928Y018737D01*
X026918Y018750D01*
X026905Y018760D01*
X026892Y018767D01*
X026877Y018771D01*
X026861Y018773D01*
X026844Y018771D01*
X026828Y018766D01*
X026814Y018758D01*
X026801Y018747D01*
X026791Y018733D01*
X026841Y018413D02*
X026581Y018413D01*
X026581Y018213D02*
X026841Y018213D01*
X026859Y018215D01*
X026877Y018220D01*
X026894Y018228D01*
X026908Y018239D01*
X026921Y018253D01*
X026931Y018268D01*
X026937Y018286D01*
X026941Y018304D01*
X026941Y018322D01*
X026937Y018340D01*
X026931Y018358D01*
X026921Y018373D01*
X026908Y018387D01*
X026894Y018398D01*
X026877Y018406D01*
X026859Y018411D01*
X026841Y018413D01*
X037475Y010118D02*
X037475Y009843D01*
X037476Y009843D02*
X037474Y009828D01*
X037470Y009813D01*
X037463Y009799D01*
X037453Y009787D01*
X037441Y009777D01*
X037427Y009770D01*
X037412Y009766D01*
X037397Y009764D01*
X037357Y009764D01*
X037643Y009843D02*
X037722Y010118D01*
X037781Y009921D02*
X037781Y009764D01*
X037840Y009843D02*
X037643Y009843D01*
X013107Y000771D02*
X013107Y000731D01*
X012947Y000731D01*
X012947Y000771D02*
X012947Y000671D01*
X012949Y000658D01*
X012953Y000645D01*
X012960Y000634D01*
X012970Y000624D01*
X012981Y000617D01*
X012994Y000613D01*
X013007Y000611D01*
X013107Y000611D01*
X013107Y000771D02*
X013105Y000788D01*
X013100Y000804D01*
X013092Y000818D01*
X013081Y000830D01*
X013067Y000840D01*
X013052Y000847D01*
X013035Y000851D01*
X013019Y000851D01*
X013002Y000847D01*
X012987Y000840D01*
X012973Y000830D01*
X012962Y000818D01*
X012954Y000804D01*
X012949Y000788D01*
X012947Y000771D01*
X012819Y000611D02*
X012806Y000613D01*
X012793Y000617D01*
X012782Y000624D01*
X012772Y000634D01*
X012765Y000645D01*
X012761Y000658D01*
X012759Y000671D01*
X012759Y000971D01*
X012605Y000791D02*
X012605Y000671D01*
X012603Y000658D01*
X012599Y000645D01*
X012592Y000634D01*
X012582Y000624D01*
X012571Y000617D01*
X012558Y000613D01*
X012545Y000611D01*
X012445Y000611D01*
X012445Y000971D01*
X012445Y000851D02*
X012545Y000851D01*
X012558Y000849D01*
X012571Y000845D01*
X012582Y000838D01*
X012592Y000828D01*
X012599Y000817D01*
X012603Y000804D01*
X012605Y000791D01*
X012265Y000791D02*
X012265Y000611D01*
X012175Y000611D01*
X012159Y000613D01*
X012145Y000618D01*
X012131Y000626D01*
X012120Y000637D01*
X012112Y000651D01*
X012107Y000665D01*
X012105Y000681D01*
X012107Y000697D01*
X012112Y000711D01*
X012120Y000725D01*
X012131Y000736D01*
X012145Y000744D01*
X012159Y000749D01*
X012175Y000751D01*
X012265Y000751D01*
X012265Y000791D02*
X012263Y000804D01*
X012259Y000817D01*
X012252Y000828D01*
X012242Y000838D01*
X012231Y000845D01*
X012218Y000849D01*
X012205Y000851D01*
X012125Y000851D01*
X011905Y000611D02*
X011877Y000613D01*
X011849Y000616D01*
X011822Y000623D01*
X011795Y000631D01*
X011845Y000850D02*
X011868Y000848D01*
X011891Y000845D01*
X011914Y000838D01*
X011935Y000830D01*
X011845Y000851D02*
X011832Y000850D01*
X011820Y000845D01*
X011809Y000837D01*
X011800Y000827D01*
X011795Y000816D01*
X011792Y000803D01*
X011793Y000790D01*
X011797Y000777D01*
X011804Y000766D01*
X011813Y000757D01*
X011825Y000751D01*
X011925Y000711D01*
X011925Y000710D02*
X011937Y000704D01*
X011946Y000695D01*
X011953Y000684D01*
X011957Y000671D01*
X011958Y000658D01*
X011955Y000645D01*
X011950Y000634D01*
X011941Y000624D01*
X011930Y000616D01*
X011918Y000611D01*
X011905Y000610D01*
X011647Y000611D02*
X011647Y000851D01*
X011657Y000951D02*
X011637Y000951D01*
X011637Y000971D01*
X011657Y000971D01*
X011657Y000951D01*
X011483Y000871D02*
X011483Y000711D01*
X011481Y000694D01*
X011477Y000677D01*
X011470Y000661D01*
X011460Y000647D01*
X011447Y000634D01*
X011433Y000624D01*
X011417Y000617D01*
X011400Y000613D01*
X011383Y000611D01*
X011283Y000611D01*
X011283Y000971D01*
X011383Y000971D01*
X011400Y000969D01*
X011417Y000965D01*
X011433Y000958D01*
X011447Y000948D01*
X011460Y000935D01*
X011470Y000921D01*
X011477Y000905D01*
X011481Y000888D01*
X011483Y000871D01*
X010936Y000851D02*
X010816Y000851D01*
X010856Y000971D02*
X010856Y000671D01*
X010858Y000658D01*
X010862Y000645D01*
X010869Y000634D01*
X010879Y000624D01*
X010890Y000617D01*
X010903Y000613D01*
X010916Y000611D01*
X010936Y000611D01*
X010665Y000711D02*
X010565Y000751D01*
X010553Y000757D01*
X010544Y000766D01*
X010537Y000777D01*
X010533Y000790D01*
X010532Y000803D01*
X010535Y000816D01*
X010540Y000827D01*
X010549Y000837D01*
X010560Y000845D01*
X010572Y000850D01*
X010585Y000851D01*
X010535Y000631D02*
X010562Y000623D01*
X010589Y000616D01*
X010617Y000613D01*
X010645Y000611D01*
X010645Y000610D02*
X010658Y000611D01*
X010670Y000616D01*
X010681Y000624D01*
X010690Y000634D01*
X010695Y000645D01*
X010698Y000658D01*
X010697Y000671D01*
X010693Y000684D01*
X010686Y000695D01*
X010677Y000704D01*
X010665Y000710D01*
X010675Y000830D02*
X010654Y000838D01*
X010631Y000845D01*
X010608Y000848D01*
X010585Y000850D01*
X010383Y000771D02*
X010383Y000691D01*
X010381Y000674D01*
X010376Y000658D01*
X010368Y000644D01*
X010357Y000632D01*
X010343Y000622D01*
X010328Y000615D01*
X010311Y000611D01*
X010295Y000611D01*
X010278Y000615D01*
X010263Y000622D01*
X010249Y000632D01*
X010238Y000644D01*
X010230Y000658D01*
X010225Y000674D01*
X010223Y000691D01*
X010223Y000771D01*
X010225Y000788D01*
X010230Y000804D01*
X010238Y000818D01*
X010249Y000830D01*
X010263Y000840D01*
X010278Y000847D01*
X010295Y000851D01*
X010311Y000851D01*
X010328Y000847D01*
X010343Y000840D01*
X010357Y000830D01*
X010368Y000818D01*
X010376Y000804D01*
X010381Y000788D01*
X010383Y000771D01*
X010055Y000811D02*
X009855Y000811D01*
X009855Y000971D02*
X009855Y000611D01*
X010055Y000611D02*
X010055Y000971D01*
X009409Y000971D02*
X009309Y000971D01*
X009309Y000611D01*
X009409Y000611D01*
X009427Y000613D01*
X009445Y000618D01*
X009462Y000626D01*
X009476Y000637D01*
X009489Y000651D01*
X009499Y000666D01*
X009505Y000684D01*
X009509Y000702D01*
X009509Y000720D01*
X009505Y000738D01*
X009499Y000756D01*
X009489Y000771D01*
X009476Y000785D01*
X009462Y000796D01*
X009445Y000804D01*
X009427Y000809D01*
X009409Y000811D01*
X009309Y000811D01*
X009409Y000811D02*
X009426Y000813D01*
X009442Y000818D01*
X009456Y000826D01*
X009468Y000837D01*
X009478Y000851D01*
X009485Y000866D01*
X009489Y000883D01*
X009489Y000899D01*
X009485Y000916D01*
X009478Y000931D01*
X009468Y000945D01*
X009456Y000956D01*
X009442Y000964D01*
X009426Y000969D01*
X009409Y000971D01*
X009103Y000761D02*
X008993Y000821D01*
X009033Y000971D02*
X009057Y000969D01*
X009080Y000963D01*
X009103Y000954D01*
X009123Y000941D01*
X008993Y000821D02*
X008979Y000831D01*
X008968Y000844D01*
X008960Y000858D01*
X008955Y000874D01*
X008953Y000891D01*
X008955Y000907D01*
X008959Y000922D01*
X008966Y000935D01*
X008976Y000948D01*
X008989Y000958D01*
X009002Y000965D01*
X009017Y000969D01*
X009033Y000971D01*
X008943Y000661D02*
X008960Y000646D01*
X008978Y000634D01*
X008998Y000624D01*
X009019Y000617D01*
X009041Y000612D01*
X009063Y000611D01*
X009079Y000613D01*
X009094Y000617D01*
X009107Y000624D01*
X009120Y000634D01*
X009130Y000647D01*
X009137Y000660D01*
X009141Y000675D01*
X009143Y000691D01*
X009141Y000708D01*
X009136Y000724D01*
X009128Y000738D01*
X009117Y000751D01*
X009103Y000761D01*
X008783Y000711D02*
X008783Y000971D01*
X008583Y000971D02*
X008583Y000711D01*
X008585Y000693D01*
X008590Y000675D01*
X008598Y000658D01*
X008609Y000644D01*
X008623Y000631D01*
X008638Y000621D01*
X008656Y000615D01*
X008674Y000611D01*
X008692Y000611D01*
X008710Y000615D01*
X008728Y000621D01*
X008743Y000631D01*
X008757Y000644D01*
X008768Y000658D01*
X008776Y000675D01*
X008781Y000693D01*
X008783Y000711D01*
D14*
X022728Y012341D02*
X022978Y012091D01*
X023478Y012091D01*
X023728Y012341D01*
X023728Y012841D01*
X023478Y013091D01*
X022978Y013091D01*
X022728Y012841D01*
X022728Y012341D01*
X022978Y013091D02*
X022728Y013341D01*
X022728Y013841D01*
X022978Y014091D01*
X023478Y014091D01*
X023728Y013841D01*
X023728Y013341D01*
X023478Y013091D01*
X014117Y018885D02*
X014119Y018914D01*
X014126Y018942D01*
X014136Y018969D01*
X014118Y018885D02*
X014120Y018872D01*
X014125Y018859D01*
X014133Y018849D01*
X014144Y018841D01*
X014157Y018837D01*
X014170Y018836D01*
X014183Y018839D01*
X014194Y018845D01*
X014204Y018855D01*
X014211Y018866D01*
X014210Y018866D02*
X014247Y018959D01*
X014254Y018970D01*
X014264Y018980D01*
X014275Y018986D01*
X014288Y018989D01*
X014301Y018988D01*
X014314Y018984D01*
X014325Y018976D01*
X014333Y018966D01*
X014338Y018953D01*
X014340Y018940D01*
X014340Y019200D02*
X014192Y019255D01*
X014340Y019311D01*
X014118Y019366D01*
X014118Y019515D02*
X014340Y019515D01*
X014284Y019669D02*
X014006Y019669D01*
X014118Y019632D02*
X014118Y019744D01*
X014173Y019890D02*
X014284Y019890D01*
X014298Y019892D01*
X014312Y019898D01*
X014324Y019906D01*
X014332Y019918D01*
X014338Y019932D01*
X014340Y019946D01*
X014340Y020020D01*
X014340Y020173D02*
X014006Y020173D01*
X014118Y020173D02*
X014118Y020266D01*
X014117Y020266D02*
X014118Y020278D01*
X014123Y020290D01*
X014129Y020301D01*
X014138Y020310D01*
X014149Y020316D01*
X014161Y020321D01*
X014173Y020322D01*
X014173Y020321D02*
X014340Y020321D01*
X014118Y020020D02*
X014118Y019946D01*
X014117Y019946D02*
X014118Y019934D01*
X014123Y019922D01*
X014129Y019911D01*
X014138Y019902D01*
X014149Y019896D01*
X014161Y019891D01*
X014173Y019890D01*
X014340Y019725D02*
X014339Y019713D01*
X014334Y019701D01*
X014328Y019690D01*
X014319Y019681D01*
X014308Y019675D01*
X014296Y019670D01*
X014284Y019669D01*
X014340Y019725D02*
X014340Y019744D01*
X014025Y019524D02*
X014025Y019506D01*
X014006Y019506D01*
X014006Y019524D01*
X014025Y019524D01*
X014118Y019144D02*
X014340Y019200D01*
X014340Y018941D02*
X014338Y018906D01*
X014331Y018872D01*
X014321Y018839D01*
D15*
X013719Y020375D02*
X013356Y020375D01*
X013356Y020476D01*
X013358Y020494D01*
X013362Y020511D01*
X013370Y020527D01*
X013380Y020541D01*
X013392Y020553D01*
X013407Y020563D01*
X013422Y020571D01*
X013439Y020575D01*
X013457Y020577D01*
X013457Y020578D02*
X013618Y020578D01*
X013618Y020577D02*
X013636Y020575D01*
X013653Y020571D01*
X013669Y020563D01*
X013683Y020553D01*
X013695Y020541D01*
X013705Y020526D01*
X013713Y020511D01*
X013717Y020494D01*
X013719Y020476D01*
X013719Y020375D01*
X013719Y020742D02*
X013719Y020944D01*
X013719Y020843D02*
X013356Y020843D01*
X013436Y020742D01*
X013227Y020732D02*
X013227Y020631D01*
X012863Y020631D01*
X012863Y020732D01*
X012865Y020750D01*
X012869Y020767D01*
X012877Y020783D01*
X012887Y020797D01*
X012899Y020809D01*
X012914Y020819D01*
X012929Y020827D01*
X012946Y020831D01*
X012964Y020833D01*
X013126Y020833D01*
X013144Y020831D01*
X013161Y020827D01*
X013177Y020819D01*
X013191Y020809D01*
X013203Y020797D01*
X013213Y020782D01*
X013221Y020767D01*
X013225Y020750D01*
X013227Y020732D01*
X013227Y021038D02*
X013225Y021061D01*
X013220Y021084D01*
X013212Y021105D01*
X013201Y021126D01*
X013187Y021144D01*
X013171Y021160D01*
X013153Y021174D01*
X013132Y021185D01*
X013111Y021193D01*
X013088Y021198D01*
X013065Y021200D01*
X012964Y021200D01*
X012945Y021198D01*
X012928Y021193D01*
X012911Y021185D01*
X012896Y021174D01*
X012883Y021160D01*
X012874Y021144D01*
X012867Y021127D01*
X012863Y021108D01*
X012863Y021090D01*
X012867Y021071D01*
X012874Y021054D01*
X012883Y021038D01*
X012896Y021024D01*
X012911Y021013D01*
X012928Y021005D01*
X012945Y021000D01*
X012964Y020998D01*
X012985Y020998D01*
X012985Y020997D02*
X013001Y020999D01*
X013016Y021003D01*
X013030Y021011D01*
X013042Y021021D01*
X013052Y021033D01*
X013060Y021047D01*
X013064Y021062D01*
X013066Y021078D01*
X013065Y021078D02*
X013065Y021200D01*
X013355Y021197D02*
X013357Y021212D01*
X013361Y021227D01*
X013369Y021241D01*
X013379Y021252D01*
X013392Y021261D01*
X013406Y021268D01*
X013436Y021278D02*
X013638Y021116D01*
X013719Y021197D02*
X013717Y021212D01*
X013713Y021227D01*
X013705Y021241D01*
X013695Y021252D01*
X013682Y021261D01*
X013668Y021268D01*
X013719Y021197D02*
X013717Y021182D01*
X013713Y021167D01*
X013705Y021153D01*
X013695Y021142D01*
X013682Y021133D01*
X013668Y021126D01*
X013537Y021298D02*
X013503Y021296D01*
X013470Y021290D01*
X013437Y021281D01*
X013406Y021268D01*
X013355Y021197D02*
X013357Y021182D01*
X013361Y021167D01*
X013369Y021153D01*
X013379Y021142D01*
X013392Y021133D01*
X013406Y021126D01*
X013537Y021298D02*
X013571Y021296D01*
X013604Y021290D01*
X013637Y021281D01*
X013668Y021268D01*
X013537Y021096D02*
X013503Y021098D01*
X013470Y021104D01*
X013437Y021113D01*
X013406Y021126D01*
X013537Y021096D02*
X013571Y021098D01*
X013604Y021104D01*
X013637Y021113D01*
X013668Y021126D01*
X011751Y021096D02*
X011751Y021298D01*
X011751Y021197D02*
X011387Y021197D01*
X011468Y021096D01*
X011387Y020843D02*
X011751Y020843D01*
X011751Y020742D02*
X011751Y020944D01*
X011468Y020742D02*
X011387Y020843D01*
X011488Y020578D02*
X011650Y020578D01*
X011650Y020577D02*
X011668Y020575D01*
X011685Y020571D01*
X011701Y020563D01*
X011715Y020553D01*
X011727Y020541D01*
X011737Y020526D01*
X011745Y020511D01*
X011749Y020494D01*
X011751Y020476D01*
X011751Y020375D01*
X011387Y020375D01*
X011387Y020476D01*
X011389Y020494D01*
X011393Y020511D01*
X011401Y020527D01*
X011411Y020541D01*
X011423Y020553D01*
X011438Y020563D01*
X011453Y020571D01*
X011470Y020575D01*
X011488Y020577D01*
X008696Y017656D02*
X008714Y017654D01*
X008731Y017649D01*
X008747Y017641D01*
X008760Y017629D01*
X008772Y017616D01*
X008780Y017600D01*
X008785Y017583D01*
X008787Y017565D01*
X008757Y017495D02*
X008585Y017293D01*
X008787Y017293D01*
X008585Y017575D02*
X008592Y017592D01*
X008601Y017608D01*
X008613Y017622D01*
X008627Y017634D01*
X008643Y017643D01*
X008660Y017650D01*
X008678Y017655D01*
X008696Y017656D01*
X008787Y017565D02*
X008786Y017549D01*
X008782Y017534D01*
X008776Y017519D01*
X008767Y017506D01*
X008757Y017494D01*
X008433Y017293D02*
X008231Y017293D01*
X008332Y017293D02*
X008332Y017656D01*
X008231Y017575D01*
X008096Y017656D02*
X008015Y017656D01*
X007999Y017654D01*
X007984Y017650D01*
X007970Y017642D01*
X007958Y017632D01*
X007948Y017620D01*
X007940Y017606D01*
X007936Y017591D01*
X007934Y017575D01*
X007934Y017373D01*
X007936Y017357D01*
X007940Y017342D01*
X007948Y017328D01*
X007958Y017316D01*
X007970Y017306D01*
X007984Y017298D01*
X007999Y017294D01*
X008015Y017292D01*
X008015Y017293D02*
X008096Y017293D01*
X009491Y013424D02*
X009572Y013424D01*
X009491Y013424D02*
X009475Y013422D01*
X009460Y013418D01*
X009446Y013410D01*
X009434Y013400D01*
X009424Y013388D01*
X009416Y013374D01*
X009412Y013359D01*
X009410Y013343D01*
X009411Y013343D02*
X009411Y013141D01*
X009410Y013141D02*
X009412Y013125D01*
X009416Y013110D01*
X009424Y013096D01*
X009434Y013084D01*
X009446Y013074D01*
X009460Y013066D01*
X009475Y013062D01*
X009491Y013060D01*
X009572Y013060D01*
X009707Y013060D02*
X009909Y013060D01*
X009808Y013060D02*
X009808Y013424D01*
X009707Y013343D01*
X010061Y013424D02*
X010183Y013424D01*
X010200Y013422D01*
X010216Y013417D01*
X010231Y013409D01*
X010243Y013397D01*
X010253Y013384D01*
X010260Y013368D01*
X010264Y013351D01*
X010264Y013335D01*
X010260Y013318D01*
X010253Y013303D01*
X010243Y013289D01*
X010231Y013277D01*
X010216Y013269D01*
X010200Y013264D01*
X010183Y013262D01*
X010102Y013262D01*
X010162Y013262D02*
X010181Y013260D01*
X010198Y013255D01*
X010215Y013247D01*
X010230Y013236D01*
X010243Y013222D01*
X010252Y013206D01*
X010259Y013189D01*
X010263Y013170D01*
X010263Y013152D01*
X010259Y013133D01*
X010252Y013116D01*
X010243Y013100D01*
X010230Y013086D01*
X010215Y013075D01*
X010198Y013067D01*
X010181Y013062D01*
X010162Y013060D01*
X010061Y013060D01*
X013356Y012420D02*
X013356Y012319D01*
X013719Y012319D01*
X013558Y012319D02*
X013558Y012420D01*
X013558Y012440D02*
X013719Y012521D01*
X013719Y012671D02*
X013517Y012842D01*
X013355Y012782D02*
X013356Y012764D01*
X013361Y012746D01*
X013368Y012729D01*
X013377Y012713D01*
X013389Y012699D01*
X013403Y012687D01*
X013419Y012678D01*
X013436Y012671D01*
X013517Y012843D02*
X013505Y012853D01*
X013492Y012862D01*
X013477Y012868D01*
X013462Y012872D01*
X013446Y012873D01*
X013428Y012871D01*
X013411Y012866D01*
X013395Y012858D01*
X013382Y012846D01*
X013370Y012833D01*
X013362Y012817D01*
X013357Y012800D01*
X013355Y012782D01*
X013537Y013227D02*
X013571Y013225D01*
X013604Y013219D01*
X013637Y013210D01*
X013668Y013197D01*
X013682Y013190D01*
X013695Y013181D01*
X013705Y013170D01*
X013713Y013156D01*
X013717Y013141D01*
X013719Y013126D01*
X013717Y013111D01*
X013713Y013096D01*
X013705Y013082D01*
X013695Y013071D01*
X013682Y013062D01*
X013668Y013055D01*
X013638Y013045D02*
X013436Y013207D01*
X013406Y013197D02*
X013392Y013190D01*
X013379Y013181D01*
X013369Y013170D01*
X013361Y013156D01*
X013357Y013141D01*
X013355Y013126D01*
X013357Y013111D01*
X013361Y013096D01*
X013369Y013082D01*
X013379Y013071D01*
X013392Y013062D01*
X013406Y013055D01*
X013406Y013197D02*
X013437Y013210D01*
X013470Y013219D01*
X013503Y013225D01*
X013537Y013227D01*
X013537Y013025D02*
X013503Y013027D01*
X013470Y013033D01*
X013437Y013042D01*
X013406Y013055D01*
X013537Y013025D02*
X013571Y013027D01*
X013604Y013033D01*
X013637Y013042D01*
X013668Y013055D01*
X013719Y012873D02*
X013719Y012671D01*
X013558Y012420D02*
X013556Y012439D01*
X013551Y012456D01*
X013543Y012473D01*
X013532Y012488D01*
X013518Y012501D01*
X013502Y012510D01*
X013485Y012517D01*
X013466Y012521D01*
X013448Y012521D01*
X013429Y012517D01*
X013412Y012510D01*
X013396Y012501D01*
X013382Y012488D01*
X013371Y012473D01*
X013363Y012456D01*
X013358Y012439D01*
X013356Y012420D01*
X017096Y012201D02*
X017096Y012080D01*
X017096Y011946D02*
X017096Y011865D01*
X017098Y011849D01*
X017102Y011834D01*
X017110Y011820D01*
X017120Y011808D01*
X017132Y011798D01*
X017146Y011790D01*
X017161Y011786D01*
X017177Y011784D01*
X017379Y011784D01*
X017395Y011786D01*
X017410Y011790D01*
X017424Y011798D01*
X017436Y011808D01*
X017446Y011820D01*
X017454Y011834D01*
X017458Y011849D01*
X017460Y011865D01*
X017459Y011865D02*
X017459Y011946D01*
X017459Y012080D02*
X017459Y012181D01*
X017457Y012200D01*
X017452Y012217D01*
X017444Y012234D01*
X017433Y012249D01*
X017419Y012262D01*
X017403Y012271D01*
X017386Y012278D01*
X017367Y012282D01*
X017349Y012282D01*
X017330Y012278D01*
X017313Y012271D01*
X017297Y012262D01*
X017283Y012249D01*
X017272Y012234D01*
X017264Y012217D01*
X017259Y012200D01*
X017257Y012181D01*
X017257Y012201D02*
X017257Y012121D01*
X017258Y012201D02*
X017256Y012218D01*
X017251Y012234D01*
X017243Y012249D01*
X017231Y012261D01*
X017218Y012271D01*
X017202Y012278D01*
X017185Y012282D01*
X017169Y012282D01*
X017152Y012278D01*
X017137Y012271D01*
X017123Y012261D01*
X017111Y012249D01*
X017103Y012234D01*
X017098Y012218D01*
X017096Y012201D01*
X017258Y012607D02*
X017246Y012617D01*
X017233Y012626D01*
X017218Y012632D01*
X017203Y012636D01*
X017187Y012637D01*
X017257Y012606D02*
X017459Y012435D01*
X017459Y012637D01*
X017177Y012435D02*
X017160Y012442D01*
X017144Y012451D01*
X017130Y012463D01*
X017118Y012477D01*
X017109Y012493D01*
X017102Y012510D01*
X017097Y012528D01*
X017096Y012546D01*
X017098Y012564D01*
X017103Y012581D01*
X017111Y012597D01*
X017123Y012610D01*
X017136Y012622D01*
X017152Y012630D01*
X017169Y012635D01*
X017187Y012637D01*
X017177Y013260D02*
X017379Y013260D01*
X017395Y013262D01*
X017410Y013266D01*
X017424Y013274D01*
X017436Y013284D01*
X017446Y013296D01*
X017454Y013310D01*
X017458Y013325D01*
X017460Y013341D01*
X017459Y013341D02*
X017459Y013422D01*
X017459Y013557D02*
X017459Y013658D01*
X017457Y013677D01*
X017452Y013694D01*
X017444Y013711D01*
X017433Y013726D01*
X017419Y013739D01*
X017403Y013748D01*
X017386Y013755D01*
X017367Y013759D01*
X017349Y013759D01*
X017330Y013755D01*
X017313Y013748D01*
X017297Y013739D01*
X017283Y013726D01*
X017272Y013711D01*
X017264Y013694D01*
X017259Y013677D01*
X017257Y013658D01*
X017257Y013678D02*
X017257Y013597D01*
X017258Y013678D02*
X017256Y013695D01*
X017251Y013711D01*
X017243Y013726D01*
X017231Y013738D01*
X017218Y013748D01*
X017202Y013755D01*
X017185Y013759D01*
X017169Y013759D01*
X017152Y013755D01*
X017137Y013748D01*
X017123Y013738D01*
X017111Y013726D01*
X017103Y013711D01*
X017098Y013695D01*
X017096Y013678D01*
X017096Y013557D01*
X017096Y013422D02*
X017096Y013341D01*
X017098Y013325D01*
X017102Y013310D01*
X017110Y013296D01*
X017120Y013284D01*
X017132Y013274D01*
X017146Y013266D01*
X017161Y013262D01*
X017177Y013260D01*
X017177Y013911D02*
X017096Y014012D01*
X017459Y014012D01*
X017459Y013911D02*
X017459Y014113D01*
X018019Y013477D02*
X018019Y013113D01*
X018181Y013113D01*
X018314Y013113D02*
X018516Y013113D01*
X018415Y013113D02*
X018415Y013477D01*
X018314Y013396D01*
X018923Y012443D02*
X018957Y012445D01*
X018990Y012451D01*
X019023Y012460D01*
X019054Y012473D01*
X019024Y012463D02*
X018822Y012625D01*
X018792Y012615D02*
X018778Y012608D01*
X018765Y012599D01*
X018755Y012588D01*
X018747Y012574D01*
X018743Y012559D01*
X018741Y012544D01*
X018743Y012529D01*
X018747Y012514D01*
X018755Y012500D01*
X018765Y012489D01*
X018778Y012480D01*
X018792Y012473D01*
X018792Y012616D02*
X018823Y012629D01*
X018856Y012638D01*
X018889Y012644D01*
X018923Y012646D01*
X018923Y012443D02*
X018889Y012445D01*
X018856Y012451D01*
X018823Y012460D01*
X018792Y012473D01*
X018923Y012646D02*
X018957Y012644D01*
X018990Y012638D01*
X019023Y012629D01*
X019054Y012616D01*
X019054Y012615D02*
X019068Y012608D01*
X019081Y012599D01*
X019091Y012588D01*
X019099Y012574D01*
X019103Y012559D01*
X019105Y012544D01*
X019103Y012529D01*
X019099Y012514D01*
X019091Y012500D01*
X019081Y012489D01*
X019068Y012480D01*
X019054Y012473D01*
X019105Y012190D02*
X019103Y012209D01*
X019098Y012226D01*
X019090Y012243D01*
X019079Y012258D01*
X019065Y012271D01*
X019049Y012280D01*
X019032Y012287D01*
X019013Y012291D01*
X018995Y012291D01*
X018976Y012287D01*
X018959Y012280D01*
X018943Y012271D01*
X018929Y012258D01*
X018918Y012243D01*
X018910Y012226D01*
X018905Y012209D01*
X018903Y012190D01*
X018903Y012210D02*
X018903Y012129D01*
X018903Y012210D02*
X018901Y012227D01*
X018896Y012243D01*
X018888Y012258D01*
X018876Y012270D01*
X018863Y012280D01*
X018847Y012287D01*
X018830Y012291D01*
X018814Y012291D01*
X018797Y012287D01*
X018782Y012280D01*
X018768Y012270D01*
X018756Y012258D01*
X018748Y012243D01*
X018743Y012227D01*
X018741Y012210D01*
X018741Y012089D01*
X018741Y011954D02*
X018741Y011873D01*
X018743Y011857D01*
X018747Y011842D01*
X018755Y011828D01*
X018765Y011816D01*
X018777Y011806D01*
X018791Y011798D01*
X018806Y011794D01*
X018822Y011792D01*
X018822Y011793D02*
X019024Y011793D01*
X019024Y011792D02*
X019040Y011794D01*
X019055Y011798D01*
X019069Y011806D01*
X019081Y011816D01*
X019091Y011828D01*
X019099Y011842D01*
X019103Y011857D01*
X019105Y011873D01*
X019105Y011954D01*
X019105Y012089D02*
X019105Y012190D01*
X021011Y013204D02*
X021112Y013204D01*
X021011Y013204D02*
X021011Y013568D01*
X021112Y013568D01*
X021130Y013566D01*
X021147Y013562D01*
X021163Y013554D01*
X021177Y013544D01*
X021189Y013532D01*
X021199Y013518D01*
X021207Y013502D01*
X021211Y013485D01*
X021213Y013467D01*
X021213Y013305D01*
X021211Y013287D01*
X021207Y013270D01*
X021199Y013254D01*
X021189Y013240D01*
X021177Y013228D01*
X021162Y013218D01*
X021147Y013210D01*
X021130Y013206D01*
X021112Y013204D01*
X021377Y013285D02*
X021579Y013285D01*
X021519Y013366D02*
X021519Y013204D01*
X021377Y013285D02*
X021458Y013568D01*
X021961Y012689D02*
X022062Y012689D01*
X022062Y012568D01*
X022062Y012690D02*
X022085Y012688D01*
X022108Y012683D01*
X022129Y012675D01*
X022150Y012664D01*
X022168Y012650D01*
X022184Y012634D01*
X022198Y012616D01*
X022209Y012595D01*
X022217Y012574D01*
X022222Y012551D01*
X022224Y012528D01*
X022223Y012335D02*
X022223Y012133D01*
X022223Y012234D02*
X021859Y012234D01*
X021940Y012133D01*
X021860Y011882D02*
X021862Y011901D01*
X021867Y011918D01*
X021875Y011935D01*
X021886Y011950D01*
X021900Y011963D01*
X021916Y011972D01*
X021933Y011979D01*
X021952Y011983D01*
X021970Y011983D01*
X021989Y011979D01*
X022006Y011972D01*
X022022Y011963D01*
X022036Y011950D01*
X022047Y011935D01*
X022055Y011918D01*
X022060Y011901D01*
X022062Y011882D01*
X022062Y011781D01*
X022062Y011902D02*
X022223Y011983D01*
X022223Y011781D02*
X021859Y011781D01*
X021859Y011882D01*
X021961Y012487D02*
X021981Y012487D01*
X021997Y012489D01*
X022012Y012493D01*
X022026Y012501D01*
X022038Y012511D01*
X022048Y012523D01*
X022056Y012537D01*
X022060Y012552D01*
X022062Y012568D01*
X021961Y012487D02*
X021942Y012489D01*
X021925Y012494D01*
X021908Y012502D01*
X021893Y012513D01*
X021880Y012527D01*
X021871Y012543D01*
X021864Y012560D01*
X021860Y012579D01*
X021860Y012597D01*
X021864Y012616D01*
X021871Y012633D01*
X021880Y012649D01*
X021893Y012663D01*
X021908Y012674D01*
X021925Y012682D01*
X021942Y012687D01*
X021961Y012689D01*
X022653Y014385D02*
X022653Y014547D01*
X022734Y014680D02*
X022653Y014781D01*
X023016Y014781D01*
X023016Y014680D02*
X023016Y014882D01*
X022814Y014547D02*
X022814Y014385D01*
X022653Y014385D02*
X023016Y014385D01*
X022676Y015122D02*
X022674Y015103D01*
X022669Y015086D01*
X022661Y015069D01*
X022650Y015054D01*
X022636Y015041D01*
X022620Y015032D01*
X022603Y015025D01*
X022584Y015021D01*
X022566Y015021D01*
X022547Y015025D01*
X022530Y015032D01*
X022514Y015041D01*
X022500Y015054D01*
X022489Y015069D01*
X022481Y015086D01*
X022476Y015103D01*
X022474Y015122D01*
X022476Y015141D01*
X022481Y015158D01*
X022489Y015175D01*
X022500Y015190D01*
X022514Y015203D01*
X022530Y015212D01*
X022547Y015219D01*
X022566Y015223D01*
X022584Y015223D01*
X022603Y015219D01*
X022620Y015212D01*
X022636Y015203D01*
X022650Y015190D01*
X022661Y015175D01*
X022669Y015158D01*
X022674Y015141D01*
X022676Y015122D01*
X022656Y015304D02*
X022654Y015287D01*
X022649Y015271D01*
X022641Y015256D01*
X022629Y015244D01*
X022616Y015234D01*
X022600Y015227D01*
X022583Y015223D01*
X022567Y015223D01*
X022550Y015227D01*
X022535Y015234D01*
X022521Y015244D01*
X022509Y015256D01*
X022501Y015271D01*
X022496Y015287D01*
X022494Y015304D01*
X022496Y015321D01*
X022501Y015337D01*
X022509Y015352D01*
X022521Y015364D01*
X022535Y015374D01*
X022550Y015381D01*
X022567Y015385D01*
X022583Y015385D01*
X022600Y015381D01*
X022616Y015374D01*
X022629Y015364D01*
X022641Y015352D01*
X022649Y015337D01*
X022654Y015321D01*
X022656Y015304D01*
X022575Y015611D02*
X022676Y015975D01*
X022474Y015975D01*
X022474Y015935D01*
X022291Y015814D02*
X022120Y015611D01*
X022322Y015611D01*
X022120Y015894D02*
X022127Y015911D01*
X022136Y015927D01*
X022148Y015941D01*
X022162Y015953D01*
X022178Y015962D01*
X022195Y015969D01*
X022213Y015974D01*
X022231Y015975D01*
X022249Y015973D01*
X022266Y015968D01*
X022282Y015960D01*
X022295Y015948D01*
X022307Y015935D01*
X022315Y015919D01*
X022320Y015902D01*
X022322Y015884D01*
X022321Y015868D01*
X022317Y015853D01*
X022311Y015838D01*
X022302Y015825D01*
X022292Y015813D01*
X021985Y015975D02*
X021904Y015975D01*
X021888Y015973D01*
X021873Y015969D01*
X021859Y015961D01*
X021847Y015951D01*
X021837Y015939D01*
X021829Y015925D01*
X021825Y015910D01*
X021823Y015894D01*
X021823Y015692D01*
X021825Y015676D01*
X021829Y015661D01*
X021837Y015647D01*
X021847Y015635D01*
X021859Y015625D01*
X021873Y015617D01*
X021888Y015613D01*
X021904Y015611D01*
X021985Y015611D01*
X021985Y015385D02*
X021904Y015385D01*
X021888Y015383D01*
X021873Y015379D01*
X021859Y015371D01*
X021847Y015361D01*
X021837Y015349D01*
X021829Y015335D01*
X021825Y015320D01*
X021823Y015304D01*
X021823Y015102D01*
X021825Y015086D01*
X021829Y015071D01*
X021837Y015057D01*
X021847Y015045D01*
X021859Y015035D01*
X021873Y015027D01*
X021888Y015023D01*
X021904Y015021D01*
X021985Y015021D01*
X022120Y015021D02*
X022322Y015021D01*
X022120Y015021D02*
X022291Y015223D01*
X022231Y015385D02*
X022213Y015384D01*
X022195Y015379D01*
X022178Y015372D01*
X022162Y015363D01*
X022148Y015351D01*
X022136Y015337D01*
X022127Y015321D01*
X022120Y015304D01*
X022292Y015223D02*
X022302Y015235D01*
X022311Y015248D01*
X022317Y015263D01*
X022321Y015278D01*
X022322Y015294D01*
X022320Y015312D01*
X022315Y015329D01*
X022307Y015345D01*
X022295Y015358D01*
X022282Y015370D01*
X022266Y015378D01*
X022249Y015383D01*
X022231Y015385D01*
X021042Y017088D02*
X020840Y017088D01*
X021012Y017290D01*
X020951Y017452D02*
X020933Y017451D01*
X020915Y017446D01*
X020898Y017439D01*
X020882Y017430D01*
X020868Y017418D01*
X020856Y017404D01*
X020847Y017388D01*
X020840Y017371D01*
X021012Y017290D02*
X021022Y017302D01*
X021031Y017315D01*
X021037Y017330D01*
X021041Y017345D01*
X021042Y017361D01*
X021040Y017379D01*
X021035Y017396D01*
X021027Y017412D01*
X021015Y017425D01*
X021002Y017437D01*
X020986Y017445D01*
X020969Y017450D01*
X020951Y017452D01*
X020705Y017452D02*
X020625Y017452D01*
X020609Y017450D01*
X020594Y017446D01*
X020580Y017438D01*
X020568Y017428D01*
X020558Y017416D01*
X020550Y017402D01*
X020546Y017387D01*
X020544Y017371D01*
X020544Y017169D01*
X020546Y017153D01*
X020550Y017138D01*
X020558Y017124D01*
X020568Y017112D01*
X020580Y017102D01*
X020594Y017094D01*
X020609Y017090D01*
X020625Y017088D01*
X020705Y017088D01*
X021194Y017330D02*
X021194Y017351D01*
X021194Y017330D02*
X021196Y017314D01*
X021200Y017299D01*
X021208Y017285D01*
X021218Y017273D01*
X021230Y017263D01*
X021244Y017255D01*
X021259Y017251D01*
X021275Y017249D01*
X021396Y017249D01*
X021396Y017351D01*
X021394Y017370D01*
X021389Y017387D01*
X021381Y017404D01*
X021370Y017419D01*
X021356Y017432D01*
X021340Y017441D01*
X021323Y017448D01*
X021304Y017452D01*
X021286Y017452D01*
X021267Y017448D01*
X021250Y017441D01*
X021234Y017432D01*
X021220Y017419D01*
X021209Y017404D01*
X021201Y017387D01*
X021196Y017370D01*
X021194Y017351D01*
X021397Y017249D02*
X021395Y017226D01*
X021390Y017203D01*
X021382Y017182D01*
X021371Y017161D01*
X021357Y017143D01*
X021341Y017127D01*
X021323Y017113D01*
X021302Y017102D01*
X021281Y017094D01*
X021258Y017089D01*
X021235Y017087D01*
X019614Y017197D02*
X019614Y017217D01*
X019612Y017233D01*
X019608Y017248D01*
X019600Y017262D01*
X019590Y017274D01*
X019578Y017284D01*
X019564Y017292D01*
X019549Y017296D01*
X019533Y017298D01*
X019412Y017298D01*
X019412Y017197D01*
X019414Y017178D01*
X019419Y017161D01*
X019427Y017144D01*
X019438Y017129D01*
X019452Y017116D01*
X019468Y017107D01*
X019485Y017100D01*
X019504Y017096D01*
X019522Y017096D01*
X019541Y017100D01*
X019558Y017107D01*
X019574Y017116D01*
X019588Y017129D01*
X019599Y017144D01*
X019607Y017161D01*
X019612Y017178D01*
X019614Y017197D01*
X019411Y017298D02*
X019413Y017321D01*
X019418Y017344D01*
X019426Y017365D01*
X019437Y017386D01*
X019451Y017404D01*
X019467Y017420D01*
X019485Y017434D01*
X019506Y017445D01*
X019527Y017453D01*
X019550Y017458D01*
X019573Y017460D01*
X019229Y017298D02*
X019057Y017096D01*
X019259Y017096D01*
X019057Y017379D02*
X019064Y017396D01*
X019073Y017412D01*
X019085Y017426D01*
X019099Y017438D01*
X019115Y017447D01*
X019132Y017454D01*
X019150Y017459D01*
X019168Y017460D01*
X019168Y017459D02*
X019186Y017457D01*
X019203Y017452D01*
X019219Y017444D01*
X019232Y017432D01*
X019244Y017419D01*
X019252Y017403D01*
X019257Y017386D01*
X019259Y017368D01*
X019260Y017368D02*
X019259Y017352D01*
X019255Y017337D01*
X019249Y017322D01*
X019240Y017309D01*
X019230Y017297D01*
X018923Y017459D02*
X018842Y017459D01*
X018842Y017460D02*
X018826Y017458D01*
X018811Y017454D01*
X018797Y017446D01*
X018785Y017436D01*
X018775Y017424D01*
X018767Y017410D01*
X018763Y017395D01*
X018761Y017379D01*
X018761Y017177D01*
X018763Y017161D01*
X018767Y017146D01*
X018775Y017132D01*
X018785Y017120D01*
X018797Y017110D01*
X018811Y017102D01*
X018826Y017098D01*
X018842Y017096D01*
X018923Y017096D01*
X018031Y017732D02*
X017829Y017732D01*
X018001Y017934D01*
X017940Y018095D02*
X017922Y018094D01*
X017904Y018089D01*
X017887Y018082D01*
X017871Y018073D01*
X017857Y018061D01*
X017845Y018047D01*
X017836Y018031D01*
X017829Y018014D01*
X018002Y017933D02*
X018012Y017945D01*
X018021Y017958D01*
X018027Y017973D01*
X018031Y017988D01*
X018032Y018004D01*
X018031Y018004D02*
X018029Y018022D01*
X018024Y018039D01*
X018016Y018055D01*
X018004Y018068D01*
X017991Y018080D01*
X017975Y018088D01*
X017958Y018093D01*
X017940Y018095D01*
X017696Y018095D02*
X017535Y018095D01*
X017535Y017732D01*
X017535Y017934D02*
X017696Y017934D01*
X017928Y015955D02*
X017928Y015834D01*
X017928Y015955D02*
X017930Y015972D01*
X017935Y015988D01*
X017943Y016003D01*
X017955Y016015D01*
X017969Y016025D01*
X017984Y016032D01*
X018001Y016036D01*
X018017Y016036D01*
X018034Y016032D01*
X018050Y016025D01*
X018063Y016015D01*
X018075Y016003D01*
X018083Y015988D01*
X018088Y015972D01*
X018090Y015955D01*
X018090Y015874D01*
X018090Y015935D02*
X018092Y015954D01*
X018097Y015971D01*
X018105Y015988D01*
X018116Y016003D01*
X018130Y016016D01*
X018146Y016025D01*
X018163Y016032D01*
X018182Y016036D01*
X018200Y016036D01*
X018219Y016032D01*
X018236Y016025D01*
X018252Y016016D01*
X018266Y016003D01*
X018277Y015988D01*
X018285Y015971D01*
X018290Y015954D01*
X018292Y015935D01*
X018292Y015834D01*
X018191Y015670D02*
X017928Y015670D01*
X017928Y015468D02*
X018191Y015468D01*
X018210Y015470D01*
X018227Y015475D01*
X018244Y015483D01*
X018259Y015494D01*
X018272Y015508D01*
X018281Y015524D01*
X018288Y015541D01*
X018292Y015560D01*
X018292Y015578D01*
X018288Y015597D01*
X018281Y015614D01*
X018272Y015630D01*
X018259Y015644D01*
X018244Y015655D01*
X018227Y015663D01*
X018210Y015668D01*
X018191Y015670D01*
X021339Y018431D02*
X021379Y018431D01*
X021395Y018433D01*
X021410Y018437D01*
X021424Y018445D01*
X021436Y018455D01*
X021446Y018467D01*
X021454Y018481D01*
X021458Y018496D01*
X021460Y018512D01*
X021460Y018795D01*
X021623Y018795D02*
X021825Y018795D01*
X021744Y018633D02*
X021623Y018633D01*
X021623Y018795D01*
X021744Y018634D02*
X021760Y018632D01*
X021775Y018628D01*
X021789Y018620D01*
X021801Y018610D01*
X021811Y018598D01*
X021819Y018584D01*
X021823Y018569D01*
X021825Y018553D01*
X021825Y018512D01*
X021823Y018496D01*
X021819Y018481D01*
X021811Y018467D01*
X021801Y018455D01*
X021789Y018445D01*
X021775Y018437D01*
X021760Y018433D01*
X021744Y018431D01*
X021623Y018431D01*
X026780Y015601D02*
X026796Y015603D01*
X026811Y015607D01*
X026825Y015615D01*
X026837Y015625D01*
X026847Y015637D01*
X026855Y015651D01*
X026859Y015666D01*
X026861Y015682D01*
X026860Y015682D02*
X026860Y015965D01*
X027023Y015884D02*
X027124Y015965D01*
X027124Y015602D01*
X027023Y015602D02*
X027225Y015602D01*
X026780Y015602D02*
X026739Y015602D01*
X028604Y014605D02*
X028604Y014241D01*
X028604Y014403D02*
X028705Y014403D01*
X028725Y014403D02*
X028806Y014241D01*
X028956Y014241D02*
X029158Y014241D01*
X029057Y014241D02*
X029057Y014605D01*
X028956Y014524D01*
X028705Y014605D02*
X028724Y014603D01*
X028741Y014598D01*
X028758Y014590D01*
X028773Y014579D01*
X028786Y014565D01*
X028795Y014549D01*
X028802Y014532D01*
X028806Y014513D01*
X028806Y014495D01*
X028802Y014476D01*
X028795Y014459D01*
X028786Y014443D01*
X028773Y014429D01*
X028758Y014418D01*
X028741Y014410D01*
X028724Y014405D01*
X028705Y014403D01*
X028705Y014605D02*
X028604Y014605D01*
X027705Y013748D02*
X027665Y013748D01*
X027649Y013746D01*
X027634Y013742D01*
X027620Y013734D01*
X027608Y013724D01*
X027598Y013712D01*
X027590Y013698D01*
X027586Y013683D01*
X027584Y013667D01*
X027584Y013546D01*
X027422Y013546D01*
X027422Y013748D01*
X027705Y013748D02*
X027721Y013746D01*
X027736Y013742D01*
X027750Y013734D01*
X027762Y013724D01*
X027772Y013712D01*
X027780Y013698D01*
X027784Y013683D01*
X027786Y013667D01*
X027786Y013546D01*
X027786Y013411D02*
X027786Y013330D01*
X027784Y013314D01*
X027780Y013299D01*
X027772Y013285D01*
X027762Y013273D01*
X027750Y013263D01*
X027736Y013255D01*
X027721Y013251D01*
X027705Y013249D01*
X027503Y013249D01*
X027487Y013251D01*
X027472Y013255D01*
X027458Y013263D01*
X027446Y013273D01*
X027436Y013285D01*
X027428Y013299D01*
X027424Y013314D01*
X027422Y013330D01*
X027422Y013411D01*
X026920Y013426D02*
X026748Y013224D01*
X026950Y013224D01*
X026748Y013507D02*
X026755Y013524D01*
X026764Y013540D01*
X026776Y013554D01*
X026790Y013566D01*
X026806Y013575D01*
X026823Y013582D01*
X026841Y013587D01*
X026859Y013588D01*
X026859Y013587D02*
X026877Y013585D01*
X026894Y013580D01*
X026910Y013572D01*
X026923Y013560D01*
X026935Y013547D01*
X026943Y013531D01*
X026948Y013514D01*
X026950Y013496D01*
X026949Y013480D01*
X026945Y013465D01*
X026939Y013450D01*
X026930Y013437D01*
X026920Y013425D01*
X026616Y013587D02*
X026373Y013224D01*
X026616Y013224D02*
X026373Y013587D01*
X026002Y013237D02*
X026000Y013220D01*
X025995Y013204D01*
X025987Y013189D01*
X025975Y013177D01*
X025962Y013167D01*
X025946Y013160D01*
X025929Y013156D01*
X025913Y013156D01*
X025896Y013160D01*
X025881Y013167D01*
X025867Y013177D01*
X025855Y013189D01*
X025847Y013204D01*
X025842Y013220D01*
X025840Y013237D01*
X025842Y013254D01*
X025847Y013270D01*
X025855Y013285D01*
X025867Y013297D01*
X025881Y013307D01*
X025896Y013314D01*
X025913Y013318D01*
X025929Y013318D01*
X025946Y013314D01*
X025962Y013307D01*
X025975Y013297D01*
X025987Y013285D01*
X025995Y013270D01*
X026000Y013254D01*
X026002Y013237D01*
X026022Y013055D02*
X026020Y013036D01*
X026015Y013019D01*
X026007Y013002D01*
X025996Y012987D01*
X025982Y012974D01*
X025966Y012965D01*
X025949Y012958D01*
X025930Y012954D01*
X025912Y012954D01*
X025893Y012958D01*
X025876Y012965D01*
X025860Y012974D01*
X025846Y012987D01*
X025835Y013002D01*
X025827Y013019D01*
X025822Y013036D01*
X025820Y013055D01*
X025822Y013074D01*
X025827Y013091D01*
X025835Y013108D01*
X025846Y013123D01*
X025860Y013136D01*
X025876Y013145D01*
X025893Y013152D01*
X025912Y013156D01*
X025930Y013156D01*
X025949Y013152D01*
X025966Y013145D01*
X025982Y013136D01*
X025996Y013123D01*
X026007Y013108D01*
X026015Y013091D01*
X026020Y013074D01*
X026022Y013055D01*
X025686Y012954D02*
X025605Y012954D01*
X025589Y012956D01*
X025574Y012960D01*
X025560Y012968D01*
X025548Y012978D01*
X025538Y012990D01*
X025530Y013004D01*
X025526Y013019D01*
X025524Y013035D01*
X025524Y013237D01*
X025526Y013253D01*
X025530Y013268D01*
X025538Y013282D01*
X025548Y013294D01*
X025560Y013304D01*
X025574Y013312D01*
X025589Y013316D01*
X025605Y013318D01*
X025686Y013318D01*
X025272Y011448D02*
X025272Y011084D01*
X025171Y011084D02*
X025373Y011084D01*
X025697Y011135D02*
X025710Y011166D01*
X025719Y011199D01*
X025725Y011232D01*
X025727Y011266D01*
X025525Y011266D02*
X025527Y011300D01*
X025533Y011333D01*
X025542Y011366D01*
X025555Y011397D01*
X025626Y011448D02*
X025641Y011446D01*
X025656Y011442D01*
X025670Y011434D01*
X025681Y011424D01*
X025690Y011411D01*
X025697Y011397D01*
X025707Y011367D02*
X025545Y011165D01*
X025626Y011084D02*
X025641Y011086D01*
X025656Y011090D01*
X025670Y011098D01*
X025681Y011108D01*
X025690Y011121D01*
X025697Y011135D01*
X025626Y011084D02*
X025611Y011086D01*
X025596Y011090D01*
X025582Y011098D01*
X025571Y011108D01*
X025562Y011121D01*
X025555Y011135D01*
X025727Y011266D02*
X025725Y011300D01*
X025719Y011333D01*
X025710Y011366D01*
X025697Y011397D01*
X025626Y011448D02*
X025611Y011446D01*
X025596Y011442D01*
X025582Y011434D01*
X025571Y011424D01*
X025562Y011411D01*
X025555Y011397D01*
X025272Y011448D02*
X025171Y011367D01*
X025036Y011448D02*
X024955Y011448D01*
X024939Y011446D01*
X024924Y011442D01*
X024910Y011434D01*
X024898Y011424D01*
X024888Y011412D01*
X024880Y011398D01*
X024876Y011383D01*
X024874Y011367D01*
X024874Y011165D01*
X024876Y011149D01*
X024880Y011134D01*
X024888Y011120D01*
X024898Y011108D01*
X024910Y011098D01*
X024924Y011090D01*
X024939Y011086D01*
X024955Y011084D01*
X025036Y011084D01*
X025525Y011266D02*
X025527Y011232D01*
X025533Y011199D01*
X025542Y011166D01*
X025555Y011135D01*
X025848Y011062D02*
X025949Y011062D01*
X025968Y011060D01*
X025985Y011055D01*
X026002Y011047D01*
X026017Y011036D01*
X026030Y011022D01*
X026039Y011006D01*
X026046Y010989D01*
X026050Y010970D01*
X026050Y010952D01*
X026046Y010933D01*
X026039Y010916D01*
X026030Y010900D01*
X026017Y010886D01*
X026002Y010875D01*
X025985Y010867D01*
X025968Y010862D01*
X025949Y010860D01*
X025848Y010860D01*
X025969Y010860D02*
X026050Y010698D01*
X026200Y010698D02*
X026402Y010698D01*
X026301Y010698D02*
X026301Y011062D01*
X026200Y010981D01*
X025848Y011062D02*
X025848Y010698D01*
X026554Y010799D02*
X026554Y010900D01*
X026675Y010900D01*
X026554Y010900D02*
X026556Y010923D01*
X026561Y010946D01*
X026569Y010967D01*
X026580Y010988D01*
X026594Y011006D01*
X026610Y011022D01*
X026628Y011036D01*
X026649Y011047D01*
X026670Y011055D01*
X026693Y011060D01*
X026716Y011062D01*
X026756Y010819D02*
X026756Y010799D01*
X026756Y010819D02*
X026754Y010835D01*
X026750Y010850D01*
X026742Y010864D01*
X026732Y010876D01*
X026720Y010886D01*
X026706Y010894D01*
X026691Y010898D01*
X026675Y010900D01*
X026756Y010799D02*
X026754Y010780D01*
X026749Y010763D01*
X026741Y010746D01*
X026730Y010731D01*
X026716Y010718D01*
X026700Y010709D01*
X026683Y010702D01*
X026664Y010698D01*
X026646Y010698D01*
X026627Y010702D01*
X026610Y010709D01*
X026594Y010718D01*
X026580Y010731D01*
X026569Y010746D01*
X026561Y010763D01*
X026556Y010780D01*
X026554Y010799D01*
X026554Y008896D02*
X026756Y008896D01*
X026675Y008735D02*
X026554Y008735D01*
X026554Y008896D01*
X026301Y008896D02*
X026301Y008533D01*
X026200Y008533D02*
X026402Y008533D01*
X026554Y008533D02*
X026675Y008533D01*
X026691Y008535D01*
X026706Y008539D01*
X026720Y008547D01*
X026732Y008557D01*
X026742Y008569D01*
X026750Y008583D01*
X026754Y008598D01*
X026756Y008614D01*
X026756Y008654D01*
X026754Y008670D01*
X026750Y008685D01*
X026742Y008699D01*
X026732Y008711D01*
X026720Y008721D01*
X026706Y008729D01*
X026691Y008733D01*
X026675Y008735D01*
X026301Y008896D02*
X026200Y008816D01*
X025949Y008896D02*
X025968Y008894D01*
X025985Y008889D01*
X026002Y008881D01*
X026017Y008870D01*
X026030Y008856D01*
X026039Y008840D01*
X026046Y008823D01*
X026050Y008804D01*
X026050Y008786D01*
X026046Y008767D01*
X026039Y008750D01*
X026030Y008734D01*
X026017Y008720D01*
X026002Y008709D01*
X025985Y008701D01*
X025968Y008696D01*
X025949Y008694D01*
X025848Y008694D01*
X025969Y008694D02*
X026050Y008533D01*
X025848Y008533D02*
X025848Y008896D01*
X025949Y008896D01*
X024534Y008812D02*
X024413Y008812D01*
X024281Y008812D02*
X024038Y008448D01*
X024281Y008448D02*
X024038Y008812D01*
X024453Y008650D02*
X024534Y008650D01*
X024551Y008652D01*
X024567Y008657D01*
X024582Y008665D01*
X024594Y008677D01*
X024604Y008691D01*
X024611Y008706D01*
X024615Y008723D01*
X024615Y008739D01*
X024611Y008756D01*
X024604Y008772D01*
X024594Y008785D01*
X024582Y008797D01*
X024567Y008805D01*
X024551Y008810D01*
X024534Y008812D01*
X024514Y008650D02*
X024533Y008648D01*
X024550Y008643D01*
X024567Y008635D01*
X024582Y008624D01*
X024595Y008610D01*
X024604Y008594D01*
X024611Y008577D01*
X024615Y008558D01*
X024615Y008540D01*
X024611Y008521D01*
X024604Y008504D01*
X024595Y008488D01*
X024582Y008474D01*
X024567Y008463D01*
X024550Y008455D01*
X024533Y008450D01*
X024514Y008448D01*
X024413Y008448D01*
X021099Y009804D02*
X020998Y009804D01*
X021099Y009804D02*
X021118Y009806D01*
X021135Y009811D01*
X021152Y009819D01*
X021167Y009830D01*
X021180Y009844D01*
X021189Y009860D01*
X021196Y009877D01*
X021200Y009896D01*
X021200Y009914D01*
X021196Y009933D01*
X021189Y009950D01*
X021180Y009966D01*
X021167Y009980D01*
X021152Y009991D01*
X021135Y009999D01*
X021118Y010004D01*
X021099Y010006D01*
X021119Y010006D02*
X021038Y010006D01*
X021119Y010006D02*
X021136Y010008D01*
X021152Y010013D01*
X021167Y010021D01*
X021179Y010033D01*
X021189Y010047D01*
X021196Y010062D01*
X021200Y010079D01*
X021200Y010095D01*
X021196Y010112D01*
X021189Y010128D01*
X021179Y010141D01*
X021167Y010153D01*
X021152Y010161D01*
X021136Y010166D01*
X021119Y010168D01*
X020998Y010168D01*
X020833Y010067D02*
X020833Y009905D01*
X020831Y009887D01*
X020827Y009870D01*
X020819Y009854D01*
X020809Y009840D01*
X020797Y009828D01*
X020782Y009818D01*
X020767Y009810D01*
X020750Y009806D01*
X020732Y009804D01*
X020631Y009804D01*
X020631Y010168D01*
X020732Y010168D01*
X020750Y010166D01*
X020767Y010162D01*
X020783Y010154D01*
X020797Y010144D01*
X020809Y010132D01*
X020819Y010118D01*
X020827Y010102D01*
X020831Y010085D01*
X020833Y010067D01*
X020283Y010006D02*
X020112Y009804D01*
X020314Y009804D01*
X020112Y010087D02*
X020119Y010104D01*
X020128Y010120D01*
X020140Y010134D01*
X020154Y010146D01*
X020170Y010155D01*
X020187Y010162D01*
X020205Y010167D01*
X020223Y010168D01*
X020241Y010166D01*
X020258Y010161D01*
X020274Y010153D01*
X020287Y010141D01*
X020299Y010128D01*
X020307Y010112D01*
X020312Y010095D01*
X020314Y010077D01*
X020313Y010061D01*
X020309Y010046D01*
X020303Y010031D01*
X020294Y010018D01*
X020284Y010006D01*
X019948Y010067D02*
X019948Y009905D01*
X019946Y009887D01*
X019942Y009870D01*
X019934Y009854D01*
X019924Y009840D01*
X019912Y009828D01*
X019897Y009818D01*
X019882Y009810D01*
X019865Y009806D01*
X019847Y009804D01*
X019746Y009804D01*
X019746Y010168D01*
X019847Y010168D01*
X019865Y010166D01*
X019882Y010162D01*
X019898Y010154D01*
X019912Y010144D01*
X019924Y010132D01*
X019934Y010118D01*
X019942Y010102D01*
X019946Y010085D01*
X019948Y010067D01*
X016659Y004763D02*
X016578Y004763D01*
X016562Y004761D01*
X016547Y004757D01*
X016533Y004749D01*
X016521Y004739D01*
X016511Y004727D01*
X016503Y004713D01*
X016499Y004698D01*
X016497Y004682D01*
X016497Y004480D01*
X016499Y004464D01*
X016503Y004449D01*
X016511Y004435D01*
X016521Y004423D01*
X016533Y004413D01*
X016547Y004405D01*
X016562Y004401D01*
X016578Y004399D01*
X016659Y004399D01*
X016794Y004500D02*
X016794Y004601D01*
X016915Y004601D01*
X016793Y004601D02*
X016795Y004624D01*
X016800Y004647D01*
X016808Y004668D01*
X016819Y004689D01*
X016833Y004707D01*
X016849Y004723D01*
X016867Y004737D01*
X016888Y004748D01*
X016909Y004756D01*
X016932Y004761D01*
X016955Y004763D01*
X016915Y004601D02*
X016931Y004599D01*
X016946Y004595D01*
X016960Y004587D01*
X016972Y004577D01*
X016982Y004565D01*
X016990Y004551D01*
X016994Y004536D01*
X016996Y004520D01*
X016996Y004500D01*
X016994Y004481D01*
X016989Y004464D01*
X016981Y004447D01*
X016970Y004432D01*
X016956Y004419D01*
X016940Y004410D01*
X016923Y004403D01*
X016904Y004399D01*
X016886Y004399D01*
X016867Y004403D01*
X016850Y004410D01*
X016834Y004419D01*
X016820Y004432D01*
X016809Y004447D01*
X016801Y004464D01*
X016796Y004481D01*
X016794Y004500D01*
X014336Y003430D02*
X014336Y003066D01*
X014235Y003066D02*
X014438Y003066D01*
X014235Y003349D02*
X014336Y003430D01*
X014055Y003218D02*
X013943Y003278D01*
X013984Y003430D02*
X014008Y003428D01*
X014032Y003422D01*
X014055Y003413D01*
X014075Y003400D01*
X013903Y003349D02*
X013905Y003332D01*
X013910Y003316D01*
X013918Y003301D01*
X013930Y003288D01*
X013943Y003278D01*
X013903Y003349D02*
X013905Y003365D01*
X013909Y003380D01*
X013917Y003394D01*
X013927Y003406D01*
X013939Y003416D01*
X013953Y003424D01*
X013968Y003428D01*
X013984Y003430D01*
X013893Y003117D02*
X013909Y003102D01*
X013928Y003089D01*
X013948Y003079D01*
X013970Y003072D01*
X013992Y003067D01*
X014014Y003066D01*
X014030Y003068D01*
X014045Y003072D01*
X014059Y003080D01*
X014071Y003090D01*
X014081Y003102D01*
X014089Y003116D01*
X014093Y003131D01*
X014095Y003147D01*
X014093Y003164D01*
X014088Y003180D01*
X014080Y003195D01*
X014068Y003208D01*
X014055Y003218D01*
X010107Y002968D02*
X009905Y002968D01*
X010077Y003170D01*
X010016Y003332D02*
X009998Y003331D01*
X009980Y003326D01*
X009963Y003319D01*
X009947Y003310D01*
X009933Y003298D01*
X009921Y003284D01*
X009912Y003268D01*
X009905Y003251D01*
X010077Y003170D02*
X010087Y003182D01*
X010096Y003195D01*
X010102Y003210D01*
X010106Y003225D01*
X010107Y003241D01*
X010105Y003259D01*
X010100Y003276D01*
X010092Y003292D01*
X010080Y003305D01*
X010067Y003317D01*
X010051Y003325D01*
X010034Y003330D01*
X010016Y003332D01*
X009724Y003119D02*
X009613Y003180D01*
X009653Y003332D02*
X009677Y003330D01*
X009701Y003324D01*
X009724Y003315D01*
X009744Y003302D01*
X009572Y003251D02*
X009574Y003234D01*
X009579Y003218D01*
X009587Y003203D01*
X009599Y003190D01*
X009612Y003180D01*
X009572Y003251D02*
X009574Y003267D01*
X009578Y003282D01*
X009586Y003296D01*
X009596Y003308D01*
X009608Y003318D01*
X009622Y003326D01*
X009637Y003330D01*
X009653Y003332D01*
X009562Y003018D02*
X009578Y003003D01*
X009597Y002990D01*
X009617Y002980D01*
X009639Y002973D01*
X009661Y002968D01*
X009683Y002967D01*
X009683Y002968D02*
X009699Y002970D01*
X009714Y002974D01*
X009728Y002982D01*
X009740Y002992D01*
X009750Y003004D01*
X009758Y003018D01*
X009762Y003033D01*
X009764Y003049D01*
X009762Y003066D01*
X009757Y003082D01*
X009749Y003097D01*
X009737Y003110D01*
X009724Y003120D01*
X008706Y007352D02*
X008585Y007352D01*
X008706Y007351D02*
X008722Y007353D01*
X008737Y007357D01*
X008751Y007365D01*
X008763Y007375D01*
X008773Y007387D01*
X008781Y007401D01*
X008785Y007416D01*
X008787Y007432D01*
X008787Y007473D01*
X008785Y007489D01*
X008781Y007504D01*
X008773Y007518D01*
X008763Y007530D01*
X008751Y007540D01*
X008737Y007548D01*
X008722Y007552D01*
X008706Y007554D01*
X008585Y007554D01*
X008585Y007715D01*
X008787Y007715D01*
X008332Y007715D02*
X008332Y007352D01*
X008231Y007352D02*
X008433Y007352D01*
X008096Y007352D02*
X008015Y007352D01*
X008015Y007351D02*
X007999Y007353D01*
X007984Y007357D01*
X007970Y007365D01*
X007958Y007375D01*
X007948Y007387D01*
X007940Y007401D01*
X007936Y007416D01*
X007934Y007432D01*
X007934Y007634D01*
X007936Y007650D01*
X007940Y007665D01*
X007948Y007679D01*
X007958Y007691D01*
X007970Y007701D01*
X007984Y007709D01*
X007999Y007713D01*
X008015Y007715D01*
X008096Y007715D01*
X008231Y007634D02*
X008332Y007715D01*
X005970Y013060D02*
X005970Y013222D01*
X006031Y013141D02*
X005829Y013141D01*
X005910Y013424D01*
X005576Y013424D02*
X005576Y013060D01*
X005475Y013060D02*
X005677Y013060D01*
X005340Y013060D02*
X005259Y013060D01*
X005243Y013062D01*
X005228Y013066D01*
X005214Y013074D01*
X005202Y013084D01*
X005192Y013096D01*
X005184Y013110D01*
X005180Y013125D01*
X005178Y013141D01*
X005178Y013343D01*
X005180Y013359D01*
X005184Y013374D01*
X005192Y013388D01*
X005202Y013400D01*
X005214Y013410D01*
X005228Y013418D01*
X005243Y013422D01*
X005259Y013424D01*
X005340Y013424D01*
X005475Y013343D02*
X005576Y013424D01*
X028702Y005360D02*
X028702Y005238D01*
X028702Y005360D02*
X028704Y005377D01*
X028709Y005393D01*
X028717Y005408D01*
X028729Y005420D01*
X028743Y005430D01*
X028758Y005437D01*
X028775Y005441D01*
X028791Y005441D01*
X028808Y005437D01*
X028824Y005430D01*
X028837Y005420D01*
X028849Y005408D01*
X028857Y005393D01*
X028862Y005377D01*
X028864Y005360D01*
X028864Y005279D01*
X028864Y005339D02*
X028866Y005358D01*
X028871Y005375D01*
X028879Y005392D01*
X028890Y005407D01*
X028904Y005420D01*
X028920Y005429D01*
X028937Y005436D01*
X028956Y005440D01*
X028974Y005440D01*
X028993Y005436D01*
X029010Y005429D01*
X029026Y005420D01*
X029040Y005407D01*
X029051Y005392D01*
X029059Y005375D01*
X029064Y005358D01*
X029066Y005339D01*
X029066Y005238D01*
X029066Y005086D02*
X029066Y004884D01*
X028864Y005056D01*
X028702Y004995D02*
X028703Y004977D01*
X028708Y004959D01*
X028715Y004942D01*
X028724Y004926D01*
X028736Y004912D01*
X028750Y004900D01*
X028766Y004891D01*
X028783Y004884D01*
X028864Y005057D02*
X028852Y005067D01*
X028839Y005076D01*
X028824Y005082D01*
X028809Y005086D01*
X028793Y005087D01*
X028793Y005086D02*
X028775Y005084D01*
X028758Y005079D01*
X028742Y005071D01*
X028729Y005059D01*
X028717Y005046D01*
X028709Y005030D01*
X028704Y005013D01*
X028702Y004995D01*
X028702Y004749D02*
X028702Y004669D01*
X028704Y004653D01*
X028708Y004638D01*
X028716Y004624D01*
X028726Y004612D01*
X028738Y004602D01*
X028752Y004594D01*
X028767Y004590D01*
X028783Y004588D01*
X028985Y004588D01*
X029001Y004590D01*
X029016Y004594D01*
X029030Y004602D01*
X029042Y004612D01*
X029052Y004624D01*
X029060Y004638D01*
X029064Y004653D01*
X029066Y004669D01*
X029066Y004749D01*
X028864Y003286D02*
X028783Y003286D01*
X028767Y003284D01*
X028752Y003280D01*
X028738Y003272D01*
X028726Y003262D01*
X028716Y003250D01*
X028708Y003236D01*
X028704Y003221D01*
X028702Y003205D01*
X028702Y003003D01*
X028704Y002987D01*
X028708Y002972D01*
X028716Y002958D01*
X028726Y002946D01*
X028738Y002936D01*
X028752Y002928D01*
X028767Y002924D01*
X028783Y002922D01*
X028864Y002922D01*
X028998Y002922D02*
X029200Y002922D01*
X029353Y002922D02*
X029555Y002922D01*
X029353Y002922D02*
X029524Y003125D01*
X029464Y003286D02*
X029446Y003285D01*
X029428Y003280D01*
X029411Y003273D01*
X029395Y003264D01*
X029381Y003252D01*
X029369Y003238D01*
X029360Y003222D01*
X029353Y003205D01*
X029525Y003124D02*
X029535Y003136D01*
X029544Y003149D01*
X029550Y003164D01*
X029554Y003179D01*
X029555Y003195D01*
X029553Y003213D01*
X029548Y003230D01*
X029540Y003246D01*
X029528Y003259D01*
X029515Y003271D01*
X029499Y003279D01*
X029482Y003284D01*
X029464Y003286D01*
X029170Y003125D02*
X028998Y002922D01*
X028998Y003205D02*
X029005Y003222D01*
X029014Y003238D01*
X029026Y003252D01*
X029040Y003264D01*
X029056Y003273D01*
X029073Y003280D01*
X029091Y003285D01*
X029109Y003286D01*
X029127Y003284D01*
X029144Y003279D01*
X029160Y003271D01*
X029173Y003259D01*
X029185Y003246D01*
X029193Y003230D01*
X029198Y003213D01*
X029200Y003195D01*
X029201Y003195D02*
X029200Y003179D01*
X029196Y003164D01*
X029190Y003149D01*
X029181Y003136D01*
X029171Y003124D01*
X030178Y003205D02*
X030178Y003003D01*
X030180Y002987D01*
X030184Y002972D01*
X030192Y002958D01*
X030202Y002946D01*
X030214Y002936D01*
X030228Y002928D01*
X030243Y002924D01*
X030259Y002922D01*
X030340Y002922D01*
X030475Y002922D02*
X030677Y002922D01*
X030576Y002922D02*
X030576Y003286D01*
X030475Y003205D01*
X030340Y003286D02*
X030259Y003286D01*
X030243Y003284D01*
X030228Y003280D01*
X030214Y003272D01*
X030202Y003262D01*
X030192Y003250D01*
X030184Y003236D01*
X030180Y003221D01*
X030178Y003205D01*
X030829Y003185D02*
X030829Y003165D01*
X030831Y003149D01*
X030835Y003134D01*
X030843Y003120D01*
X030853Y003108D01*
X030865Y003098D01*
X030879Y003090D01*
X030894Y003086D01*
X030910Y003084D01*
X031031Y003084D01*
X031031Y003185D01*
X031029Y003204D01*
X031024Y003221D01*
X031016Y003238D01*
X031005Y003253D01*
X030991Y003266D01*
X030975Y003275D01*
X030958Y003282D01*
X030939Y003286D01*
X030921Y003286D01*
X030902Y003282D01*
X030885Y003275D01*
X030869Y003266D01*
X030855Y003253D01*
X030844Y003238D01*
X030836Y003221D01*
X030831Y003204D01*
X030829Y003185D01*
X031031Y003084D02*
X031029Y003061D01*
X031024Y003038D01*
X031016Y003017D01*
X031005Y002996D01*
X030991Y002978D01*
X030975Y002962D01*
X030957Y002948D01*
X030936Y002937D01*
X030915Y002929D01*
X030892Y002924D01*
X030869Y002922D01*
X030166Y006064D02*
X029964Y006064D01*
X029948Y006066D01*
X029933Y006070D01*
X029919Y006078D01*
X029907Y006088D01*
X029897Y006100D01*
X029889Y006114D01*
X029885Y006129D01*
X029883Y006145D01*
X029883Y006226D01*
X030045Y006533D02*
X030033Y006543D01*
X030020Y006552D01*
X030005Y006558D01*
X029990Y006562D01*
X029974Y006563D01*
X030045Y006532D02*
X030247Y006360D01*
X030247Y006563D01*
X030196Y006887D02*
X030165Y006900D01*
X030132Y006909D01*
X030099Y006915D01*
X030065Y006917D01*
X030065Y006715D02*
X030031Y006717D01*
X029998Y006723D01*
X029965Y006732D01*
X029934Y006745D01*
X029883Y006816D02*
X029885Y006831D01*
X029889Y006846D01*
X029897Y006860D01*
X029907Y006871D01*
X029920Y006880D01*
X029934Y006887D01*
X029964Y006897D02*
X030166Y006735D01*
X030247Y006816D02*
X030245Y006831D01*
X030241Y006846D01*
X030233Y006860D01*
X030223Y006871D01*
X030210Y006880D01*
X030196Y006887D01*
X030247Y006816D02*
X030245Y006801D01*
X030241Y006786D01*
X030233Y006772D01*
X030223Y006761D01*
X030210Y006752D01*
X030196Y006745D01*
X030065Y006917D02*
X030031Y006915D01*
X029998Y006909D01*
X029965Y006900D01*
X029934Y006887D01*
X029883Y006816D02*
X029885Y006801D01*
X029889Y006786D01*
X029897Y006772D01*
X029907Y006761D01*
X029920Y006752D01*
X029934Y006745D01*
X029974Y006563D02*
X029956Y006561D01*
X029939Y006556D01*
X029923Y006548D01*
X029910Y006536D01*
X029898Y006523D01*
X029890Y006507D01*
X029885Y006490D01*
X029883Y006472D01*
X029884Y006454D01*
X029889Y006436D01*
X029896Y006419D01*
X029905Y006403D01*
X029917Y006389D01*
X029931Y006377D01*
X029947Y006368D01*
X029964Y006361D01*
X030247Y006145D02*
X030245Y006129D01*
X030241Y006114D01*
X030233Y006100D01*
X030223Y006088D01*
X030211Y006078D01*
X030197Y006070D01*
X030182Y006066D01*
X030166Y006064D01*
X030247Y006145D02*
X030247Y006226D01*
X030065Y006715D02*
X030099Y006717D01*
X030132Y006723D01*
X030165Y006732D01*
X030196Y006745D01*
X031359Y007137D02*
X031359Y007339D01*
X031361Y007355D01*
X031365Y007370D01*
X031373Y007384D01*
X031383Y007396D01*
X031395Y007406D01*
X031409Y007414D01*
X031424Y007418D01*
X031440Y007420D01*
X031521Y007420D01*
X031828Y007258D02*
X031838Y007270D01*
X031847Y007283D01*
X031853Y007298D01*
X031857Y007313D01*
X031858Y007329D01*
X031828Y007258D02*
X031656Y007056D01*
X031858Y007056D01*
X032010Y007056D02*
X032212Y007056D01*
X032111Y007056D02*
X032111Y007420D01*
X032010Y007339D01*
X031858Y007329D02*
X031856Y007347D01*
X031851Y007364D01*
X031843Y007380D01*
X031831Y007393D01*
X031818Y007405D01*
X031802Y007413D01*
X031785Y007418D01*
X031767Y007420D01*
X031749Y007419D01*
X031731Y007414D01*
X031714Y007407D01*
X031698Y007398D01*
X031684Y007386D01*
X031672Y007372D01*
X031663Y007356D01*
X031656Y007339D01*
X031440Y007056D02*
X031424Y007058D01*
X031409Y007062D01*
X031395Y007070D01*
X031383Y007080D01*
X031373Y007092D01*
X031365Y007106D01*
X031361Y007121D01*
X031359Y007137D01*
X031440Y007056D02*
X031521Y007056D01*
X031141Y009130D02*
X030777Y009130D01*
X030777Y009231D01*
X030779Y009250D01*
X030784Y009267D01*
X030792Y009284D01*
X030803Y009299D01*
X030817Y009312D01*
X030833Y009321D01*
X030850Y009328D01*
X030869Y009332D01*
X030887Y009332D01*
X030906Y009328D01*
X030923Y009321D01*
X030939Y009312D01*
X030953Y009299D01*
X030964Y009284D01*
X030972Y009267D01*
X030977Y009250D01*
X030979Y009231D01*
X030979Y009130D01*
X030979Y009251D02*
X031141Y009332D01*
X031141Y009482D02*
X031141Y009583D01*
X031140Y009583D02*
X031138Y009602D01*
X031133Y009619D01*
X031125Y009636D01*
X031114Y009651D01*
X031100Y009664D01*
X031084Y009673D01*
X031067Y009680D01*
X031048Y009684D01*
X031030Y009684D01*
X031011Y009680D01*
X030994Y009673D01*
X030978Y009664D01*
X030964Y009651D01*
X030953Y009636D01*
X030945Y009619D01*
X030940Y009602D01*
X030938Y009583D01*
X030938Y009603D02*
X030938Y009522D01*
X030939Y009603D02*
X030937Y009620D01*
X030932Y009636D01*
X030924Y009651D01*
X030912Y009663D01*
X030899Y009673D01*
X030883Y009680D01*
X030866Y009684D01*
X030850Y009684D01*
X030833Y009680D01*
X030818Y009673D01*
X030804Y009663D01*
X030792Y009651D01*
X030784Y009636D01*
X030779Y009620D01*
X030777Y009603D01*
X030777Y009482D01*
X032639Y009615D02*
X032740Y009615D01*
X032639Y009615D02*
X032639Y009979D01*
X032740Y009979D01*
X032758Y009977D01*
X032775Y009973D01*
X032791Y009965D01*
X032805Y009955D01*
X032817Y009943D01*
X032827Y009929D01*
X032835Y009913D01*
X032839Y009896D01*
X032841Y009878D01*
X032841Y009716D01*
X032839Y009698D01*
X032835Y009681D01*
X032827Y009665D01*
X032817Y009651D01*
X032805Y009639D01*
X032790Y009629D01*
X032775Y009621D01*
X032758Y009617D01*
X032740Y009615D01*
X033005Y009615D02*
X033207Y009615D01*
X033106Y009615D02*
X033106Y009979D01*
X033005Y009898D01*
X033623Y012174D02*
X033724Y012174D01*
X033623Y012174D02*
X033623Y012538D01*
X033724Y012538D01*
X033742Y012536D01*
X033759Y012532D01*
X033775Y012524D01*
X033789Y012514D01*
X033801Y012502D01*
X033811Y012488D01*
X033819Y012472D01*
X033823Y012455D01*
X033825Y012437D01*
X033825Y012275D01*
X033823Y012257D01*
X033819Y012240D01*
X033811Y012224D01*
X033801Y012210D01*
X033789Y012198D01*
X033774Y012188D01*
X033759Y012180D01*
X033742Y012176D01*
X033724Y012174D01*
X033989Y012174D02*
X034111Y012174D01*
X034127Y012176D01*
X034142Y012180D01*
X034156Y012188D01*
X034168Y012198D01*
X034178Y012210D01*
X034186Y012224D01*
X034190Y012239D01*
X034192Y012255D01*
X034191Y012255D02*
X034191Y012296D01*
X034192Y012296D02*
X034190Y012312D01*
X034186Y012327D01*
X034178Y012341D01*
X034168Y012353D01*
X034156Y012363D01*
X034142Y012371D01*
X034127Y012375D01*
X034111Y012377D01*
X033989Y012377D01*
X033989Y012538D01*
X034191Y012538D01*
X035100Y012538D02*
X035100Y012174D01*
X035201Y012174D01*
X035219Y012176D01*
X035236Y012180D01*
X035251Y012188D01*
X035266Y012198D01*
X035278Y012210D01*
X035288Y012224D01*
X035296Y012240D01*
X035300Y012257D01*
X035302Y012275D01*
X035302Y012437D01*
X035300Y012455D01*
X035296Y012472D01*
X035288Y012488D01*
X035278Y012502D01*
X035266Y012514D01*
X035252Y012524D01*
X035236Y012532D01*
X035219Y012536D01*
X035201Y012538D01*
X035100Y012538D01*
X035466Y012538D02*
X035668Y012538D01*
X035567Y012174D01*
X035466Y012498D02*
X035466Y012538D01*
X036478Y012538D02*
X036478Y012174D01*
X036579Y012174D01*
X036597Y012176D01*
X036614Y012180D01*
X036629Y012188D01*
X036644Y012198D01*
X036656Y012210D01*
X036666Y012224D01*
X036674Y012240D01*
X036678Y012257D01*
X036680Y012275D01*
X036680Y012437D01*
X036678Y012455D01*
X036674Y012472D01*
X036666Y012488D01*
X036656Y012502D01*
X036644Y012514D01*
X036630Y012524D01*
X036614Y012532D01*
X036597Y012536D01*
X036579Y012538D01*
X036478Y012538D01*
X036844Y012377D02*
X036844Y012275D01*
X036846Y012256D01*
X036851Y012239D01*
X036859Y012222D01*
X036870Y012207D01*
X036884Y012194D01*
X036900Y012185D01*
X036917Y012178D01*
X036936Y012174D01*
X036954Y012174D01*
X036973Y012178D01*
X036990Y012185D01*
X037006Y012194D01*
X037020Y012207D01*
X037031Y012222D01*
X037039Y012239D01*
X037044Y012256D01*
X037046Y012275D01*
X037046Y012296D01*
X037044Y012312D01*
X037040Y012327D01*
X037032Y012341D01*
X037022Y012353D01*
X037010Y012363D01*
X036996Y012371D01*
X036981Y012375D01*
X036965Y012377D01*
X036844Y012377D01*
X036843Y012377D02*
X036845Y012400D01*
X036850Y012423D01*
X036858Y012444D01*
X036869Y012465D01*
X036883Y012483D01*
X036899Y012499D01*
X036917Y012513D01*
X036938Y012524D01*
X036959Y012532D01*
X036982Y012537D01*
X037005Y012539D01*
X032695Y012457D02*
X032693Y012440D01*
X032688Y012424D01*
X032680Y012409D01*
X032668Y012397D01*
X032655Y012387D01*
X032639Y012380D01*
X032622Y012376D01*
X032606Y012376D01*
X032589Y012380D01*
X032574Y012387D01*
X032560Y012397D01*
X032548Y012409D01*
X032540Y012424D01*
X032535Y012440D01*
X032533Y012457D01*
X032535Y012474D01*
X032540Y012490D01*
X032548Y012505D01*
X032560Y012517D01*
X032574Y012527D01*
X032589Y012534D01*
X032606Y012538D01*
X032622Y012538D01*
X032639Y012534D01*
X032655Y012527D01*
X032668Y012517D01*
X032680Y012505D01*
X032688Y012490D01*
X032693Y012474D01*
X032695Y012457D01*
X032715Y012275D02*
X032713Y012256D01*
X032708Y012239D01*
X032700Y012222D01*
X032689Y012207D01*
X032675Y012194D01*
X032659Y012185D01*
X032642Y012178D01*
X032623Y012174D01*
X032605Y012174D01*
X032586Y012178D01*
X032569Y012185D01*
X032553Y012194D01*
X032539Y012207D01*
X032528Y012222D01*
X032520Y012239D01*
X032515Y012256D01*
X032513Y012275D01*
X032515Y012294D01*
X032520Y012311D01*
X032528Y012328D01*
X032539Y012343D01*
X032553Y012356D01*
X032569Y012365D01*
X032586Y012372D01*
X032605Y012376D01*
X032623Y012376D01*
X032642Y012372D01*
X032659Y012365D01*
X032675Y012356D01*
X032689Y012343D01*
X032700Y012328D01*
X032708Y012311D01*
X032713Y012294D01*
X032715Y012275D01*
X032349Y012275D02*
X032349Y012437D01*
X032347Y012455D01*
X032343Y012472D01*
X032335Y012488D01*
X032325Y012502D01*
X032313Y012514D01*
X032299Y012524D01*
X032283Y012532D01*
X032266Y012536D01*
X032248Y012538D01*
X032147Y012538D01*
X032147Y012174D01*
X032248Y012174D01*
X032266Y012176D01*
X032283Y012180D01*
X032298Y012188D01*
X032313Y012198D01*
X032325Y012210D01*
X032335Y012224D01*
X032343Y012240D01*
X032347Y012257D01*
X032349Y012275D01*
X030837Y013052D02*
X030474Y013052D01*
X030474Y013153D01*
X030476Y013172D01*
X030481Y013189D01*
X030489Y013206D01*
X030500Y013221D01*
X030514Y013234D01*
X030530Y013243D01*
X030547Y013250D01*
X030566Y013254D01*
X030584Y013254D01*
X030603Y013250D01*
X030620Y013243D01*
X030636Y013234D01*
X030650Y013221D01*
X030661Y013206D01*
X030669Y013189D01*
X030674Y013172D01*
X030676Y013153D01*
X030676Y013052D01*
X030676Y013174D02*
X030837Y013254D01*
X030837Y013405D02*
X030837Y013607D01*
X030837Y013405D02*
X030635Y013576D01*
X030473Y013516D02*
X030474Y013498D01*
X030479Y013480D01*
X030486Y013463D01*
X030495Y013447D01*
X030507Y013433D01*
X030521Y013421D01*
X030537Y013412D01*
X030554Y013405D01*
X030636Y013577D02*
X030624Y013587D01*
X030611Y013596D01*
X030596Y013602D01*
X030581Y013606D01*
X030565Y013607D01*
X030547Y013605D01*
X030530Y013600D01*
X030514Y013592D01*
X030501Y013580D01*
X030489Y013567D01*
X030481Y013551D01*
X030476Y013534D01*
X030474Y013516D01*
X037420Y009064D02*
X037420Y008781D01*
X037418Y008765D01*
X037414Y008750D01*
X037406Y008736D01*
X037396Y008724D01*
X037384Y008714D01*
X037370Y008706D01*
X037355Y008702D01*
X037339Y008700D01*
X037298Y008700D01*
X037582Y008700D02*
X037754Y008902D01*
X037694Y009064D02*
X037676Y009063D01*
X037658Y009058D01*
X037641Y009051D01*
X037625Y009042D01*
X037611Y009030D01*
X037599Y009016D01*
X037590Y009000D01*
X037583Y008983D01*
X037755Y008902D02*
X037765Y008914D01*
X037774Y008927D01*
X037780Y008942D01*
X037784Y008957D01*
X037785Y008973D01*
X037783Y008991D01*
X037778Y009008D01*
X037770Y009024D01*
X037758Y009037D01*
X037745Y009049D01*
X037729Y009057D01*
X037712Y009062D01*
X037694Y009064D01*
X037784Y008700D02*
X037582Y008700D01*
D16*
X032598Y009272D02*
X032362Y009272D01*
X032480Y009429D01*
X032598Y009272D01*
X032593Y009278D02*
X032367Y009278D01*
X032396Y009316D02*
X032565Y009316D01*
X032537Y009354D02*
X032424Y009354D01*
X032452Y009392D02*
X032508Y009392D01*
X032677Y013209D02*
X032559Y013366D01*
X032795Y013366D01*
X032677Y013209D01*
X032671Y013217D02*
X032683Y013217D01*
X032712Y013255D02*
X032643Y013255D01*
X032614Y013292D02*
X032740Y013292D01*
X032768Y013330D02*
X032586Y013330D01*
X033839Y013366D02*
X034075Y013366D01*
X033957Y013209D01*
X033839Y013366D01*
X033865Y013330D02*
X034048Y013330D01*
X034020Y013292D02*
X033894Y013292D01*
X033922Y013255D02*
X033991Y013255D01*
X033963Y013217D02*
X033951Y013217D01*
X035118Y013366D02*
X035354Y013366D01*
X035236Y013209D01*
X035118Y013366D01*
X035145Y013330D02*
X035327Y013330D01*
X035299Y013292D02*
X035173Y013292D01*
X035202Y013255D02*
X035271Y013255D01*
X035242Y013217D02*
X035230Y013217D01*
X036398Y013366D02*
X036634Y013366D01*
X036516Y013209D01*
X036398Y013366D01*
X036424Y013330D02*
X036607Y013330D01*
X036579Y013292D02*
X036453Y013292D01*
X036481Y013255D02*
X036550Y013255D01*
X036522Y013217D02*
X036510Y013217D01*
X020965Y013976D02*
X020374Y013681D01*
X020374Y014272D01*
X020965Y013976D01*
X020960Y013974D02*
X020374Y013974D01*
X020374Y013936D02*
X020884Y013936D01*
X020893Y014012D02*
X020374Y014012D01*
X020374Y014050D02*
X020818Y014050D01*
X020742Y014088D02*
X020374Y014088D01*
X020374Y014126D02*
X020666Y014126D01*
X020590Y014164D02*
X020374Y014164D01*
X020374Y014201D02*
X020515Y014201D01*
X020439Y014239D02*
X020374Y014239D01*
X020374Y013898D02*
X020809Y013898D01*
X020733Y013861D02*
X020374Y013861D01*
X020374Y013823D02*
X020657Y013823D01*
X020581Y013785D02*
X020374Y013785D01*
X020374Y013747D02*
X020506Y013747D01*
X020430Y013709D02*
X020374Y013709D01*
X020098Y009331D02*
X019862Y009331D01*
X019980Y009173D01*
X020098Y009331D01*
X020087Y009316D02*
X019873Y009316D01*
X019902Y009278D02*
X020059Y009278D01*
X020031Y009240D02*
X019930Y009240D01*
X019958Y009202D02*
X020002Y009202D01*
X020748Y009331D02*
X020984Y009331D01*
X020866Y009173D01*
X020748Y009331D01*
X020759Y009316D02*
X020973Y009316D01*
X020945Y009278D02*
X020787Y009278D01*
X020816Y009240D02*
X020916Y009240D01*
X020888Y009202D02*
X020844Y009202D01*
X016299Y-000862D02*
X016299Y-002362D01*
X005315Y-002362D01*
X005315Y-000862D01*
X016299Y-000862D01*
X016299Y-000866D02*
X005315Y-000866D01*
X005315Y-000906D02*
X016299Y-000906D01*
X016299Y-000945D02*
X005315Y-000945D01*
X005315Y-000984D02*
X016299Y-000984D01*
X016299Y-001024D02*
X005315Y-001024D01*
X005315Y-001063D02*
X016299Y-001063D01*
X016299Y-001102D02*
X005315Y-001102D01*
X005315Y-001142D02*
X006163Y-001142D01*
X006136Y-001169D02*
X006136Y-001799D01*
X006136Y-002071D01*
X006197Y-002132D01*
X006284Y-002132D01*
X006345Y-002071D01*
X006345Y-001860D01*
X006469Y-001860D01*
X006740Y-002132D01*
X006827Y-002132D01*
X006889Y-002071D01*
X006889Y-001984D01*
X006728Y-001823D01*
X006889Y-001663D01*
X006889Y-001305D01*
X006887Y-001303D01*
X006691Y-001108D01*
X006197Y-001108D01*
X006136Y-001169D01*
X006136Y-001181D02*
X005315Y-001181D01*
X005315Y-001220D02*
X006136Y-001220D01*
X006136Y-001260D02*
X005315Y-001260D01*
X005315Y-001299D02*
X006136Y-001299D01*
X006136Y-001339D02*
X005315Y-001339D01*
X005315Y-001378D02*
X006136Y-001378D01*
X006136Y-001417D02*
X005315Y-001417D01*
X005315Y-001457D02*
X006136Y-001457D01*
X006136Y-001496D02*
X005315Y-001496D01*
X005315Y-001535D02*
X006136Y-001535D01*
X006136Y-001575D02*
X005315Y-001575D01*
X005315Y-001614D02*
X006136Y-001614D01*
X006136Y-001654D02*
X005315Y-001654D01*
X005315Y-001693D02*
X006136Y-001693D01*
X006136Y-001732D02*
X005315Y-001732D01*
X005315Y-001772D02*
X006136Y-001772D01*
X006136Y-001811D02*
X005315Y-001811D01*
X005315Y-001850D02*
X006136Y-001850D01*
X006136Y-001890D02*
X005315Y-001890D01*
X005315Y-001929D02*
X006136Y-001929D01*
X006136Y-001969D02*
X005315Y-001969D01*
X005315Y-002008D02*
X006136Y-002008D01*
X006136Y-002047D02*
X005315Y-002047D01*
X005315Y-002087D02*
X006152Y-002087D01*
X006191Y-002126D02*
X005315Y-002126D01*
X005315Y-002165D02*
X016299Y-002165D01*
X016299Y-002126D02*
X015307Y-002126D01*
X015301Y-002132D02*
X015437Y-001996D01*
X015498Y-001935D01*
X015498Y-001848D01*
X015362Y-001712D01*
X015301Y-001651D01*
X015029Y-001651D01*
X014998Y-001620D01*
X015029Y-001589D01*
X015437Y-001589D01*
X015498Y-001527D01*
X015498Y-001441D01*
X015437Y-001379D01*
X014943Y-001379D01*
X014881Y-001441D01*
X014806Y-001516D01*
X014746Y-001576D01*
X014746Y-001663D01*
X014747Y-001665D01*
X014943Y-001860D01*
X015214Y-001860D01*
X015245Y-001891D01*
X015214Y-001923D01*
X014807Y-001923D01*
X014746Y-001984D01*
X014746Y-002071D01*
X014807Y-002132D01*
X015301Y-002132D01*
X015346Y-002087D02*
X016299Y-002087D01*
X016299Y-002047D02*
X015386Y-002047D01*
X015425Y-002008D02*
X016299Y-002008D01*
X016299Y-001969D02*
X015464Y-001969D01*
X015498Y-001929D02*
X016299Y-001929D01*
X016299Y-001890D02*
X015498Y-001890D01*
X015498Y-001850D02*
X016299Y-001850D01*
X016299Y-001811D02*
X015461Y-001811D01*
X015422Y-001772D02*
X016299Y-001772D01*
X016299Y-001732D02*
X015382Y-001732D01*
X015343Y-001693D02*
X016299Y-001693D01*
X016299Y-001654D02*
X015304Y-001654D01*
X015451Y-001575D02*
X016299Y-001575D01*
X016299Y-001614D02*
X015004Y-001614D01*
X014865Y-001457D02*
X014622Y-001457D01*
X014622Y-001441D02*
X014561Y-001379D01*
X014487Y-001379D01*
X014487Y-001305D01*
X014425Y-001243D01*
X014339Y-001243D01*
X014277Y-001305D01*
X014277Y-001379D01*
X014203Y-001379D01*
X014141Y-001441D01*
X014141Y-001527D01*
X014203Y-001589D01*
X014277Y-001589D01*
X014277Y-001935D01*
X014474Y-002132D01*
X014561Y-002132D01*
X014622Y-002071D01*
X014622Y-001984D01*
X014487Y-001848D01*
X014487Y-001589D01*
X014561Y-001589D01*
X014622Y-001527D01*
X014622Y-001441D01*
X014599Y-001417D02*
X014905Y-001417D01*
X014826Y-001496D02*
X014622Y-001496D01*
X014614Y-001535D02*
X014786Y-001535D01*
X014747Y-001575D02*
X014575Y-001575D01*
X014487Y-001614D02*
X014746Y-001614D01*
X014746Y-001654D02*
X014487Y-001654D01*
X014487Y-001693D02*
X014775Y-001693D01*
X014815Y-001732D02*
X014487Y-001732D01*
X014487Y-001772D02*
X014854Y-001772D01*
X014893Y-001811D02*
X014487Y-001811D01*
X014489Y-001850D02*
X014933Y-001850D01*
X014800Y-001929D02*
X014568Y-001929D01*
X014607Y-001969D02*
X014761Y-001969D01*
X014746Y-002008D02*
X014622Y-002008D01*
X014622Y-002047D02*
X014746Y-002047D01*
X014762Y-002087D02*
X014606Y-002087D01*
X014567Y-002126D02*
X014801Y-002126D01*
X014468Y-002126D02*
X013796Y-002126D01*
X013791Y-002132D02*
X013519Y-002132D01*
X013432Y-002132D01*
X013296Y-001996D01*
X013235Y-001935D01*
X013235Y-001576D01*
X013371Y-001441D01*
X013432Y-001379D01*
X013791Y-001379D01*
X013926Y-001515D01*
X013988Y-001576D01*
X013988Y-001799D01*
X013926Y-001860D01*
X013457Y-001860D01*
X013519Y-001923D01*
X013791Y-001923D01*
X013852Y-001984D01*
X013852Y-002071D01*
X013791Y-002132D01*
X013836Y-002087D02*
X014429Y-002087D01*
X014390Y-002047D02*
X013852Y-002047D01*
X013852Y-002008D02*
X014350Y-002008D01*
X014311Y-001969D02*
X013837Y-001969D01*
X013797Y-001929D02*
X014277Y-001929D01*
X014277Y-001890D02*
X013486Y-001890D01*
X013348Y-002047D02*
X013103Y-002047D01*
X013103Y-002049D02*
X013086Y-001964D01*
X012773Y-001756D01*
X013086Y-001547D01*
X013103Y-001462D01*
X013055Y-001390D01*
X012970Y-001373D01*
X012689Y-001560D01*
X012689Y-001169D01*
X012628Y-001108D01*
X012541Y-001108D01*
X012480Y-001169D01*
X012480Y-001724D01*
X012473Y-001734D01*
X012478Y-001756D01*
X012473Y-001778D01*
X012480Y-001787D01*
X012480Y-002071D01*
X012541Y-002132D01*
X012628Y-002132D01*
X012689Y-002071D01*
X012689Y-001951D01*
X012970Y-002138D01*
X013055Y-002121D01*
X013103Y-002049D01*
X013095Y-002008D02*
X013308Y-002008D01*
X013269Y-001969D02*
X013087Y-001969D01*
X013034Y-001929D02*
X013235Y-001929D01*
X013235Y-001890D02*
X012975Y-001890D01*
X012915Y-001850D02*
X013235Y-001850D01*
X013235Y-001811D02*
X012856Y-001811D01*
X012797Y-001772D02*
X013235Y-001772D01*
X013235Y-001732D02*
X012808Y-001732D01*
X012867Y-001693D02*
X013235Y-001693D01*
X013235Y-001654D02*
X012926Y-001654D01*
X012985Y-001614D02*
X013235Y-001614D01*
X013237Y-001575D02*
X013044Y-001575D01*
X013088Y-001535D02*
X013276Y-001535D01*
X013315Y-001496D02*
X013096Y-001496D01*
X013100Y-001457D02*
X013355Y-001457D01*
X013394Y-001417D02*
X013073Y-001417D01*
X012996Y-001378D02*
X014277Y-001378D01*
X014277Y-001339D02*
X012689Y-001339D01*
X012689Y-001378D02*
X012962Y-001378D01*
X012903Y-001417D02*
X012689Y-001417D01*
X012689Y-001457D02*
X012844Y-001457D01*
X012785Y-001496D02*
X012689Y-001496D01*
X012689Y-001535D02*
X012726Y-001535D01*
X012689Y-001299D02*
X014283Y-001299D01*
X014322Y-001260D02*
X012689Y-001260D01*
X012689Y-001220D02*
X016299Y-001220D01*
X016299Y-001181D02*
X012689Y-001181D01*
X012662Y-001142D02*
X016299Y-001142D01*
X016299Y-001260D02*
X014442Y-001260D01*
X014481Y-001299D02*
X016299Y-001299D01*
X016299Y-001339D02*
X014487Y-001339D01*
X014487Y-001378D02*
X016299Y-001378D01*
X016299Y-001417D02*
X015475Y-001417D01*
X015498Y-001457D02*
X016299Y-001457D01*
X016299Y-001496D02*
X015498Y-001496D01*
X015490Y-001535D02*
X016299Y-001535D01*
X016299Y-002205D02*
X005315Y-002205D01*
X005315Y-002244D02*
X016299Y-002244D01*
X016299Y-002283D02*
X005315Y-002283D01*
X005315Y-002323D02*
X016299Y-002323D01*
X016299Y-002362D02*
X005315Y-002362D01*
X006290Y-002126D02*
X006735Y-002126D01*
X006695Y-002087D02*
X006329Y-002087D01*
X006345Y-002047D02*
X006656Y-002047D01*
X006616Y-002008D02*
X006345Y-002008D01*
X006345Y-001969D02*
X006577Y-001969D01*
X006538Y-001929D02*
X006345Y-001929D01*
X006345Y-001890D02*
X006498Y-001890D01*
X006741Y-001811D02*
X007042Y-001811D01*
X007042Y-001772D02*
X006780Y-001772D01*
X006819Y-001732D02*
X007042Y-001732D01*
X007042Y-001693D02*
X006859Y-001693D01*
X006889Y-001654D02*
X007042Y-001654D01*
X007042Y-001614D02*
X006889Y-001614D01*
X006889Y-001575D02*
X007044Y-001575D01*
X007042Y-001576D02*
X007042Y-001935D01*
X007239Y-002132D01*
X007326Y-002132D01*
X007511Y-002132D01*
X007598Y-002132D01*
X007733Y-001996D01*
X007795Y-001935D01*
X007795Y-001576D01*
X007659Y-001441D01*
X007598Y-001379D01*
X007239Y-001379D01*
X007103Y-001515D01*
X007042Y-001576D01*
X007083Y-001535D02*
X006889Y-001535D01*
X006889Y-001496D02*
X007122Y-001496D01*
X007162Y-001457D02*
X006889Y-001457D01*
X006889Y-001417D02*
X007201Y-001417D01*
X007326Y-001589D02*
X007251Y-001663D01*
X007251Y-001848D01*
X007326Y-001923D01*
X007511Y-001923D01*
X007585Y-001848D01*
X007585Y-001663D01*
X007511Y-001589D01*
X007326Y-001589D01*
X007300Y-001614D02*
X007536Y-001614D01*
X007576Y-001654D02*
X007261Y-001654D01*
X007251Y-001693D02*
X007585Y-001693D01*
X007585Y-001732D02*
X007251Y-001732D01*
X007251Y-001772D02*
X007585Y-001772D01*
X007585Y-001811D02*
X007251Y-001811D01*
X007254Y-001850D02*
X007583Y-001850D01*
X007544Y-001890D02*
X007293Y-001890D01*
X007155Y-002047D02*
X006889Y-002047D01*
X006889Y-002008D02*
X007115Y-002008D01*
X007076Y-001969D02*
X006873Y-001969D01*
X006834Y-001929D02*
X007042Y-001929D01*
X007042Y-001890D02*
X006794Y-001890D01*
X006755Y-001850D02*
X007042Y-001850D01*
X007194Y-002087D02*
X006872Y-002087D01*
X006833Y-002126D02*
X007233Y-002126D01*
X007604Y-002126D02*
X008004Y-002126D01*
X008010Y-002132D02*
X008504Y-002132D01*
X008640Y-001996D01*
X008701Y-001935D01*
X008701Y-001576D01*
X008565Y-001441D01*
X008504Y-001379D01*
X008158Y-001379D01*
X008158Y-001169D01*
X008096Y-001108D01*
X008010Y-001108D01*
X007948Y-001169D01*
X007948Y-002071D01*
X008010Y-002132D01*
X007964Y-002087D02*
X007643Y-002087D01*
X007682Y-002047D02*
X007948Y-002047D01*
X007948Y-002008D02*
X007722Y-002008D01*
X007761Y-001969D02*
X007948Y-001969D01*
X007948Y-001929D02*
X007795Y-001929D01*
X007795Y-001890D02*
X007948Y-001890D01*
X007948Y-001850D02*
X007795Y-001850D01*
X007795Y-001811D02*
X007948Y-001811D01*
X007948Y-001772D02*
X007795Y-001772D01*
X007795Y-001732D02*
X007948Y-001732D01*
X007948Y-001693D02*
X007795Y-001693D01*
X007795Y-001654D02*
X007948Y-001654D01*
X007948Y-001614D02*
X007795Y-001614D01*
X007793Y-001575D02*
X007948Y-001575D01*
X007948Y-001535D02*
X007754Y-001535D01*
X007714Y-001496D02*
X007948Y-001496D01*
X007948Y-001457D02*
X007675Y-001457D01*
X007636Y-001417D02*
X007948Y-001417D01*
X007948Y-001378D02*
X006889Y-001378D01*
X006889Y-001339D02*
X007948Y-001339D01*
X007948Y-001299D02*
X006883Y-001299D01*
X006844Y-001260D02*
X007948Y-001260D01*
X007948Y-001220D02*
X006804Y-001220D01*
X006765Y-001181D02*
X007948Y-001181D01*
X007976Y-001142D02*
X006726Y-001142D01*
X006605Y-001317D02*
X006679Y-001391D01*
X006679Y-001576D01*
X006605Y-001651D01*
X006345Y-001651D01*
X006345Y-001317D01*
X006605Y-001317D01*
X006626Y-001339D02*
X006345Y-001339D01*
X006345Y-001378D02*
X006666Y-001378D01*
X006679Y-001417D02*
X006345Y-001417D01*
X006345Y-001457D02*
X006679Y-001457D01*
X006679Y-001496D02*
X006345Y-001496D01*
X006345Y-001535D02*
X006679Y-001535D01*
X006679Y-001575D02*
X006345Y-001575D01*
X006345Y-001614D02*
X006641Y-001614D01*
X008158Y-001614D02*
X008443Y-001614D01*
X008417Y-001589D02*
X008492Y-001663D01*
X008492Y-001848D01*
X008417Y-001923D01*
X008158Y-001923D01*
X008158Y-001589D01*
X008417Y-001589D01*
X008482Y-001654D02*
X008158Y-001654D01*
X008158Y-001693D02*
X008492Y-001693D01*
X008492Y-001732D02*
X008158Y-001732D01*
X008158Y-001772D02*
X008492Y-001772D01*
X008492Y-001811D02*
X008158Y-001811D01*
X008158Y-001850D02*
X008489Y-001850D01*
X008450Y-001890D02*
X008158Y-001890D01*
X008510Y-002126D02*
X009046Y-002126D01*
X009052Y-002132D02*
X009139Y-002132D01*
X009323Y-002132D01*
X009410Y-002132D01*
X009546Y-001996D01*
X009607Y-001935D01*
X009607Y-001576D01*
X009472Y-001441D01*
X009410Y-001379D01*
X009052Y-001379D01*
X008916Y-001515D01*
X008855Y-001576D01*
X008855Y-001935D01*
X009052Y-002132D01*
X009007Y-002087D02*
X008549Y-002087D01*
X008589Y-002047D02*
X008967Y-002047D01*
X008928Y-002008D02*
X008628Y-002008D01*
X008667Y-001969D02*
X008888Y-001969D01*
X008855Y-001929D02*
X008701Y-001929D01*
X008701Y-001890D02*
X008855Y-001890D01*
X008855Y-001850D02*
X008701Y-001850D01*
X008701Y-001811D02*
X008855Y-001811D01*
X008855Y-001772D02*
X008701Y-001772D01*
X008701Y-001732D02*
X008855Y-001732D01*
X008855Y-001693D02*
X008701Y-001693D01*
X008701Y-001654D02*
X008855Y-001654D01*
X008855Y-001614D02*
X008701Y-001614D01*
X008699Y-001575D02*
X008856Y-001575D01*
X008896Y-001535D02*
X008660Y-001535D01*
X008621Y-001496D02*
X008935Y-001496D01*
X008974Y-001457D02*
X008581Y-001457D01*
X008542Y-001417D02*
X009014Y-001417D01*
X009139Y-001589D02*
X009064Y-001663D01*
X009064Y-001848D01*
X009139Y-001923D01*
X009323Y-001923D01*
X009398Y-001848D01*
X009398Y-001663D01*
X009323Y-001589D01*
X009139Y-001589D01*
X009113Y-001614D02*
X009349Y-001614D01*
X009388Y-001654D02*
X009074Y-001654D01*
X009064Y-001693D02*
X009398Y-001693D01*
X009398Y-001732D02*
X009064Y-001732D01*
X009064Y-001772D02*
X009398Y-001772D01*
X009398Y-001811D02*
X009064Y-001811D01*
X009066Y-001850D02*
X009396Y-001850D01*
X009356Y-001890D02*
X009106Y-001890D01*
X009416Y-002126D02*
X009952Y-002126D01*
X009958Y-002132D02*
X010181Y-002132D01*
X010378Y-001935D01*
X010378Y-001317D01*
X010452Y-001317D01*
X010514Y-001256D01*
X010514Y-001169D01*
X010452Y-001108D01*
X010094Y-001108D01*
X010033Y-001169D01*
X010033Y-001256D01*
X010094Y-001317D01*
X010168Y-001317D01*
X010168Y-001848D01*
X010094Y-001923D01*
X010045Y-001923D01*
X009909Y-001787D01*
X009822Y-001787D01*
X009761Y-001848D01*
X009761Y-001935D01*
X009897Y-002071D01*
X009958Y-002132D01*
X009913Y-002087D02*
X009455Y-002087D01*
X009495Y-002047D02*
X009873Y-002047D01*
X009834Y-002008D02*
X009534Y-002008D01*
X009574Y-001969D02*
X009795Y-001969D01*
X009761Y-001929D02*
X009607Y-001929D01*
X009607Y-001890D02*
X009761Y-001890D01*
X009761Y-001850D02*
X009607Y-001850D01*
X009607Y-001811D02*
X009798Y-001811D01*
X009933Y-001811D02*
X010168Y-001811D01*
X010168Y-001772D02*
X009607Y-001772D01*
X009607Y-001732D02*
X010168Y-001732D01*
X010168Y-001693D02*
X009607Y-001693D01*
X009607Y-001654D02*
X010168Y-001654D01*
X010168Y-001614D02*
X009607Y-001614D01*
X009606Y-001575D02*
X010168Y-001575D01*
X010168Y-001535D02*
X009566Y-001535D01*
X009527Y-001496D02*
X010168Y-001496D01*
X010168Y-001457D02*
X009488Y-001457D01*
X009448Y-001417D02*
X010168Y-001417D01*
X010168Y-001378D02*
X008158Y-001378D01*
X008158Y-001339D02*
X010168Y-001339D01*
X010076Y-001299D02*
X008158Y-001299D01*
X008158Y-001260D02*
X010037Y-001260D01*
X010033Y-001220D02*
X008158Y-001220D01*
X008158Y-001181D02*
X010033Y-001181D01*
X010060Y-001142D02*
X008131Y-001142D01*
X009973Y-001850D02*
X010166Y-001850D01*
X010127Y-001890D02*
X010012Y-001890D01*
X010226Y-002087D02*
X010819Y-002087D01*
X010859Y-002126D02*
X010187Y-002126D01*
X010265Y-002047D02*
X010780Y-002047D01*
X010740Y-002008D02*
X010305Y-002008D01*
X010344Y-001969D02*
X010701Y-001969D01*
X010729Y-001996D02*
X010864Y-002132D01*
X011359Y-002132D01*
X011420Y-002071D01*
X011420Y-001576D01*
X011359Y-001515D01*
X011223Y-001379D01*
X011136Y-001379D01*
X010864Y-001379D01*
X010803Y-001441D01*
X010803Y-001527D01*
X010864Y-001589D01*
X011136Y-001589D01*
X011198Y-001651D01*
X010864Y-001651D01*
X010803Y-001712D01*
X010667Y-001848D01*
X010667Y-001935D01*
X010729Y-001996D01*
X010667Y-001929D02*
X010378Y-001929D01*
X010378Y-001890D02*
X010667Y-001890D01*
X010667Y-001850D02*
X010378Y-001850D01*
X010378Y-001811D02*
X010704Y-001811D01*
X010744Y-001772D02*
X010378Y-001772D01*
X010378Y-001732D02*
X010783Y-001732D01*
X010822Y-001693D02*
X010378Y-001693D01*
X010378Y-001654D02*
X010862Y-001654D01*
X010851Y-001575D02*
X010378Y-001575D01*
X010378Y-001614D02*
X011162Y-001614D01*
X011300Y-001457D02*
X011693Y-001457D01*
X011654Y-001496D02*
X011340Y-001496D01*
X011379Y-001535D02*
X011614Y-001535D01*
X011635Y-001515D02*
X011574Y-001576D01*
X011574Y-001935D01*
X011709Y-002071D01*
X011771Y-002132D01*
X012265Y-002132D01*
X012326Y-002071D01*
X012326Y-001984D01*
X012265Y-001923D01*
X011857Y-001923D01*
X011783Y-001848D01*
X011783Y-001663D01*
X011857Y-001589D01*
X012265Y-001589D01*
X012326Y-001527D01*
X012326Y-001441D01*
X012265Y-001379D01*
X011771Y-001379D01*
X011635Y-001515D01*
X011575Y-001575D02*
X011418Y-001575D01*
X011420Y-001614D02*
X011574Y-001614D01*
X011574Y-001654D02*
X011420Y-001654D01*
X011420Y-001693D02*
X011574Y-001693D01*
X011574Y-001732D02*
X011420Y-001732D01*
X011420Y-001772D02*
X011574Y-001772D01*
X011574Y-001811D02*
X011420Y-001811D01*
X011420Y-001850D02*
X011574Y-001850D01*
X011574Y-001890D02*
X011420Y-001890D01*
X011420Y-001929D02*
X011574Y-001929D01*
X011607Y-001969D02*
X011420Y-001969D01*
X011420Y-002008D02*
X011647Y-002008D01*
X011686Y-002047D02*
X011420Y-002047D01*
X011404Y-002087D02*
X011725Y-002087D01*
X011765Y-002126D02*
X011364Y-002126D01*
X011211Y-001923D02*
X011211Y-001860D01*
X010951Y-001860D01*
X010920Y-001891D01*
X010951Y-001923D01*
X011211Y-001923D01*
X011211Y-001890D02*
X010922Y-001890D01*
X010811Y-001535D02*
X010378Y-001535D01*
X010378Y-001496D02*
X010803Y-001496D01*
X010803Y-001457D02*
X010378Y-001457D01*
X010378Y-001417D02*
X010826Y-001417D01*
X010509Y-001260D02*
X012480Y-001260D01*
X012480Y-001299D02*
X010470Y-001299D01*
X010514Y-001220D02*
X012480Y-001220D01*
X012480Y-001181D02*
X010514Y-001181D01*
X010486Y-001142D02*
X012507Y-001142D01*
X012480Y-001339D02*
X010378Y-001339D01*
X010378Y-001378D02*
X012480Y-001378D01*
X012480Y-001417D02*
X012303Y-001417D01*
X012326Y-001457D02*
X012480Y-001457D01*
X012480Y-001496D02*
X012326Y-001496D01*
X012318Y-001535D02*
X012480Y-001535D01*
X012480Y-001575D02*
X012279Y-001575D01*
X012480Y-001614D02*
X011832Y-001614D01*
X011792Y-001654D02*
X012480Y-001654D01*
X012480Y-001693D02*
X011783Y-001693D01*
X011783Y-001732D02*
X012474Y-001732D01*
X012475Y-001772D02*
X011783Y-001772D01*
X011783Y-001811D02*
X012480Y-001811D01*
X012480Y-001850D02*
X011785Y-001850D01*
X011825Y-001890D02*
X012480Y-001890D01*
X012480Y-001929D02*
X012271Y-001929D01*
X012311Y-001969D02*
X012480Y-001969D01*
X012480Y-002008D02*
X012326Y-002008D01*
X012326Y-002047D02*
X012480Y-002047D01*
X012496Y-002087D02*
X012310Y-002087D01*
X012271Y-002126D02*
X012535Y-002126D01*
X012634Y-002126D02*
X012951Y-002126D01*
X012892Y-002087D02*
X012673Y-002087D01*
X012689Y-002047D02*
X012833Y-002047D01*
X012774Y-002008D02*
X012689Y-002008D01*
X012689Y-001969D02*
X012715Y-001969D01*
X013032Y-002126D02*
X013426Y-002126D01*
X013387Y-002087D02*
X013078Y-002087D01*
X013457Y-001651D02*
X013519Y-001589D01*
X013704Y-001589D01*
X013766Y-001651D01*
X013457Y-001651D01*
X013493Y-001614D02*
X013729Y-001614D01*
X013868Y-001457D02*
X014141Y-001457D01*
X014141Y-001496D02*
X013907Y-001496D01*
X013947Y-001535D02*
X014150Y-001535D01*
X014189Y-001575D02*
X013986Y-001575D01*
X013988Y-001614D02*
X014277Y-001614D01*
X014277Y-001654D02*
X013988Y-001654D01*
X013988Y-001693D02*
X014277Y-001693D01*
X014277Y-001732D02*
X013988Y-001732D01*
X013988Y-001772D02*
X014277Y-001772D01*
X014277Y-001811D02*
X013976Y-001811D01*
X013936Y-001850D02*
X014277Y-001850D01*
X014528Y-001890D02*
X015244Y-001890D01*
X014165Y-001417D02*
X013829Y-001417D01*
X011733Y-001417D02*
X011261Y-001417D01*
X011024Y020787D02*
X010906Y020945D01*
X011142Y020945D01*
X011024Y020787D01*
X011026Y020791D02*
X011021Y020791D01*
X010993Y020829D02*
X011055Y020829D01*
X011083Y020867D02*
X010964Y020867D01*
X010936Y020904D02*
X011111Y020904D01*
X011140Y020942D02*
X010907Y020942D01*
X012480Y020945D02*
X012717Y020945D01*
X012598Y020787D01*
X012480Y020945D01*
X012482Y020942D02*
X012715Y020942D01*
X012686Y020904D02*
X012511Y020904D01*
X012539Y020867D02*
X012658Y020867D01*
X012629Y020829D02*
X012567Y020829D01*
X012596Y020791D02*
X012601Y020791D01*
X013858Y020945D02*
X014094Y020945D01*
X013976Y020787D01*
X013858Y020945D01*
X013860Y020942D02*
X014093Y020942D01*
X014064Y020904D02*
X013889Y020904D01*
X013917Y020867D02*
X014036Y020867D01*
X014007Y020829D02*
X013945Y020829D01*
X013974Y020791D02*
X013979Y020791D01*
D17*
X023575Y018626D02*
X023575Y018547D01*
X023634Y018488D01*
X023713Y018449D01*
X023850Y018409D01*
X024362Y018291D01*
X024500Y018252D01*
X024579Y018213D01*
X024638Y018154D01*
X024638Y018075D01*
X024579Y018016D01*
X024500Y017976D01*
X024362Y017937D01*
X024106Y017878D01*
X024106Y017898D02*
X024106Y019276D01*
X024106Y019295D02*
X024362Y019236D01*
X024500Y019197D01*
X024579Y019157D01*
X024638Y019098D01*
X024638Y019020D01*
X024579Y018961D01*
X024500Y018921D01*
X024362Y018882D01*
X023850Y018764D01*
X023713Y018724D01*
X023634Y018685D01*
X023575Y018626D01*
X023240Y018587D02*
X023242Y018647D01*
X023248Y018706D01*
X023258Y018766D01*
X023272Y018824D01*
X023289Y018881D01*
X023310Y018937D01*
X023335Y018992D01*
X023364Y019044D01*
X023396Y019095D01*
X023431Y019143D01*
X023469Y019190D01*
X023511Y019233D01*
X023555Y019273D01*
X023601Y019311D01*
X023650Y019345D01*
X023702Y019377D01*
X023755Y019404D01*
X023810Y019428D01*
X023866Y019449D01*
X023924Y019465D01*
X023982Y019478D01*
X024041Y019487D01*
X024101Y019492D01*
X024161Y019493D01*
X024221Y019490D01*
X024280Y019483D01*
X024339Y019472D01*
X024397Y019457D01*
X024454Y019439D01*
X024510Y019417D01*
X024564Y019391D01*
X024616Y019361D01*
X024666Y019329D01*
X024714Y019293D01*
X024760Y019254D01*
X024802Y019212D01*
X024842Y019167D01*
X024879Y019120D01*
X024913Y019070D01*
X024943Y019018D01*
X024970Y018965D01*
X024993Y018909D01*
X025012Y018853D01*
X025028Y018795D01*
X025040Y018736D01*
X025048Y018677D01*
X025052Y018617D01*
X025052Y018557D01*
X025048Y018497D01*
X025040Y018438D01*
X025028Y018379D01*
X025012Y018321D01*
X024993Y018265D01*
X024970Y018209D01*
X024943Y018156D01*
X024913Y018104D01*
X024879Y018054D01*
X024842Y018007D01*
X024802Y017962D01*
X024760Y017920D01*
X024714Y017881D01*
X024666Y017845D01*
X024616Y017813D01*
X024564Y017783D01*
X024510Y017757D01*
X024454Y017735D01*
X024397Y017717D01*
X024339Y017702D01*
X024280Y017691D01*
X024221Y017684D01*
X024161Y017681D01*
X024101Y017682D01*
X024041Y017687D01*
X023982Y017696D01*
X023924Y017709D01*
X023866Y017725D01*
X023810Y017746D01*
X023755Y017770D01*
X023702Y017797D01*
X023650Y017829D01*
X023601Y017863D01*
X023555Y017901D01*
X023511Y017941D01*
X023469Y017984D01*
X023431Y018031D01*
X023396Y018079D01*
X023364Y018130D01*
X023335Y018182D01*
X023310Y018237D01*
X023289Y018293D01*
X023272Y018350D01*
X023258Y018408D01*
X023248Y018468D01*
X023242Y018527D01*
X023240Y018587D01*
D18*
X027610Y021146D03*
X027610Y016028D03*
D19*
X020079Y016142D02*
X020079Y014567D01*
X019488Y014567D01*
X019488Y016142D01*
X020079Y016142D01*
X019488Y016142D02*
X018504Y016142D01*
X018504Y014567D01*
X019488Y014567D01*
X015709Y013189D02*
X015711Y013201D01*
X015716Y013212D01*
X015725Y013221D01*
X015736Y013226D01*
X015748Y013228D01*
X015760Y013226D01*
X015771Y013221D01*
X015780Y013212D01*
X015785Y013201D01*
X015787Y013189D01*
X015785Y013177D01*
X015780Y013166D01*
X015771Y013157D01*
X015760Y013152D01*
X015748Y013150D01*
X015736Y013152D01*
X015725Y013157D01*
X015716Y013166D01*
X015711Y013177D01*
X015709Y013189D01*
X013976Y002756D02*
X013976Y000787D01*
X017520Y000787D01*
X017520Y002756D01*
X013976Y002756D01*
X012067Y002673D02*
X012067Y001264D01*
X009587Y001264D01*
X009587Y002673D01*
X012067Y002673D01*
D20*
X027339Y012354D02*
X027341Y012367D01*
X027346Y012380D01*
X027355Y012391D01*
X027366Y012398D01*
X027379Y012403D01*
X027392Y012404D01*
X027406Y012401D01*
X027418Y012395D01*
X027428Y012386D01*
X027435Y012374D01*
X027439Y012361D01*
X027439Y012347D01*
X027435Y012334D01*
X027428Y012322D01*
X027418Y012313D01*
X027406Y012307D01*
X027392Y012304D01*
X027379Y012305D01*
X027366Y012310D01*
X027355Y012317D01*
X027346Y012328D01*
X027341Y012341D01*
X027339Y012354D01*
D21*
X021150Y012087D02*
X021150Y012717D01*
X020795Y012756D02*
X020402Y012756D01*
X020047Y012717D02*
X020047Y012087D01*
D22*
X020205Y012303D03*
D23*
X002546Y-000676D03*
X002552Y-000694D03*
X002558Y-000700D03*
X002558Y-000712D03*
X002564Y-000718D03*
X002570Y-000736D03*
X002582Y-000760D03*
X002582Y-000772D03*
X002588Y-000778D03*
X002594Y-000796D03*
X002600Y-000814D03*
X002606Y-000820D03*
X002606Y-000832D03*
X002612Y-000838D03*
X002618Y-000856D03*
X002630Y-000880D03*
X002630Y-000892D03*
X002642Y-000916D03*
X002654Y-000952D03*
X002660Y-000970D03*
X002666Y-000988D03*
X002678Y-001012D03*
X002678Y-001024D03*
X002684Y-001030D03*
X002690Y-001048D03*
X002726Y-001060D03*
X002834Y-001084D03*
X002852Y-001090D03*
X002870Y-001096D03*
X002888Y-001102D03*
X002912Y-001114D03*
X002936Y-001126D03*
X002960Y-001138D03*
X002966Y-001144D03*
X002972Y-001150D03*
X002996Y-001162D03*
X003008Y-001174D03*
X003020Y-001186D03*
X003068Y-001234D03*
X003080Y-001246D03*
X003104Y-001282D03*
X002558Y-001024D03*
X002546Y-001000D03*
X002534Y-000976D03*
X002522Y-000952D03*
X002510Y-000928D03*
X002498Y-000904D03*
X002486Y-000880D03*
X002534Y-001072D03*
X002516Y-001078D03*
X002492Y-001090D03*
X002468Y-001102D03*
X001922Y-001594D03*
X001868Y-001678D03*
X001796Y-002386D03*
X001826Y-002404D03*
X002210Y-002356D03*
X002234Y-002344D03*
X002258Y-002332D03*
X002264Y-002326D03*
X002288Y-002314D03*
X002312Y-002302D03*
X002420Y-002278D03*
X002468Y-002266D03*
X002702Y-002116D03*
X002702Y-002110D03*
X002804Y-002026D03*
X002876Y-001966D03*
X002954Y-001900D03*
X002960Y-001894D03*
X002972Y-001882D03*
X002996Y-001858D03*
X003044Y-001810D03*
X003056Y-001798D03*
X003068Y-001786D03*
X002966Y-002032D03*
X002840Y-002218D03*
X002840Y-002230D03*
X002936Y-002410D03*
X002852Y-002602D03*
X002888Y-002638D03*
X002912Y-002650D03*
X002936Y-002662D03*
X002954Y-002668D03*
X002924Y-002698D03*
X003014Y-002680D03*
X003098Y-002680D03*
X003146Y-002668D03*
X003164Y-002662D03*
X003182Y-002656D03*
X003188Y-002650D03*
X003206Y-002644D03*
X003212Y-002638D03*
X003236Y-002626D03*
X003110Y-002596D03*
X003062Y-002608D03*
X003278Y-002488D03*
X003950Y-002680D03*
X003950Y-002692D03*
X003944Y-002710D03*
X003956Y-002662D03*
X004094Y-002716D03*
X004094Y-002728D03*
X004088Y-002746D03*
X004100Y-002698D03*
X004106Y-002692D03*
X003902Y-002872D03*
X004100Y-002386D03*
X004106Y-002380D03*
X004106Y-002368D03*
X004274Y-002248D03*
X004280Y-002254D03*
X004382Y-001768D03*
X004388Y-001762D03*
X002534Y-000652D03*
X002534Y-000640D03*
X002528Y-000634D03*
X002522Y-000628D03*
X002522Y-000616D03*
X002516Y-000610D03*
X002510Y-000592D03*
X002504Y-000586D03*
X002498Y-000568D03*
X002486Y-000544D03*
X002474Y-000520D03*
X002462Y-000496D03*
X002450Y-000472D03*
X002444Y-000466D03*
X002438Y-000448D03*
X002432Y-000442D03*
X002426Y-000436D03*
X002426Y-000424D03*
X002420Y-000418D03*
X002414Y-000412D03*
X002408Y-000400D03*
X002402Y-000388D03*
X002396Y-000382D03*
X002390Y-000376D03*
X002384Y-000358D03*
X002378Y-000352D03*
X002366Y-000328D03*
X002360Y-000322D03*
X002354Y-000316D03*
X002348Y-000304D03*
X002342Y-000292D03*
X002336Y-000286D03*
X002330Y-000280D03*
X002318Y-000256D03*
X002306Y-000244D03*
X002300Y-000238D03*
X002294Y-000232D03*
X002288Y-000220D03*
X002282Y-000208D03*
X002276Y-000202D03*
X002270Y-000196D03*
X002264Y-000190D03*
X002258Y-000184D03*
X002246Y-000160D03*
X002234Y-000148D03*
X002228Y-000142D03*
X002222Y-000136D03*
X002216Y-000130D03*
X002210Y-000124D03*
X002204Y-000106D03*
X002018Y-000232D03*
X002006Y-000220D03*
X002000Y-000214D03*
X001994Y-000208D03*
X001988Y-000202D03*
X001982Y-000196D03*
X001970Y-000184D03*
X001958Y-000160D03*
X001946Y-000148D03*
X001940Y-000142D03*
X001934Y-000136D03*
X001928Y-000130D03*
X001922Y-000124D03*
X001916Y-000118D03*
X001910Y-000112D03*
X001880Y-000070D03*
X001874Y-000064D03*
X002042Y-000268D03*
X002054Y-000280D03*
X002060Y-000286D03*
X002066Y-000292D03*
X002078Y-000304D03*
X002096Y-000328D03*
X002114Y-000352D03*
X002120Y-000358D03*
X002126Y-000364D03*
X002138Y-000376D03*
X002162Y-000412D03*
X002174Y-000424D03*
X002210Y-000472D03*
X002222Y-000484D03*
X002258Y-000532D03*
X002270Y-000544D03*
X002294Y-000580D03*
X002354Y-000664D03*
X002378Y-000700D03*
X002414Y-003004D03*
X002756Y-003496D03*
X002756Y-003502D03*
X002756Y-003508D03*
X002756Y-003514D03*
X002756Y-003520D03*
X002756Y-003526D03*
X002756Y-003532D03*
X002756Y-003538D03*
X002756Y-003544D03*
X002756Y-003550D03*
X002756Y-003556D03*
X002756Y-003562D03*
X002756Y-003568D03*
X002756Y-003574D03*
X002756Y-003580D03*
X002756Y-003586D03*
X002762Y-003592D03*
X002756Y-003670D03*
X002756Y-003682D03*
X002756Y-003694D03*
X002756Y-003706D03*
X002762Y-003712D03*
X002756Y-003718D03*
X002762Y-003724D03*
X002756Y-003730D03*
X002762Y-003736D03*
X002756Y-003742D03*
X002762Y-003748D03*
X002762Y-003832D03*
X002762Y-003844D03*
X002762Y-003856D03*
X002762Y-003868D03*
X002762Y-003880D03*
X002762Y-003892D03*
X002762Y-003904D03*
X002762Y-003916D03*
X002762Y-004000D03*
X002762Y-004006D03*
X002762Y-004012D03*
X002762Y-004018D03*
X002762Y-004024D03*
X002762Y-004030D03*
X002762Y-004036D03*
X002762Y-004048D03*
X002762Y-004060D03*
X002762Y-004072D03*
X002762Y-004084D03*
X002762Y-004096D03*
X002762Y-004180D03*
X002768Y-004186D03*
X002762Y-004192D03*
X002768Y-004198D03*
X002762Y-004204D03*
X002768Y-004210D03*
X002762Y-004216D03*
X002768Y-004222D03*
X002762Y-004228D03*
X002768Y-004234D03*
X002762Y-004240D03*
X002768Y-004246D03*
X002762Y-004252D03*
X002768Y-004258D03*
X002762Y-004264D03*
X002768Y-004342D03*
X002768Y-004354D03*
X002768Y-004366D03*
X002768Y-004378D03*
X002768Y-004384D03*
X002768Y-004390D03*
X002768Y-004396D03*
X002768Y-004402D03*
X002768Y-004408D03*
X002768Y-004414D03*
X002768Y-004420D03*
X002768Y-004426D03*
X002768Y-004432D03*
X002768Y-004438D03*
X002768Y-004444D03*
X002768Y-004450D03*
X002768Y-004456D03*
X002768Y-004462D03*
X002768Y-004468D03*
X002768Y-004474D03*
X002768Y-004480D03*
X002768Y-004486D03*
X002774Y-004516D03*
X002768Y-004522D03*
X002798Y-004480D03*
X002804Y-004474D03*
X002810Y-004468D03*
X002816Y-004462D03*
X002822Y-004456D03*
X002858Y-004408D03*
X002870Y-004396D03*
X002876Y-004390D03*
X002882Y-004384D03*
X002894Y-004372D03*
X003014Y-004228D03*
X003026Y-004216D03*
X003074Y-004156D03*
X003086Y-004144D03*
X003158Y-004060D03*
X003206Y-004000D03*
X003212Y-003994D03*
X003218Y-003988D03*
X003224Y-003982D03*
X003230Y-003976D03*
X003350Y-003832D03*
X003362Y-003820D03*
X003374Y-003808D03*
X003554Y-003724D03*
X002726Y-003664D03*
D24*
X002756Y-003664D03*
X002762Y-003994D03*
X003026Y-004210D03*
X003038Y-004198D03*
X003050Y-004186D03*
X003056Y-004180D03*
X003074Y-004162D03*
X003014Y-004234D03*
X002930Y-004330D03*
X002918Y-004342D03*
X002912Y-004348D03*
X002906Y-004354D03*
X002858Y-004414D03*
X002846Y-004426D03*
X002840Y-004432D03*
X002834Y-004438D03*
X002780Y-004504D03*
X002774Y-004510D03*
X003170Y-004042D03*
X003176Y-004036D03*
X003182Y-004030D03*
X003188Y-004024D03*
X003194Y-004018D03*
X003242Y-003958D03*
X003314Y-003874D03*
X003320Y-003868D03*
X003326Y-003862D03*
X003374Y-003802D03*
X003386Y-003790D03*
X003710Y-003256D03*
X003710Y-003250D03*
X003704Y-003232D03*
X003770Y-002992D03*
X003902Y-002866D03*
X003902Y-002854D03*
X003902Y-002842D03*
X003908Y-002836D03*
X003908Y-002830D03*
X003908Y-002824D03*
X003914Y-002818D03*
X003914Y-002806D03*
X003920Y-002800D03*
X003950Y-002686D03*
X004094Y-002710D03*
X004094Y-002722D03*
X004088Y-002752D03*
X004076Y-002836D03*
X004070Y-002842D03*
X004070Y-002854D03*
X004064Y-002860D03*
X004064Y-002866D03*
X004064Y-002872D03*
X004058Y-002878D03*
X004058Y-002890D03*
X004058Y-002902D03*
X004052Y-002908D03*
X004106Y-002362D03*
X004112Y-002356D03*
X004106Y-001846D03*
X004382Y-001774D03*
X002960Y-001912D03*
X002954Y-001906D03*
X002876Y-001972D03*
X002840Y-002236D03*
X002822Y-002266D03*
X002840Y-002416D03*
X003056Y-002416D03*
X003038Y-002266D03*
X002978Y-002674D03*
X003122Y-002674D03*
X002396Y-002284D03*
X002198Y-002362D03*
X002162Y-002374D03*
X002156Y-002560D03*
X001886Y-002422D03*
X001838Y-002410D03*
X002186Y-002890D03*
X001922Y-001582D03*
X001928Y-001576D03*
X002558Y-001066D03*
X002570Y-001054D03*
X002576Y-001060D03*
X002564Y-001042D03*
X002564Y-001036D03*
X002558Y-001030D03*
X002558Y-001018D03*
X002552Y-001012D03*
X002546Y-001006D03*
X002546Y-000994D03*
X002540Y-000988D03*
X002534Y-000982D03*
X002534Y-000970D03*
X002528Y-000964D03*
X002522Y-000958D03*
X002522Y-000946D03*
X002516Y-000940D03*
X002510Y-000934D03*
X002510Y-000922D03*
X002504Y-000916D03*
X002498Y-000910D03*
X002498Y-000898D03*
X002492Y-000892D03*
X002486Y-000886D03*
X002486Y-000874D03*
X002480Y-000868D03*
X002474Y-000862D03*
X002468Y-000850D03*
X002462Y-000838D03*
X002456Y-000832D03*
X002450Y-000814D03*
X002444Y-000808D03*
X002438Y-000802D03*
X002432Y-000784D03*
X002426Y-000778D03*
X002414Y-000754D03*
X002408Y-000748D03*
X002402Y-000742D03*
X002396Y-000730D03*
X002390Y-000718D03*
X002384Y-000712D03*
X002378Y-000706D03*
X002366Y-000682D03*
X002360Y-000676D03*
X002354Y-000670D03*
X002342Y-000646D03*
X002336Y-000640D03*
X002330Y-000634D03*
X002324Y-000622D03*
X002318Y-000610D03*
X002312Y-000604D03*
X002306Y-000598D03*
X002294Y-000586D03*
X002282Y-000562D03*
X002276Y-000556D03*
X002270Y-000550D03*
X002246Y-000514D03*
X002240Y-000508D03*
X002234Y-000502D03*
X002210Y-000466D03*
X002204Y-000460D03*
X002198Y-000454D03*
X002150Y-000394D03*
X002138Y-000382D03*
X002090Y-000322D03*
X002030Y-000250D03*
X001970Y-000178D03*
X001958Y-000166D03*
X001898Y-000094D03*
X002246Y-000166D03*
X002258Y-000178D03*
X002318Y-000262D03*
X002342Y-000298D03*
X002390Y-000370D03*
X002426Y-000430D03*
X002438Y-000454D03*
X002522Y-000622D03*
X002534Y-000646D03*
X002558Y-000706D03*
X002582Y-000766D03*
X002606Y-000826D03*
X002618Y-000850D03*
X002618Y-000862D03*
X002630Y-000886D03*
X002636Y-000904D03*
X002642Y-000922D03*
X002666Y-000982D03*
X002678Y-001018D03*
X002684Y-001036D03*
X002690Y-001042D03*
X002810Y-001078D03*
D25*
X002894Y-002008D03*
X002774Y-002104D03*
X002810Y-002152D03*
X002924Y-002218D03*
X002954Y-002464D03*
X002930Y-002704D03*
X003344Y-002470D03*
X003914Y-002776D03*
X003914Y-002782D03*
X003764Y-002986D03*
X004370Y-001780D03*
X002720Y-003994D03*
X002720Y-004342D03*
X002780Y-004492D03*
X002780Y-004498D03*
D26*
X002795Y-004486D03*
X002825Y-004450D03*
X002831Y-004444D03*
X002849Y-004420D03*
X002885Y-004378D03*
X002903Y-004360D03*
X002921Y-004336D03*
X002933Y-004324D03*
X002939Y-004318D03*
X003035Y-004204D03*
X003059Y-004174D03*
X003065Y-004168D03*
X003083Y-004150D03*
X003161Y-004054D03*
X003203Y-004006D03*
X003233Y-003970D03*
X003239Y-003964D03*
X003311Y-003880D03*
X003329Y-003856D03*
X003335Y-003850D03*
X003341Y-003844D03*
X003353Y-003826D03*
X003365Y-003814D03*
X003383Y-003796D03*
X003389Y-003784D03*
X002759Y-003826D03*
X002759Y-003838D03*
X002759Y-003850D03*
X002759Y-003862D03*
X002759Y-003874D03*
X002759Y-003886D03*
X002759Y-003898D03*
X002759Y-003910D03*
X002765Y-004042D03*
X002765Y-004054D03*
X002765Y-004066D03*
X002765Y-004078D03*
X002765Y-004090D03*
X003773Y-002998D03*
X003899Y-002860D03*
X003905Y-002848D03*
X003911Y-002812D03*
X003953Y-002674D03*
X003953Y-002668D03*
X004091Y-002734D03*
X004091Y-002740D03*
X004061Y-002884D03*
X004055Y-002896D03*
X004049Y-002914D03*
X004103Y-002374D03*
X004331Y-001978D03*
X004031Y-001876D03*
X002759Y-002068D03*
X001925Y-001588D03*
X002471Y-000856D03*
X002465Y-000844D03*
X002453Y-000826D03*
X002453Y-000820D03*
X002435Y-000796D03*
X002435Y-000790D03*
X002423Y-000772D03*
X002399Y-000736D03*
X002393Y-000724D03*
X002375Y-000694D03*
X002369Y-000688D03*
X002345Y-000652D03*
X002321Y-000616D03*
X002303Y-000592D03*
X002291Y-000574D03*
X002285Y-000568D03*
X002261Y-000538D03*
X002255Y-000526D03*
X002249Y-000520D03*
X002231Y-000496D03*
X002225Y-000490D03*
X002219Y-000478D03*
X002195Y-000448D03*
X002189Y-000442D03*
X002183Y-000436D03*
X002171Y-000418D03*
X002159Y-000406D03*
X002153Y-000400D03*
X002129Y-000370D03*
X002111Y-000346D03*
X002105Y-000340D03*
X002099Y-000334D03*
X002081Y-000310D03*
X002069Y-000298D03*
X002051Y-000274D03*
X002039Y-000262D03*
X002021Y-000238D03*
X002009Y-000226D03*
X001979Y-000190D03*
X001961Y-000172D03*
X001949Y-000154D03*
X001901Y-000100D03*
X001889Y-000082D03*
X001883Y-000076D03*
X002249Y-000172D03*
X002285Y-000214D03*
X002291Y-000226D03*
X002309Y-000250D03*
X002321Y-000268D03*
X002351Y-000310D03*
X002369Y-000334D03*
X002369Y-000340D03*
X002375Y-000346D03*
X002405Y-000394D03*
X002411Y-000406D03*
X002441Y-000460D03*
X002453Y-000478D03*
X002453Y-000484D03*
X002459Y-000490D03*
X002465Y-000502D03*
X002465Y-000508D03*
X002471Y-000514D03*
X002483Y-000538D03*
X002489Y-000550D03*
X002489Y-000556D03*
X002495Y-000562D03*
X002501Y-000574D03*
X002501Y-000580D03*
X002513Y-000598D03*
X002513Y-000604D03*
X002543Y-000664D03*
X002543Y-000670D03*
X002549Y-000682D03*
X002549Y-000688D03*
X002573Y-000742D03*
X002573Y-000748D03*
X002579Y-000754D03*
X002591Y-000784D03*
X002591Y-000790D03*
X002615Y-000844D03*
X002621Y-000868D03*
X002633Y-000898D03*
X002639Y-000910D03*
X002645Y-000928D03*
X002645Y-000934D03*
X002651Y-000940D03*
X002651Y-000946D03*
X002663Y-000976D03*
X002669Y-000994D03*
X002669Y-001000D03*
X002675Y-001006D03*
D27*
X002657Y-000964D03*
X002657Y-000958D03*
X002627Y-000874D03*
X002597Y-000808D03*
X002597Y-000802D03*
X002567Y-000730D03*
X002567Y-000724D03*
X002537Y-000658D03*
X002477Y-000532D03*
X002477Y-000526D03*
X002327Y-000628D03*
X002417Y-000760D03*
X002417Y-000766D03*
X002567Y-001048D03*
X002387Y-000364D03*
X002327Y-000274D03*
X002237Y-000154D03*
X002207Y-000118D03*
X002027Y-000244D03*
X002087Y-000316D03*
X002147Y-000388D03*
X002177Y-000430D03*
X001907Y-000106D03*
X003947Y-002698D03*
X003947Y-002704D03*
X004097Y-002704D03*
X004067Y-002848D03*
X003707Y-003238D03*
X003707Y-003244D03*
X003347Y-003838D03*
X003197Y-004012D03*
X003167Y-004048D03*
X003047Y-004192D03*
X003017Y-004222D03*
X002897Y-004366D03*
X002867Y-004402D03*
D28*
X002765Y-004372D03*
X002765Y-004360D03*
X002765Y-004348D03*
X002759Y-003700D03*
X002759Y-003688D03*
X002759Y-003676D03*
X003779Y-003004D03*
X003905Y-002884D03*
X003905Y-002878D03*
X003245Y-002620D03*
X002789Y-002038D03*
X002795Y-002032D03*
X002819Y-002014D03*
X002759Y-002062D03*
X002885Y-001960D03*
X002969Y-001888D03*
X003005Y-001852D03*
X003095Y-001750D03*
X003125Y-001330D03*
X003119Y-001306D03*
X003089Y-001258D03*
X003035Y-001198D03*
X001919Y-001600D03*
X001919Y-001606D03*
X001895Y-001642D03*
X001829Y-001738D03*
X001799Y-001798D03*
X001775Y-001846D03*
X001769Y-001858D03*
X001745Y-001918D03*
X001715Y-002062D03*
X001715Y-002122D03*
X001715Y-002134D03*
X001745Y-002290D03*
X001775Y-002362D03*
X001805Y-002392D03*
X002219Y-002350D03*
X001895Y-000088D03*
D29*
X001868Y-000052D03*
X001874Y-000058D03*
X002204Y-000100D03*
X002204Y-000112D03*
X003326Y-000958D03*
X003344Y-000952D03*
X003380Y-000940D03*
X003410Y-000934D03*
X003422Y-000934D03*
X003434Y-000934D03*
X003446Y-000934D03*
X003476Y-000940D03*
X003506Y-000946D03*
X003548Y-000964D03*
X003560Y-000964D03*
X003602Y-000970D03*
X003662Y-000994D03*
X003104Y-001276D03*
X003098Y-001270D03*
X003092Y-001264D03*
X003104Y-001288D03*
X003110Y-001294D03*
X003116Y-001300D03*
X003116Y-001312D03*
X003122Y-001318D03*
X003128Y-001324D03*
X003128Y-001336D03*
X003134Y-001348D03*
X003134Y-001354D03*
X003134Y-001366D03*
X003140Y-001372D03*
X003140Y-001384D03*
X003140Y-001390D03*
X003140Y-001396D03*
X003140Y-001408D03*
X003146Y-001414D03*
X003140Y-001420D03*
X003146Y-001426D03*
X003140Y-001432D03*
X003140Y-001444D03*
X003140Y-001456D03*
X003140Y-001462D03*
X003140Y-001468D03*
X003140Y-001480D03*
X003146Y-001486D03*
X003140Y-001492D03*
X003128Y-001660D03*
X003128Y-001672D03*
X003128Y-001684D03*
X003122Y-001690D03*
X003122Y-001702D03*
X003116Y-001708D03*
X003116Y-001720D03*
X003110Y-001726D03*
X003104Y-001732D03*
X003092Y-001756D03*
X003086Y-001762D03*
X003080Y-001768D03*
X003068Y-001780D03*
X003062Y-001792D03*
X003056Y-001816D03*
X003044Y-001816D03*
X003020Y-001840D03*
X002996Y-001864D03*
X002936Y-001912D03*
X002924Y-001924D03*
X002900Y-001948D03*
X002840Y-001996D03*
X002834Y-002002D03*
X002828Y-002008D03*
X002780Y-002044D03*
X002774Y-002050D03*
X002768Y-002056D03*
X002720Y-002092D03*
X002714Y-002098D03*
X002708Y-002104D03*
X002906Y-002266D03*
X002918Y-002266D03*
X002930Y-002266D03*
X002972Y-002152D03*
X002954Y-002410D03*
X002918Y-002410D03*
X002942Y-002458D03*
X002954Y-002458D03*
X002966Y-002458D03*
X003050Y-002410D03*
X003062Y-002410D03*
X003134Y-002590D03*
X003080Y-002608D03*
X003062Y-002614D03*
X003008Y-002620D03*
X002996Y-002620D03*
X002984Y-002620D03*
X002954Y-002662D03*
X002924Y-002656D03*
X002930Y-002614D03*
X002882Y-002602D03*
X002864Y-002620D03*
X002870Y-002626D03*
X002876Y-002632D03*
X002852Y-002608D03*
X002846Y-002596D03*
X002840Y-002584D03*
X002942Y-002698D03*
X002960Y-002704D03*
X002996Y-002680D03*
X003002Y-002674D03*
X003026Y-002686D03*
X003032Y-002680D03*
X003038Y-002686D03*
X003044Y-002680D03*
X003050Y-002686D03*
X003056Y-002680D03*
X003062Y-002686D03*
X003068Y-002680D03*
X003074Y-002686D03*
X003080Y-002680D03*
X003086Y-002686D03*
X003086Y-002698D03*
X003098Y-002698D03*
X003074Y-002698D03*
X003062Y-002698D03*
X003050Y-002698D03*
X003038Y-002698D03*
X003038Y-002710D03*
X003008Y-002716D03*
X003074Y-002734D03*
X003122Y-002746D03*
X003140Y-002752D03*
X003152Y-002740D03*
X003170Y-002746D03*
X003218Y-002758D03*
X003254Y-002770D03*
X003296Y-002800D03*
X003308Y-002788D03*
X003422Y-002830D03*
X003464Y-002860D03*
X003476Y-002848D03*
X003482Y-002866D03*
X003518Y-002878D03*
X003560Y-002896D03*
X003782Y-003010D03*
X003902Y-002890D03*
X004040Y-002920D03*
X004112Y-002686D03*
X003950Y-002650D03*
X004010Y-002470D03*
X004022Y-002470D03*
X004034Y-002470D03*
X004046Y-002470D03*
X004058Y-002470D03*
X004070Y-002470D03*
X004094Y-002398D03*
X004100Y-002392D03*
X004130Y-002410D03*
X004076Y-002296D03*
X004046Y-002302D03*
X004004Y-002308D03*
X003986Y-002314D03*
X003974Y-002314D03*
X003992Y-002380D03*
X003950Y-002242D03*
X003986Y-002230D03*
X004070Y-002194D03*
X004118Y-002062D03*
X004100Y-001924D03*
X004052Y-001876D03*
X004034Y-001870D03*
X004034Y-001798D03*
X004046Y-001798D03*
X004058Y-001798D03*
X004052Y-001780D03*
X004040Y-001780D03*
X004028Y-001780D03*
X004034Y-001750D03*
X004022Y-001750D03*
X004064Y-001744D03*
X004076Y-001744D03*
X004094Y-001774D03*
X004106Y-001774D03*
X004112Y-001792D03*
X004100Y-001792D03*
X004088Y-001792D03*
X004178Y-001798D03*
X004190Y-001798D03*
X004202Y-001798D03*
X004202Y-001786D03*
X004190Y-001786D03*
X004196Y-001768D03*
X004184Y-001768D03*
X004232Y-001780D03*
X004244Y-001780D03*
X004256Y-001780D03*
X004268Y-001780D03*
X004268Y-001792D03*
X004280Y-001792D03*
X004280Y-001780D03*
X004292Y-001780D03*
X004304Y-001792D03*
X004316Y-001792D03*
X004322Y-001774D03*
X004394Y-001756D03*
X004274Y-001690D03*
X004244Y-001684D03*
X004268Y-001540D03*
X004280Y-001540D03*
X004310Y-001450D03*
X004238Y-001450D03*
X004220Y-001456D03*
X004154Y-001462D03*
X004142Y-001462D03*
X004130Y-001462D03*
X004136Y-001480D03*
X004148Y-001480D03*
X004124Y-001480D03*
X004124Y-001492D03*
X004112Y-001492D03*
X004100Y-001492D03*
X004082Y-001486D03*
X004070Y-001486D03*
X004058Y-001486D03*
X004064Y-001468D03*
X004076Y-001468D03*
X004088Y-001468D03*
X004052Y-001468D03*
X004022Y-001498D03*
X004010Y-001498D03*
X003998Y-001498D03*
X003968Y-001492D03*
X003956Y-001492D03*
X003956Y-001504D03*
X003944Y-001504D03*
X003932Y-001504D03*
X003944Y-001492D03*
X003950Y-001474D03*
X003962Y-001474D03*
X003974Y-001474D03*
X003938Y-001474D03*
X003896Y-001480D03*
X003884Y-001480D03*
X003872Y-001480D03*
X003878Y-001498D03*
X003890Y-001498D03*
X003902Y-001498D03*
X003854Y-001510D03*
X003842Y-001510D03*
X003830Y-001510D03*
X003788Y-001516D03*
X003776Y-001516D03*
X003764Y-001516D03*
X003764Y-001504D03*
X003776Y-001504D03*
X003788Y-001504D03*
X003782Y-001486D03*
X003770Y-001486D03*
X003758Y-001486D03*
X003752Y-001504D03*
X003722Y-001510D03*
X003710Y-001510D03*
X003806Y-001606D03*
X003818Y-001606D03*
X003824Y-001624D03*
X003836Y-001624D03*
X003860Y-001600D03*
X003872Y-001600D03*
X003878Y-001618D03*
X003890Y-001618D03*
X003938Y-001594D03*
X003950Y-001594D03*
X003956Y-001612D03*
X003968Y-001612D03*
X003992Y-001588D03*
X004004Y-001588D03*
X004010Y-001606D03*
X004022Y-001606D03*
X004058Y-001582D03*
X004070Y-001582D03*
X004100Y-001600D03*
X003956Y-001756D03*
X003944Y-001756D03*
X003950Y-001786D03*
X003962Y-001786D03*
X003968Y-001804D03*
X003956Y-001804D03*
X003944Y-001804D03*
X003938Y-001786D03*
X003908Y-001792D03*
X003896Y-001792D03*
X003884Y-001792D03*
X003890Y-001810D03*
X003902Y-001810D03*
X003902Y-001762D03*
X003890Y-001762D03*
X003644Y-002068D03*
X003614Y-002074D03*
X003602Y-002074D03*
X003560Y-002080D03*
X003542Y-002086D03*
X003512Y-002092D03*
X003452Y-002104D03*
X003434Y-002110D03*
X003404Y-002116D03*
X003386Y-002122D03*
X003356Y-002476D03*
X003350Y-002494D03*
X003344Y-002500D03*
X003338Y-002518D03*
X003332Y-002524D03*
X003326Y-002530D03*
X003320Y-002536D03*
X003320Y-002548D03*
X003308Y-002560D03*
X003302Y-002566D03*
X003296Y-002572D03*
X003290Y-002578D03*
X003284Y-002584D03*
X003278Y-002590D03*
X003272Y-002596D03*
X003266Y-002602D03*
X003260Y-002608D03*
X003224Y-002632D03*
X003176Y-002680D03*
X003158Y-002686D03*
X003146Y-002674D03*
X003140Y-002692D03*
X003098Y-002674D03*
X003248Y-002500D03*
X003260Y-002488D03*
X003278Y-002494D03*
X003368Y-002512D03*
X003380Y-002512D03*
X003392Y-002512D03*
X003404Y-002512D03*
X003458Y-002518D03*
X003476Y-002524D03*
X003506Y-002530D03*
X003878Y-002254D03*
X004256Y-002248D03*
X003332Y-003076D03*
X003152Y-003004D03*
X003122Y-002998D03*
X003074Y-002986D03*
X002930Y-002950D03*
X002882Y-002938D03*
X002954Y-003214D03*
X002972Y-003220D03*
X003002Y-003226D03*
X003104Y-003256D03*
X002978Y-003562D03*
X002984Y-003580D03*
X002996Y-003580D03*
X003008Y-003580D03*
X002972Y-003652D03*
X002960Y-003652D03*
X002948Y-003652D03*
X002906Y-003658D03*
X002894Y-003658D03*
X002882Y-003658D03*
X002870Y-003658D03*
X002870Y-003586D03*
X002882Y-003586D03*
X002858Y-003586D03*
X002846Y-003586D03*
X002804Y-003592D03*
X002792Y-003592D03*
X002780Y-003592D03*
X002876Y-003520D03*
X002918Y-003538D03*
X002936Y-003544D03*
X003074Y-003646D03*
X003086Y-003646D03*
X003098Y-003646D03*
X003110Y-003646D03*
X003152Y-003640D03*
X003164Y-003640D03*
X003176Y-003640D03*
X003224Y-003724D03*
X003236Y-003724D03*
X003248Y-003724D03*
X003260Y-003724D03*
X003302Y-003718D03*
X003314Y-003718D03*
X003326Y-003718D03*
X003338Y-003718D03*
X003344Y-003784D03*
X003356Y-003784D03*
X003368Y-003784D03*
X003302Y-003790D03*
X003290Y-003790D03*
X003278Y-003790D03*
X003188Y-003796D03*
X003176Y-003796D03*
X003164Y-003796D03*
X003122Y-003802D03*
X003110Y-003802D03*
X003098Y-003802D03*
X003098Y-003730D03*
X003110Y-003730D03*
X003122Y-003730D03*
X003134Y-003730D03*
X003056Y-003736D03*
X003044Y-003736D03*
X003032Y-003736D03*
X003008Y-003808D03*
X002996Y-003808D03*
X002984Y-003808D03*
X002942Y-003814D03*
X002930Y-003814D03*
X002918Y-003814D03*
X002918Y-003742D03*
X002930Y-003742D03*
X002942Y-003742D03*
X002906Y-003742D03*
X002864Y-003748D03*
X002852Y-003748D03*
X002840Y-003748D03*
X002828Y-003748D03*
X002828Y-003820D03*
X002816Y-003820D03*
X002804Y-003820D03*
X002738Y-003826D03*
X002738Y-003754D03*
X002726Y-003754D03*
X002714Y-003754D03*
X002702Y-003754D03*
X002726Y-003922D03*
X002738Y-003922D03*
X002816Y-003988D03*
X002828Y-003988D03*
X002840Y-003916D03*
X002852Y-003916D03*
X002864Y-003916D03*
X002906Y-003910D03*
X002918Y-003910D03*
X002930Y-003910D03*
X002930Y-003982D03*
X002918Y-003982D03*
X002906Y-003982D03*
X002972Y-003976D03*
X002984Y-003976D03*
X003008Y-003904D03*
X003020Y-003904D03*
X003032Y-003904D03*
X003074Y-003898D03*
X003086Y-003898D03*
X003098Y-003898D03*
X003128Y-003964D03*
X003140Y-003964D03*
X003152Y-003964D03*
X003218Y-003958D03*
X003272Y-003952D03*
X003284Y-003952D03*
X003296Y-003952D03*
X003266Y-003886D03*
X003254Y-003886D03*
X003242Y-003886D03*
X003200Y-003892D03*
X003188Y-003892D03*
X003176Y-003892D03*
X003086Y-003970D03*
X003074Y-003970D03*
X003062Y-003970D03*
X003080Y-004072D03*
X003092Y-004072D03*
X003104Y-004072D03*
X003122Y-004138D03*
X003134Y-004138D03*
X003164Y-004132D03*
X003176Y-004132D03*
X003224Y-004060D03*
X003056Y-004144D03*
X003044Y-004144D03*
X003014Y-004150D03*
X003002Y-004150D03*
X002936Y-004156D03*
X002924Y-004156D03*
X002894Y-004162D03*
X002882Y-004162D03*
X002816Y-004168D03*
X002804Y-004168D03*
X002828Y-004096D03*
X002840Y-004096D03*
X002870Y-004090D03*
X002882Y-004090D03*
X002948Y-004084D03*
X002960Y-004084D03*
X002972Y-004084D03*
X003002Y-004078D03*
X003014Y-004078D03*
X003080Y-004228D03*
X003044Y-004300D03*
X003014Y-004306D03*
X002984Y-004240D03*
X002930Y-004246D03*
X002888Y-004252D03*
X002834Y-004258D03*
X002822Y-004258D03*
X002804Y-004264D03*
X002792Y-004264D03*
X002738Y-004270D03*
X002708Y-004276D03*
X002750Y-004342D03*
X002834Y-004330D03*
X002846Y-004330D03*
X002864Y-004324D03*
X002876Y-004324D03*
X002738Y-004102D03*
X002696Y-004108D03*
X003344Y-003880D03*
X003356Y-003880D03*
X003368Y-003880D03*
X003488Y-003724D03*
X003500Y-003724D03*
X003512Y-003724D03*
X003524Y-003724D03*
X003536Y-003724D03*
X003656Y-003520D03*
X002552Y-002824D03*
X002558Y-002770D03*
X002570Y-002770D03*
X002546Y-002770D03*
X002534Y-002770D03*
X002522Y-002770D03*
X002510Y-002770D03*
X002498Y-002770D03*
X002486Y-002770D03*
X002474Y-002770D03*
X002462Y-002770D03*
X002450Y-002770D03*
X002432Y-002776D03*
X002438Y-002746D03*
X002450Y-002746D03*
X002462Y-002746D03*
X002474Y-002746D03*
X002486Y-002746D03*
X002498Y-002746D03*
X002510Y-002746D03*
X002522Y-002746D03*
X002426Y-002746D03*
X002414Y-002746D03*
X002402Y-002746D03*
X002390Y-002746D03*
X002402Y-002830D03*
X002354Y-002914D03*
X002342Y-002914D03*
X002330Y-002914D03*
X002372Y-003004D03*
X002384Y-003004D03*
X002396Y-003004D03*
X002192Y-002896D03*
X002180Y-002896D03*
X002162Y-002890D03*
X002072Y-002872D03*
X002042Y-002878D03*
X002030Y-002878D03*
X002018Y-002878D03*
X002006Y-002878D03*
X001994Y-002878D03*
X001928Y-002812D03*
X002132Y-002560D03*
X002252Y-002512D03*
X002258Y-002506D03*
X002276Y-002500D03*
X002288Y-002500D03*
X002300Y-002500D03*
X002312Y-002500D03*
X002324Y-002500D03*
X002336Y-002500D03*
X002348Y-002500D03*
X002360Y-002500D03*
X002372Y-002500D03*
X002384Y-002500D03*
X002396Y-002500D03*
X002408Y-002500D03*
X002390Y-002290D03*
X002378Y-002290D03*
X002372Y-002284D03*
X002402Y-002278D03*
X002438Y-002278D03*
X002444Y-002272D03*
X002450Y-002266D03*
X002456Y-002272D03*
X002468Y-002260D03*
X002324Y-002296D03*
X002312Y-002296D03*
X002300Y-002308D03*
X002276Y-002320D03*
X002192Y-002368D03*
X002180Y-002368D03*
X002138Y-002374D03*
X002120Y-002380D03*
X002090Y-002386D03*
X002072Y-002392D03*
X001976Y-002428D03*
X001970Y-002422D03*
X001964Y-002428D03*
X001958Y-002422D03*
X001952Y-002428D03*
X001946Y-002422D03*
X001940Y-002428D03*
X001934Y-002422D03*
X001928Y-002428D03*
X001922Y-002422D03*
X001916Y-002428D03*
X001910Y-002422D03*
X001904Y-002428D03*
X001868Y-002416D03*
X001862Y-002422D03*
X001856Y-002416D03*
X001844Y-002416D03*
X001814Y-002398D03*
X001772Y-002356D03*
X001766Y-002350D03*
X001760Y-002344D03*
X001760Y-002332D03*
X001754Y-002326D03*
X001754Y-002320D03*
X001754Y-002314D03*
X001748Y-002308D03*
X001748Y-002302D03*
X001748Y-002296D03*
X001748Y-002284D03*
X001742Y-002278D03*
X001742Y-002272D03*
X001742Y-002266D03*
X001742Y-002254D03*
X001736Y-002248D03*
X001736Y-002236D03*
X001730Y-002230D03*
X001724Y-002224D03*
X001724Y-002212D03*
X001724Y-002200D03*
X001718Y-002194D03*
X001718Y-002182D03*
X001718Y-002176D03*
X001718Y-002170D03*
X001718Y-002158D03*
X001712Y-002152D03*
X001718Y-002146D03*
X001712Y-002140D03*
X001712Y-002128D03*
X001712Y-002116D03*
X001712Y-002110D03*
X001712Y-002104D03*
X001712Y-002098D03*
X001712Y-002092D03*
X001712Y-002086D03*
X001712Y-002080D03*
X001712Y-002074D03*
X001712Y-002068D03*
X001712Y-002056D03*
X001718Y-002050D03*
X001712Y-002044D03*
X001718Y-002038D03*
X001718Y-002032D03*
X001718Y-002026D03*
X001718Y-002020D03*
X001718Y-002014D03*
X001724Y-002008D03*
X001724Y-001996D03*
X001724Y-001984D03*
X001730Y-001978D03*
X001730Y-001972D03*
X001730Y-001966D03*
X001736Y-001960D03*
X001736Y-001948D03*
X001742Y-001942D03*
X001742Y-001930D03*
X001748Y-001924D03*
X001748Y-001912D03*
X001754Y-001906D03*
X001754Y-001900D03*
X001754Y-001894D03*
X001760Y-001888D03*
X001760Y-001876D03*
X001766Y-001870D03*
X001772Y-001852D03*
X001778Y-001840D03*
X001778Y-001834D03*
X001784Y-001828D03*
X001790Y-001810D03*
X001796Y-001804D03*
X001802Y-001786D03*
X001808Y-001780D03*
X001814Y-001768D03*
X001820Y-001756D03*
X001826Y-001750D03*
X001832Y-001732D03*
X001838Y-001726D03*
X001844Y-001720D03*
X001850Y-001708D03*
X001850Y-001702D03*
X001856Y-001696D03*
X001862Y-001690D03*
X001868Y-001684D03*
X001874Y-001666D03*
X001880Y-001660D03*
X001886Y-001654D03*
X001892Y-001648D03*
X001892Y-001636D03*
X001904Y-001624D03*
X001910Y-001618D03*
X001916Y-001612D03*
X002264Y-001768D03*
X002270Y-001774D03*
X002360Y-001804D03*
X002432Y-001804D03*
X002462Y-001798D03*
X002480Y-001792D03*
X002534Y-001774D03*
X002588Y-001168D03*
X002618Y-001162D03*
X002630Y-001162D03*
X002642Y-001162D03*
X002654Y-001162D03*
X002666Y-001162D03*
X002684Y-001168D03*
X002708Y-001060D03*
X002714Y-001054D03*
X002780Y-001072D03*
X002786Y-001066D03*
X002792Y-001072D03*
X002804Y-001072D03*
X002834Y-001078D03*
X002870Y-001090D03*
X002900Y-001108D03*
X002924Y-001120D03*
X002948Y-001132D03*
X002984Y-001156D03*
X002996Y-001168D03*
X003032Y-001192D03*
X003044Y-001204D03*
X003056Y-001216D03*
X003062Y-001222D03*
X003068Y-001228D03*
X002504Y-001084D03*
X002480Y-001096D03*
X002456Y-001108D03*
X002396Y-001096D03*
X002360Y-001084D03*
X002330Y-001078D03*
X002258Y-001078D03*
X002240Y-001084D03*
X002834Y-002410D03*
X002264Y-002812D03*
D30*
X002324Y-002788D03*
X002330Y-002782D03*
X002330Y-002770D03*
X002330Y-002758D03*
X002330Y-002746D03*
X002024Y-002872D03*
X002120Y-002392D03*
X002696Y-002140D03*
X002846Y-002182D03*
X002924Y-002152D03*
X002948Y-002092D03*
X002954Y-001930D03*
X002918Y-002278D03*
X002954Y-002482D03*
X002984Y-002980D03*
X002984Y-002992D03*
X002978Y-002998D03*
X002972Y-003004D03*
X002972Y-003016D03*
X002972Y-003028D03*
X002966Y-003034D03*
X002966Y-003046D03*
X002960Y-003052D03*
X002954Y-003070D03*
X002954Y-003082D03*
X002948Y-003088D03*
X002948Y-003100D03*
X002942Y-003106D03*
X002942Y-003118D03*
X002936Y-003124D03*
X002936Y-003130D03*
X002930Y-003142D03*
X002930Y-003154D03*
X002924Y-003160D03*
X002924Y-003166D03*
X002918Y-003178D03*
X002750Y-003154D03*
X002744Y-003160D03*
X002768Y-003064D03*
X002780Y-003028D03*
X003686Y-003214D03*
X003722Y-003298D03*
X003716Y-003304D03*
X003710Y-003322D03*
X003746Y-002962D03*
X003752Y-002956D03*
X003914Y-002734D03*
X003914Y-002722D03*
X004106Y-002788D03*
X004106Y-002794D03*
X004148Y-002752D03*
X004172Y-002728D03*
X004184Y-002716D03*
X004190Y-002710D03*
X004196Y-002704D03*
X004256Y-002644D03*
X004262Y-002638D03*
X004268Y-002620D03*
X004268Y-002608D03*
X004274Y-002602D03*
X004274Y-002590D03*
X004274Y-002578D03*
X004280Y-002572D03*
X004280Y-002566D03*
X004280Y-002560D03*
X003854Y-002482D03*
X003848Y-002500D03*
X003848Y-002506D03*
X003848Y-002512D03*
X003842Y-002518D03*
X003842Y-002530D03*
X004016Y-002032D03*
X004010Y-001978D03*
X004010Y-001966D03*
X002636Y-001168D03*
X001940Y-001528D03*
X001934Y-001546D03*
X003428Y-000940D03*
X002738Y-004174D03*
X002744Y-004336D03*
D31*
X002762Y-004330D03*
X003674Y-003190D03*
X003728Y-002920D03*
X004268Y-002536D03*
X004298Y-002374D03*
X004292Y-002368D03*
X004286Y-002362D03*
X004250Y-002338D03*
X004238Y-002326D03*
X004232Y-002320D03*
X004226Y-002314D03*
X004046Y-002062D03*
X004250Y-001990D03*
X004250Y-001984D03*
X004250Y-001978D03*
X004268Y-001768D03*
X004364Y-001684D03*
X004370Y-001678D03*
X003902Y-002374D03*
X003020Y-002044D03*
X003014Y-002038D03*
X002942Y-002110D03*
X002924Y-002308D03*
X002930Y-002374D03*
X002690Y-002164D03*
X002390Y-001798D03*
X001958Y-001486D03*
X001952Y-001492D03*
X002096Y-002404D03*
X002318Y-002710D03*
X002474Y-002830D03*
X002462Y-002854D03*
X002438Y-002890D03*
D32*
X002462Y-002734D03*
X002468Y-002668D03*
X002462Y-002662D03*
X002456Y-002656D03*
X002450Y-002650D03*
X002438Y-002626D03*
X002432Y-002620D03*
X002804Y-002452D03*
X002834Y-002482D03*
X002930Y-002362D03*
X002930Y-002350D03*
X002930Y-002338D03*
X002690Y-002170D03*
X002684Y-002176D03*
X002396Y-001792D03*
X001964Y-001456D03*
X002642Y-001174D03*
X002078Y-002410D03*
X002012Y-002680D03*
X002036Y-002860D03*
X002954Y-002722D03*
X003422Y-002530D03*
X003920Y-002308D03*
X004220Y-002056D03*
X004226Y-002050D03*
X004274Y-001762D03*
X004256Y-002524D03*
X003662Y-003178D03*
X002780Y-004324D03*
D33*
X002810Y-004318D03*
X002330Y-002974D03*
X002240Y-002620D03*
X002330Y-002530D03*
X002984Y-002596D03*
X003674Y-002878D03*
X004190Y-002194D03*
X004244Y-001924D03*
X004274Y-001738D03*
X004274Y-001486D03*
X002150Y-001246D03*
X002144Y-001252D03*
X002120Y-001276D03*
X002114Y-001282D03*
D34*
X002252Y-001162D03*
X002258Y-001156D03*
X002264Y-001150D03*
X002270Y-001144D03*
X002636Y-001198D03*
X003920Y-001486D03*
X004226Y-001468D03*
X004262Y-001492D03*
X004274Y-001720D03*
X004142Y-002068D03*
X004136Y-002122D03*
X004142Y-002128D03*
X004136Y-002140D03*
X004136Y-002146D03*
X004130Y-002152D03*
X004088Y-002242D03*
X003458Y-002572D03*
X003656Y-002866D03*
X002984Y-002746D03*
X002684Y-002314D03*
X002342Y-002572D03*
X002078Y-002596D03*
X002078Y-002608D03*
X002348Y-002920D03*
X002348Y-002926D03*
X002822Y-003196D03*
X002828Y-003190D03*
X002816Y-003214D03*
X003446Y-003688D03*
X002834Y-004312D03*
D35*
X002852Y-004306D03*
X003596Y-003154D03*
X003602Y-003124D03*
X003464Y-002590D03*
X003230Y-002416D03*
X003236Y-002404D03*
X003242Y-002392D03*
X003008Y-002758D03*
X002648Y-002266D03*
X002408Y-001762D03*
X002630Y-001216D03*
X003458Y-000976D03*
X004220Y-001870D03*
X004214Y-001876D03*
X003986Y-002416D03*
X002060Y-002794D03*
X002048Y-002770D03*
X002048Y-002758D03*
X002042Y-002752D03*
X002048Y-002746D03*
D36*
X002846Y-003232D03*
X003308Y-003730D03*
X003596Y-003118D03*
X003590Y-003112D03*
X003242Y-002368D03*
X003230Y-002308D03*
X003236Y-002302D03*
X002630Y-001228D03*
X002870Y-004300D03*
D37*
X002876Y-004294D03*
X002876Y-004282D03*
X003026Y-004096D03*
X002876Y-003970D03*
X003584Y-003106D03*
X002996Y-002566D03*
X003200Y-002446D03*
X003200Y-002434D03*
X003236Y-002338D03*
X003230Y-002332D03*
X003236Y-002326D03*
X003194Y-002260D03*
X002414Y-001744D03*
X004184Y-001894D03*
X004190Y-001888D03*
X004184Y-001918D03*
D38*
X004058Y-002254D03*
X003998Y-002422D03*
X003602Y-002830D03*
X002996Y-002572D03*
X002672Y-002248D03*
X002678Y-002242D03*
X002066Y-002710D03*
X002888Y-004276D03*
X002876Y-004288D03*
X003458Y-000982D03*
D39*
X002408Y-001756D03*
X003218Y-002266D03*
X003224Y-002272D03*
X003230Y-002284D03*
X003230Y-002290D03*
X003236Y-002296D03*
X003242Y-002386D03*
X003230Y-002410D03*
X003464Y-002596D03*
X003614Y-002842D03*
X003422Y-003670D03*
X003200Y-003904D03*
X002906Y-004270D03*
X002054Y-002722D03*
X002060Y-002716D03*
X004154Y-002170D03*
D40*
X004139Y-002116D03*
X004139Y-002110D03*
X003455Y-002566D03*
X002675Y-002224D03*
X002345Y-002932D03*
X002819Y-003202D03*
X002819Y-003208D03*
X003449Y-003694D03*
X002939Y-004264D03*
X002219Y-001186D03*
D41*
X002171Y-001228D03*
X002633Y-001192D03*
X003257Y-001576D03*
X004259Y-001846D03*
X004259Y-001852D03*
X004265Y-001834D03*
X004265Y-001828D03*
X004271Y-001810D03*
X004271Y-001804D03*
X002333Y-002542D03*
X002333Y-002548D03*
X002339Y-002956D03*
X002957Y-004258D03*
D42*
X002984Y-004252D03*
X002786Y-004162D03*
X002486Y-002818D03*
X002486Y-002812D03*
X002486Y-002806D03*
X002486Y-002800D03*
X002486Y-002794D03*
X002486Y-002788D03*
X002486Y-002674D03*
X002234Y-002854D03*
X002234Y-002878D03*
X002036Y-002620D03*
X002066Y-002422D03*
X002714Y-002374D03*
X002774Y-002422D03*
X002780Y-002428D03*
X002786Y-002434D03*
X002684Y-002188D03*
X002960Y-002728D03*
X004178Y-002296D03*
X004244Y-002512D03*
X004250Y-002518D03*
X004298Y-001798D03*
X002636Y-001180D03*
X002300Y-001096D03*
X001994Y-001414D03*
X001988Y-001420D03*
D43*
X001964Y-001474D03*
X001958Y-001480D03*
X002738Y-002404D03*
X002744Y-002410D03*
X002750Y-002416D03*
X002810Y-002464D03*
X002816Y-002470D03*
X002822Y-002476D03*
X002930Y-002368D03*
X002930Y-002356D03*
X002924Y-002314D03*
X002978Y-002608D03*
X002450Y-002644D03*
X002438Y-002632D03*
X002036Y-002866D03*
X002768Y-003178D03*
X003716Y-002914D03*
X004244Y-002032D03*
X004244Y-002026D03*
X004250Y-002020D03*
X004250Y-002014D03*
X004250Y-002008D03*
X004196Y-001690D03*
X004352Y-001690D03*
X003428Y-000946D03*
X003008Y-004246D03*
D44*
X003035Y-004240D03*
X002969Y-003022D03*
X002975Y-003010D03*
X002981Y-002986D03*
X002813Y-002932D03*
X002801Y-002956D03*
X002801Y-002968D03*
X002795Y-002974D03*
X002795Y-002980D03*
X002789Y-002992D03*
X002783Y-003010D03*
X002783Y-003016D03*
X002771Y-003046D03*
X002939Y-002710D03*
X002951Y-002086D03*
X002999Y-001996D03*
X003893Y-002326D03*
X004013Y-002026D03*
X004019Y-001948D03*
X004043Y-001930D03*
X004049Y-001924D03*
X004223Y-002680D03*
X004211Y-002692D03*
X004175Y-002722D03*
X004163Y-002734D03*
X003911Y-002716D03*
D45*
X003917Y-002764D03*
X004115Y-002332D03*
X003713Y-003262D03*
X003713Y-003268D03*
X003059Y-004234D03*
X002819Y-002164D03*
X002801Y-002140D03*
X002765Y-002092D03*
X002903Y-002014D03*
X002915Y-002032D03*
D46*
X002948Y-002098D03*
X003026Y-002032D03*
X003014Y-002020D03*
X003008Y-002008D03*
X002996Y-001990D03*
X002990Y-001984D03*
X002984Y-001978D03*
X002978Y-001972D03*
X002972Y-001966D03*
X002966Y-001960D03*
X002960Y-001948D03*
X002954Y-001936D03*
X002696Y-002146D03*
X002918Y-002284D03*
X002936Y-002398D03*
X003404Y-002518D03*
X003890Y-002368D03*
X003890Y-002356D03*
X003890Y-002344D03*
X003890Y-002338D03*
X003890Y-002332D03*
X003890Y-002320D03*
X004022Y-002044D03*
X004016Y-002038D03*
X004010Y-001960D03*
X004016Y-001954D03*
X004154Y-001636D03*
X004154Y-001600D03*
X004154Y-001594D03*
X004154Y-001588D03*
X004274Y-001456D03*
X004394Y-001600D03*
X004394Y-001612D03*
X004394Y-001624D03*
X004322Y-002404D03*
X004274Y-002548D03*
X004280Y-002554D03*
X004256Y-002650D03*
X004250Y-002656D03*
X004244Y-002662D03*
X004238Y-002668D03*
X004232Y-002674D03*
X004220Y-002686D03*
X004208Y-002698D03*
X004148Y-002746D03*
X004118Y-002776D03*
X004112Y-002782D03*
X003740Y-002950D03*
X003686Y-003208D03*
X002804Y-002962D03*
X002804Y-002950D03*
X002792Y-002986D03*
X002792Y-002998D03*
X002786Y-003004D03*
X002780Y-003022D03*
X002780Y-003034D03*
X002774Y-003040D03*
X002774Y-003052D03*
X002768Y-003058D03*
X002768Y-003070D03*
X002762Y-003076D03*
X002762Y-003082D03*
X002762Y-003088D03*
X002756Y-003094D03*
X002756Y-003100D03*
X002756Y-003106D03*
X002750Y-003112D03*
X002750Y-003118D03*
X002750Y-003124D03*
X002744Y-003130D03*
X002744Y-003136D03*
X002744Y-003142D03*
X002738Y-003148D03*
X002330Y-002800D03*
X002324Y-002794D03*
X002330Y-002740D03*
X001940Y-001522D03*
X002750Y-004168D03*
D47*
X002807Y-004156D03*
X002801Y-003814D03*
X002333Y-002536D03*
X002711Y-002350D03*
X002681Y-002206D03*
X002075Y-001318D03*
X002087Y-001306D03*
X002093Y-001300D03*
X002099Y-001294D03*
X002105Y-001288D03*
X003959Y-002296D03*
D48*
X003974Y-002410D03*
X004160Y-002176D03*
X004148Y-002164D03*
X004046Y-001618D03*
X003146Y-002482D03*
X002996Y-002584D03*
X002648Y-002272D03*
X002048Y-002776D03*
X002060Y-002800D03*
X002066Y-002806D03*
X003464Y-002584D03*
X003428Y-003676D03*
X002846Y-004150D03*
D49*
X002867Y-004144D03*
X002993Y-002578D03*
X003467Y-002602D03*
X002405Y-001750D03*
D50*
X002420Y-001720D03*
X002624Y-001264D03*
X003470Y-001006D03*
X003218Y-002110D03*
X003170Y-002122D03*
X003056Y-002788D03*
X002156Y-002836D03*
X002150Y-002842D03*
X002906Y-004138D03*
X004028Y-002440D03*
X004058Y-002290D03*
D51*
X002975Y-004102D03*
X002927Y-004132D03*
D52*
X002942Y-004126D03*
X003080Y-002812D03*
X003452Y-002668D03*
X003014Y-002494D03*
X003008Y-002488D03*
X003122Y-002170D03*
X003116Y-002164D03*
X003122Y-002158D03*
X002444Y-001672D03*
X002438Y-001678D03*
X002612Y-001312D03*
X003470Y-001042D03*
X003476Y-001048D03*
D53*
X003476Y-001054D03*
X002606Y-001324D03*
X002450Y-001660D03*
X003254Y-002092D03*
X002948Y-004114D03*
X002942Y-004120D03*
D54*
X002951Y-004108D03*
D55*
X003053Y-004090D03*
X003419Y-003664D03*
X003611Y-002836D03*
X003245Y-002374D03*
X002633Y-001222D03*
D56*
X002306Y-001108D03*
X002210Y-001192D03*
X002204Y-001198D03*
X002198Y-001204D03*
X002186Y-001216D03*
X003254Y-001624D03*
X002678Y-002212D03*
X002336Y-002554D03*
X002228Y-002674D03*
X002078Y-002572D03*
X002336Y-002962D03*
X002978Y-002740D03*
X004094Y-002236D03*
X004184Y-002206D03*
X004256Y-001858D03*
X004268Y-001822D03*
X004274Y-001732D03*
X003458Y-003700D03*
X003098Y-004084D03*
D57*
X003122Y-004078D03*
X002798Y-003982D03*
X003686Y-002890D03*
X002966Y-002734D03*
X002714Y-002362D03*
X002684Y-002200D03*
X002246Y-002638D03*
X002246Y-002644D03*
X002246Y-002650D03*
X002246Y-002662D03*
X002240Y-002668D03*
X002018Y-001378D03*
X002024Y-001372D03*
X002030Y-001366D03*
X002036Y-001360D03*
X002048Y-001348D03*
X002060Y-001336D03*
X003434Y-000958D03*
X004214Y-001774D03*
X004274Y-001750D03*
X004256Y-001936D03*
D58*
X004034Y-002056D03*
X003908Y-002314D03*
X004274Y-002356D03*
X004304Y-002380D03*
X004268Y-002542D03*
X003734Y-002932D03*
X003728Y-002926D03*
X003674Y-003196D03*
X003236Y-003094D03*
X003224Y-003130D03*
X003218Y-003148D03*
X003206Y-003184D03*
X003200Y-003190D03*
X003200Y-003202D03*
X003194Y-003220D03*
X003188Y-003226D03*
X003188Y-003238D03*
X002996Y-002614D03*
X002936Y-002386D03*
X002924Y-002290D03*
X002696Y-002158D03*
X003410Y-002524D03*
X002474Y-002836D03*
X002450Y-002872D03*
X002426Y-002908D03*
X003170Y-004072D03*
X004376Y-001558D03*
X004370Y-001552D03*
X002648Y-001054D03*
X001946Y-001504D03*
D59*
X001946Y-001510D03*
X002696Y-002152D03*
X002966Y-001954D03*
X002936Y-002392D03*
X002948Y-002716D03*
X003236Y-003088D03*
X003488Y-003184D03*
X003488Y-003196D03*
X003482Y-003202D03*
X003482Y-003208D03*
X003482Y-003214D03*
X003476Y-003220D03*
X003476Y-003226D03*
X003476Y-003232D03*
X003458Y-003274D03*
X003458Y-003286D03*
X003452Y-003292D03*
X003452Y-003304D03*
X003446Y-003310D03*
X003446Y-003322D03*
X002756Y-003172D03*
X003182Y-004066D03*
X004118Y-002770D03*
X004316Y-002422D03*
X004316Y-002392D03*
X004376Y-001672D03*
X004382Y-001660D03*
X004382Y-001654D03*
X004388Y-001648D03*
X004388Y-001588D03*
X004388Y-001582D03*
X004388Y-001576D03*
X004382Y-001570D03*
D60*
X004379Y-001564D03*
X004379Y-001666D03*
X004253Y-002344D03*
X004127Y-002758D03*
X003485Y-003190D03*
X003455Y-003298D03*
X003449Y-003316D03*
X003443Y-003334D03*
X003437Y-003346D03*
X003191Y-003232D03*
X003197Y-003214D03*
X003197Y-003208D03*
X003203Y-003196D03*
X003209Y-003178D03*
X003209Y-003172D03*
X003215Y-003160D03*
X003221Y-003142D03*
X003221Y-003136D03*
X003227Y-003124D03*
X003227Y-003118D03*
X003227Y-003112D03*
X003233Y-003106D03*
X003233Y-003100D03*
X003239Y-003082D03*
X003239Y-003076D03*
X003245Y-003070D03*
X003245Y-003064D03*
X002327Y-002806D03*
X002267Y-002890D03*
X002267Y-002896D03*
X002267Y-002908D03*
X002105Y-002398D03*
X003329Y-003886D03*
X002753Y-003988D03*
D61*
X002831Y-003976D03*
X002345Y-002584D03*
X002345Y-002578D03*
X002309Y-001120D03*
X004139Y-002134D03*
X004163Y-002218D03*
D62*
X003554Y-003076D03*
X003560Y-003082D03*
X002930Y-003640D03*
X003152Y-003910D03*
X002906Y-003964D03*
X002882Y-003256D03*
X002156Y-002830D03*
X003002Y-002536D03*
X003230Y-002104D03*
X003590Y-001624D03*
X003470Y-001012D03*
X002624Y-001270D03*
X002420Y-001714D03*
D63*
X002456Y-001648D03*
X002600Y-001336D03*
X002606Y-001330D03*
X003476Y-001060D03*
X003446Y-002674D03*
X003500Y-002764D03*
X003206Y-003742D03*
X002954Y-003958D03*
D64*
X002978Y-003952D03*
X002942Y-003304D03*
X002936Y-003298D03*
X002942Y-003292D03*
X002948Y-003274D03*
X003110Y-002836D03*
X003464Y-002746D03*
X003434Y-001492D03*
X003440Y-001486D03*
X003482Y-001120D03*
X003482Y-001108D03*
X002582Y-001402D03*
X002582Y-001408D03*
X002492Y-001582D03*
X002486Y-001588D03*
D65*
X003476Y-001360D03*
X003476Y-001354D03*
X003476Y-001348D03*
X003482Y-001342D03*
X003482Y-001330D03*
X003482Y-001324D03*
X003482Y-001318D03*
X003482Y-001312D03*
X003482Y-001306D03*
X003482Y-001294D03*
X003488Y-001288D03*
X003482Y-001282D03*
X003488Y-001276D03*
X003482Y-001270D03*
X003488Y-001264D03*
X003482Y-001258D03*
X003488Y-001252D03*
X003134Y-002854D03*
X003398Y-002986D03*
X002966Y-003322D03*
X003302Y-003562D03*
X003008Y-003946D03*
D66*
X003011Y-003940D03*
X003137Y-002860D03*
D67*
X003230Y-002080D03*
X003014Y-003784D03*
X003014Y-003928D03*
X003014Y-003934D03*
D68*
X003050Y-003922D03*
X003308Y-003568D03*
X003416Y-002992D03*
X003434Y-002734D03*
X003128Y-002848D03*
X003404Y-002044D03*
X003458Y-001438D03*
X003458Y-001426D03*
X003464Y-001420D03*
X003464Y-001408D03*
X003482Y-001174D03*
X003482Y-001168D03*
X003482Y-001162D03*
X003482Y-001150D03*
X002558Y-001462D03*
X002546Y-001486D03*
X002534Y-001510D03*
D69*
X002438Y-001684D03*
X003248Y-002098D03*
X003614Y-001768D03*
X003008Y-002506D03*
X003518Y-002776D03*
X003110Y-003916D03*
D70*
X003242Y-003898D03*
X003644Y-002860D03*
X002996Y-002752D03*
X002990Y-002590D03*
X002420Y-002728D03*
X002348Y-002596D03*
X002348Y-002590D03*
X002240Y-002692D03*
X002408Y-001768D03*
X002636Y-001204D03*
X002294Y-001126D03*
X002288Y-001132D03*
X002282Y-001138D03*
X003968Y-002404D03*
X004214Y-002470D03*
X004166Y-002182D03*
X004274Y-001714D03*
D71*
X004265Y-001966D03*
X003701Y-002896D03*
X003293Y-003892D03*
X002231Y-002866D03*
X002039Y-002854D03*
X002051Y-002506D03*
X002489Y-002680D03*
X002489Y-002686D03*
X002489Y-002692D03*
D72*
X002843Y-002590D03*
X002861Y-002614D03*
X002897Y-002644D03*
X003251Y-002614D03*
X003311Y-002554D03*
X003323Y-002542D03*
X003341Y-002506D03*
X003353Y-002482D03*
X003953Y-002656D03*
X002843Y-002224D03*
X002837Y-002212D03*
X002813Y-002020D03*
X002891Y-001954D03*
X002981Y-001876D03*
X002987Y-001870D03*
X003011Y-001846D03*
X003023Y-001834D03*
X003053Y-001804D03*
X003077Y-001774D03*
X003101Y-001738D03*
X003113Y-001714D03*
X003143Y-001474D03*
X003143Y-001450D03*
X003143Y-001438D03*
X003143Y-001402D03*
X003137Y-001378D03*
X003131Y-001342D03*
X003083Y-001252D03*
X003077Y-001240D03*
X003047Y-001210D03*
X003017Y-001180D03*
X001901Y-001630D03*
X001847Y-001714D03*
X001817Y-001762D03*
X001811Y-001774D03*
X001787Y-001822D03*
X001757Y-001882D03*
X001733Y-001954D03*
X001727Y-001990D03*
X001721Y-002002D03*
X001721Y-002206D03*
X001727Y-002218D03*
X001733Y-002242D03*
X001763Y-002338D03*
X001781Y-002374D03*
X001787Y-002380D03*
X002243Y-002338D03*
X003557Y-003730D03*
X003383Y-003880D03*
X002033Y-000256D03*
D73*
X002351Y-000658D03*
X002843Y-002206D03*
X003341Y-002464D03*
X003917Y-002788D03*
X003917Y-002794D03*
X002711Y-003826D03*
X002147Y-002380D03*
D74*
X002324Y-002812D03*
X002264Y-002884D03*
X002270Y-002902D03*
X002270Y-002914D03*
X002744Y-003820D03*
X003434Y-003358D03*
X003440Y-003352D03*
X003440Y-003340D03*
X003464Y-003268D03*
X003464Y-003262D03*
X003464Y-003256D03*
X003470Y-003250D03*
X003470Y-003244D03*
X003470Y-003238D03*
X003494Y-003178D03*
X003494Y-003166D03*
X003680Y-003202D03*
X003740Y-002944D03*
X003734Y-002938D03*
X004124Y-002764D03*
X004310Y-002434D03*
X004394Y-001618D03*
X004394Y-001606D03*
X003014Y-002026D03*
X002954Y-001942D03*
X002300Y-001084D03*
D75*
X003170Y-002452D03*
X003164Y-002470D03*
X002420Y-002722D03*
X002354Y-002608D03*
X002834Y-003808D03*
X003440Y-003682D03*
X004154Y-002224D03*
X004274Y-001708D03*
X004274Y-001696D03*
D76*
X004052Y-002278D03*
X004058Y-002284D03*
X003566Y-003088D03*
X003386Y-003640D03*
X003266Y-003736D03*
X002888Y-003802D03*
D77*
X002924Y-003796D03*
X003134Y-002182D03*
X003470Y-001030D03*
D78*
X003482Y-001126D03*
X003446Y-001474D03*
X003392Y-002056D03*
X003452Y-002740D03*
X003458Y-003010D03*
X003488Y-003040D03*
X003488Y-003046D03*
X003488Y-003052D03*
X002978Y-003790D03*
X002498Y-001570D03*
X002576Y-001420D03*
D79*
X003506Y-001498D03*
X003740Y-001576D03*
X003488Y-001774D03*
X003488Y-001780D03*
X003488Y-001786D03*
X003488Y-001792D03*
X003428Y-001972D03*
X003314Y-002956D03*
X003056Y-003772D03*
X003050Y-003778D03*
D80*
X003059Y-003766D03*
X003005Y-003358D03*
X003179Y-002896D03*
D81*
X003176Y-002890D03*
X003290Y-002944D03*
X003320Y-002962D03*
X003062Y-003760D03*
X003428Y-001966D03*
D82*
X003161Y-002878D03*
X003275Y-003538D03*
X003095Y-003754D03*
D83*
X003161Y-003748D03*
X003491Y-003034D03*
X003449Y-003004D03*
X003437Y-001480D03*
X003443Y-001468D03*
X003479Y-001114D03*
X002579Y-001414D03*
X002495Y-001576D03*
D84*
X002636Y-001186D03*
X002060Y-001330D03*
X002714Y-002356D03*
X002996Y-002602D03*
X003446Y-002548D03*
X003938Y-002392D03*
X004232Y-002494D03*
X004190Y-002200D03*
X004076Y-001786D03*
X004274Y-001744D03*
X004010Y-001480D03*
X003830Y-001492D03*
X002240Y-002626D03*
X002330Y-002980D03*
X002330Y-002986D03*
X003374Y-003724D03*
X003464Y-003706D03*
D85*
X003458Y-003718D03*
X002828Y-003652D03*
X002336Y-002968D03*
X002708Y-002344D03*
X003446Y-002554D03*
X004232Y-002488D03*
X004268Y-001816D03*
X004088Y-001612D03*
X003428Y-000964D03*
X003248Y-001684D03*
X003248Y-001696D03*
X002306Y-001102D03*
X002156Y-001240D03*
X002138Y-001258D03*
X002132Y-001264D03*
X002126Y-001270D03*
D86*
X002006Y-001396D03*
X002000Y-001402D03*
X002684Y-002194D03*
X002714Y-002368D03*
X002480Y-002698D03*
X002480Y-002704D03*
X002480Y-002710D03*
X002336Y-002518D03*
X003002Y-002068D03*
X002996Y-002050D03*
X003440Y-002542D03*
X003908Y-002470D03*
X003932Y-002386D03*
X003944Y-002302D03*
X004184Y-002302D03*
X004184Y-002308D03*
X004256Y-001942D03*
X004256Y-001462D03*
X003650Y-003160D03*
X003470Y-003712D03*
D87*
X002789Y-003658D03*
X002471Y-002824D03*
X002459Y-002740D03*
X002735Y-002398D03*
X002729Y-002392D03*
X003713Y-002908D03*
X004259Y-002530D03*
X003911Y-002380D03*
X004235Y-002044D03*
X004241Y-002038D03*
X001961Y-001468D03*
D88*
X002627Y-001240D03*
X002627Y-001234D03*
X003239Y-002350D03*
X003593Y-002824D03*
X004007Y-002428D03*
X004187Y-001882D03*
X003407Y-003658D03*
D89*
X003404Y-003652D03*
X002858Y-003238D03*
X002996Y-002560D03*
X003236Y-002344D03*
X003188Y-002254D03*
X003188Y-002248D03*
X003182Y-002242D03*
X003176Y-002236D03*
X003176Y-002230D03*
X003176Y-002224D03*
X003182Y-002218D03*
X003176Y-002212D03*
X003470Y-002614D03*
X004052Y-002260D03*
X004214Y-001498D03*
X003464Y-000988D03*
X002666Y-002254D03*
X002660Y-002260D03*
D90*
X003197Y-002440D03*
X003203Y-002428D03*
X003209Y-002422D03*
X003239Y-002362D03*
X003233Y-002320D03*
X004187Y-001906D03*
X004187Y-001900D03*
X002891Y-003646D03*
D91*
X003398Y-003646D03*
X003572Y-002812D03*
X003464Y-002632D03*
X004022Y-002434D03*
X004052Y-002272D03*
X003164Y-002200D03*
X003170Y-002146D03*
X003164Y-002128D03*
X002624Y-001252D03*
X003464Y-001000D03*
D92*
X003155Y-003628D03*
X003155Y-003634D03*
D93*
X003152Y-003622D03*
X003158Y-003616D03*
X003158Y-003604D03*
X003188Y-003478D03*
X003572Y-001750D03*
D94*
X003158Y-003598D03*
X003158Y-003610D03*
D95*
X003209Y-003592D03*
D96*
X003248Y-003586D03*
X003266Y-003532D03*
X003170Y-002884D03*
X003428Y-001978D03*
X003494Y-001600D03*
D97*
X003446Y-001504D03*
X003458Y-001432D03*
X002564Y-001450D03*
X002558Y-001456D03*
X002558Y-001468D03*
X002528Y-001522D03*
X002516Y-001546D03*
X002948Y-003310D03*
X003314Y-003580D03*
D98*
X003311Y-003574D03*
X003431Y-002998D03*
X003455Y-001444D03*
X002555Y-001474D03*
X002549Y-001480D03*
X002543Y-001492D03*
X002543Y-001498D03*
X002537Y-001504D03*
X002531Y-001516D03*
X002519Y-001534D03*
D99*
X003413Y-002026D03*
X003293Y-003556D03*
D100*
X003287Y-003550D03*
D101*
X003284Y-003544D03*
X002984Y-003340D03*
X003152Y-002872D03*
X003386Y-002710D03*
D102*
X003320Y-002968D03*
X003266Y-003526D03*
X003290Y-002062D03*
X003428Y-001948D03*
X003434Y-001954D03*
D103*
X003428Y-001942D03*
X003272Y-002938D03*
X003266Y-003520D03*
D104*
X003266Y-003514D03*
X003212Y-002920D03*
X003206Y-002914D03*
D105*
X003263Y-003508D03*
D106*
X003257Y-003502D03*
X003077Y-003412D03*
X003053Y-003382D03*
X003053Y-003376D03*
D107*
X003134Y-003442D03*
X003170Y-003466D03*
X003248Y-003496D03*
X003800Y-001684D03*
D108*
X003218Y-003490D03*
D109*
X003215Y-003484D03*
D110*
X003662Y-003478D03*
X004262Y-002242D03*
X002822Y-002170D03*
X002792Y-002128D03*
X002342Y-002290D03*
D111*
X003113Y-003430D03*
X003179Y-003472D03*
D112*
X003665Y-003472D03*
X003665Y-003466D03*
X003671Y-003448D03*
X003671Y-003442D03*
X003677Y-003430D03*
X003677Y-003424D03*
X003683Y-003412D03*
X003683Y-003406D03*
X003695Y-003376D03*
X003713Y-003274D03*
X003695Y-003220D03*
X004085Y-002818D03*
X003899Y-002710D03*
X003893Y-002692D03*
X003887Y-002680D03*
X003881Y-002662D03*
X003881Y-002656D03*
X003875Y-002650D03*
X003875Y-002644D03*
X003869Y-002632D03*
X003869Y-002626D03*
X003863Y-002614D03*
X003857Y-002596D03*
X003857Y-002590D03*
X003851Y-002584D03*
X003851Y-002578D03*
X003845Y-002560D03*
X003839Y-002554D03*
X004121Y-002320D03*
X004019Y-002002D03*
X004361Y-001786D03*
X002921Y-002128D03*
X002921Y-002134D03*
X002921Y-002140D03*
X002921Y-002206D03*
D113*
X003056Y-003370D03*
X003050Y-003388D03*
X003050Y-003394D03*
X003062Y-003400D03*
X003068Y-003406D03*
X003092Y-003418D03*
X003098Y-003424D03*
X003122Y-003436D03*
X003146Y-003448D03*
X003152Y-003454D03*
X003158Y-003460D03*
D114*
X003668Y-003460D03*
X003716Y-003280D03*
X003698Y-003226D03*
X003764Y-002980D03*
X003758Y-002974D03*
X003914Y-002770D03*
X003914Y-002758D03*
X003896Y-002704D03*
X003890Y-002686D03*
X003884Y-002668D03*
X003860Y-002608D03*
X003848Y-002572D03*
X004088Y-002812D03*
X004118Y-002338D03*
X004118Y-002326D03*
X004016Y-002008D03*
X004016Y-001996D03*
X004016Y-001984D03*
X004106Y-001858D03*
X004274Y-001450D03*
X003344Y-002452D03*
X002954Y-002470D03*
X002936Y-002404D03*
X002924Y-002272D03*
X002924Y-002212D03*
X002828Y-002176D03*
X002816Y-002158D03*
X002810Y-002146D03*
X002798Y-002134D03*
X002786Y-002122D03*
X002780Y-002116D03*
X002774Y-002110D03*
X002768Y-002098D03*
X002756Y-002080D03*
X002696Y-002128D03*
X002876Y-001984D03*
X002888Y-001996D03*
X002894Y-002002D03*
X002906Y-002026D03*
X002918Y-002038D03*
X002924Y-002044D03*
X002984Y-002116D03*
X002960Y-001924D03*
X002954Y-001918D03*
X002396Y-001804D03*
X001934Y-001558D03*
X001928Y-001564D03*
X002294Y-001078D03*
X002180Y-002884D03*
D115*
X002330Y-002764D03*
X002132Y-002386D03*
X002696Y-002134D03*
X002756Y-002086D03*
X002876Y-001990D03*
X002918Y-002116D03*
X002924Y-002146D03*
X002918Y-002200D03*
X002954Y-002476D03*
X003842Y-002524D03*
X003842Y-002536D03*
X003842Y-002548D03*
X003848Y-002566D03*
X003860Y-002602D03*
X003866Y-002620D03*
X003872Y-002638D03*
X003884Y-002674D03*
X003896Y-002698D03*
X003914Y-002728D03*
X003914Y-002740D03*
X003914Y-002746D03*
X003914Y-002752D03*
X004094Y-002800D03*
X004094Y-002806D03*
X003758Y-002968D03*
X003716Y-003286D03*
X003710Y-003328D03*
X003704Y-003346D03*
X003698Y-003352D03*
X003698Y-003364D03*
X003692Y-003382D03*
X003686Y-003388D03*
X003686Y-003400D03*
X003680Y-003418D03*
X003674Y-003436D03*
X003668Y-003454D03*
X002930Y-003148D03*
X002918Y-003184D03*
X004124Y-002314D03*
X004022Y-002020D03*
X004016Y-002014D03*
X004016Y-001990D03*
X004034Y-001936D03*
X004358Y-001792D03*
X001934Y-001552D03*
D116*
X002915Y-002122D03*
X003839Y-002542D03*
X004265Y-002626D03*
X004265Y-002632D03*
X003719Y-003292D03*
X003695Y-003370D03*
X003689Y-003394D03*
X002939Y-003112D03*
X002945Y-003094D03*
D117*
X003056Y-003364D03*
X003218Y-002926D03*
X003512Y-001804D03*
X003560Y-001588D03*
D118*
X003857Y-002476D03*
X003851Y-002488D03*
X003851Y-002494D03*
X004271Y-002596D03*
X004277Y-002584D03*
X004271Y-002614D03*
X004253Y-002236D03*
X003713Y-003310D03*
X003713Y-003316D03*
X003707Y-003334D03*
X003707Y-003340D03*
X003701Y-003358D03*
X002933Y-003136D03*
X002921Y-003172D03*
X002951Y-003076D03*
X002957Y-003064D03*
X002963Y-003040D03*
X002327Y-002776D03*
X002327Y-002752D03*
X001937Y-001540D03*
D119*
X002993Y-003352D03*
D120*
X002990Y-003346D03*
D121*
X002972Y-003334D03*
X003368Y-002974D03*
X003398Y-002716D03*
X003416Y-002014D03*
D122*
X003386Y-002980D03*
X002966Y-003328D03*
D123*
X003443Y-003328D03*
X003461Y-003280D03*
X003491Y-003172D03*
X003497Y-003160D03*
X003887Y-002362D03*
X003887Y-002350D03*
X004025Y-002050D03*
X004019Y-001942D03*
X004391Y-001642D03*
X004391Y-001636D03*
X004391Y-001630D03*
X004391Y-001594D03*
X004157Y-001582D03*
X004157Y-001576D03*
X004319Y-002398D03*
X004319Y-002410D03*
X004319Y-002416D03*
X004313Y-002428D03*
X004307Y-002440D03*
X003011Y-002014D03*
X003005Y-002002D03*
X002333Y-002734D03*
X001943Y-001516D03*
D124*
X003413Y-002698D03*
X002957Y-003316D03*
X004103Y-001516D03*
D125*
X003479Y-001102D03*
X002585Y-001390D03*
X002585Y-001396D03*
X002483Y-001594D03*
X003431Y-002692D03*
X003485Y-003028D03*
X002951Y-003262D03*
X002951Y-003268D03*
X002945Y-003286D03*
D126*
X002948Y-003280D03*
X003476Y-003016D03*
X003482Y-003022D03*
X002222Y-002614D03*
X002474Y-001618D03*
X002480Y-001600D03*
X002588Y-001384D03*
X003422Y-001510D03*
X003428Y-001516D03*
D127*
X002942Y-002104D03*
X001952Y-001498D03*
X003212Y-003154D03*
X003212Y-003166D03*
X003182Y-003244D03*
X003182Y-003250D03*
X003182Y-003256D03*
D128*
X002882Y-003250D03*
X003002Y-002542D03*
D129*
X003038Y-002776D03*
X003584Y-002818D03*
X004052Y-002266D03*
X003206Y-002116D03*
X003170Y-002152D03*
X003176Y-002206D03*
X002414Y-001732D03*
X002624Y-001246D03*
X003464Y-000994D03*
X004172Y-001474D03*
X002870Y-003244D03*
D130*
X002837Y-003226D03*
X002051Y-002734D03*
X002051Y-002728D03*
D131*
X002078Y-002812D03*
X002648Y-002278D03*
X003158Y-002476D03*
X002822Y-003220D03*
X004082Y-002248D03*
X004226Y-001864D03*
X003452Y-000970D03*
D132*
X001973Y-001444D03*
X001973Y-001450D03*
X002075Y-002416D03*
X002063Y-002464D03*
X002045Y-002536D03*
X002021Y-002632D03*
X002015Y-002662D03*
X002015Y-002668D03*
X002009Y-002692D03*
X002345Y-002506D03*
X002717Y-002380D03*
X002777Y-003184D03*
D133*
X002507Y-002776D03*
X002921Y-002302D03*
X003671Y-003184D03*
X004253Y-002002D03*
X004253Y-001996D03*
X004361Y-001546D03*
D134*
X004112Y-001606D03*
X004142Y-001780D03*
X003998Y-001792D03*
X004262Y-001960D03*
X004262Y-001972D03*
X004208Y-002062D03*
X003662Y-003172D03*
X002798Y-002446D03*
X002798Y-002440D03*
X002492Y-002782D03*
X002342Y-002512D03*
X002072Y-002434D03*
X002066Y-002440D03*
X002066Y-002446D03*
X002066Y-002452D03*
X002066Y-002428D03*
X002048Y-002518D03*
X002048Y-002524D03*
X002048Y-002530D03*
X002048Y-002542D03*
X002042Y-002548D03*
X002042Y-002554D03*
X002042Y-002560D03*
X002018Y-002644D03*
X002018Y-002650D03*
X002018Y-002656D03*
X002012Y-002674D03*
X002012Y-002686D03*
X001976Y-001438D03*
X001982Y-001432D03*
D135*
X001937Y-001534D03*
X002807Y-002938D03*
X002807Y-002944D03*
X002987Y-002974D03*
X002957Y-003058D03*
X002747Y-003166D03*
X004157Y-002740D03*
X004007Y-001972D03*
D136*
X004259Y-001948D03*
X002999Y-002056D03*
X002237Y-002848D03*
X002039Y-002848D03*
X003653Y-003166D03*
X001997Y-001408D03*
D137*
X002633Y-001210D03*
X002423Y-002716D03*
X002057Y-002788D03*
X002051Y-002782D03*
X002045Y-002764D03*
X003599Y-003136D03*
X003599Y-003142D03*
X003599Y-003148D03*
X003605Y-003130D03*
D138*
X003575Y-003100D03*
D139*
X003569Y-003094D03*
X003467Y-002626D03*
X002999Y-002554D03*
X002999Y-002548D03*
X003167Y-002134D03*
D140*
X003128Y-002176D03*
X003008Y-002500D03*
X003008Y-002512D03*
X003542Y-003070D03*
X002432Y-001696D03*
X002612Y-001300D03*
X002618Y-001294D03*
D141*
X002435Y-001690D03*
X003473Y-001036D03*
X003527Y-002782D03*
X003539Y-003064D03*
D142*
X003485Y-003058D03*
X003119Y-002842D03*
X003395Y-002050D03*
X003449Y-001462D03*
X003449Y-001456D03*
X003479Y-001132D03*
X002573Y-001426D03*
X002573Y-001432D03*
X002567Y-001438D03*
X002567Y-001444D03*
X002519Y-001540D03*
X002513Y-001552D03*
X002507Y-001558D03*
D143*
X002327Y-002992D03*
X002327Y-002998D03*
D144*
X002339Y-002950D03*
X002339Y-002560D03*
X002699Y-002338D03*
X002699Y-002332D03*
X003455Y-002560D03*
X003953Y-002398D03*
X004223Y-002482D03*
X004139Y-002092D03*
X002177Y-001222D03*
D145*
X003305Y-002950D03*
D146*
X003662Y-002872D03*
X004142Y-002080D03*
X004262Y-001840D03*
X002402Y-001780D03*
X002162Y-001234D03*
X002192Y-001210D03*
X002072Y-002566D03*
X002222Y-002680D03*
X002342Y-002944D03*
D147*
X002342Y-002938D03*
X002222Y-002686D03*
X002342Y-002566D03*
X002078Y-002578D03*
X002666Y-002302D03*
X002672Y-002308D03*
X002684Y-002320D03*
X002690Y-002326D03*
X002678Y-002218D03*
X002402Y-001774D03*
X002228Y-001180D03*
X002240Y-001168D03*
X003248Y-001768D03*
X004142Y-002074D03*
X004142Y-002086D03*
X004142Y-002098D03*
X004136Y-002104D03*
X004184Y-002188D03*
X004172Y-002212D03*
X004220Y-002476D03*
X004274Y-001726D03*
D148*
X003434Y-001930D03*
X003428Y-001924D03*
X003260Y-002932D03*
D149*
X002933Y-002380D03*
X002921Y-002296D03*
X002471Y-002842D03*
X002465Y-002848D03*
X002459Y-002860D03*
X002453Y-002866D03*
X002447Y-002878D03*
X002441Y-002884D03*
X002435Y-002896D03*
X002429Y-002902D03*
X002423Y-002914D03*
X004241Y-002332D03*
X004265Y-002350D03*
X004307Y-002386D03*
D150*
X003434Y-001912D03*
X003428Y-001918D03*
X003434Y-001900D03*
X003458Y-001816D03*
X003194Y-002908D03*
D151*
X003191Y-002902D03*
D152*
X003434Y-002536D03*
X003704Y-002902D03*
X002720Y-002386D03*
X002684Y-002182D03*
X002060Y-002458D03*
X002060Y-002470D03*
X002060Y-002476D03*
X002060Y-002482D03*
X002054Y-002488D03*
X002054Y-002494D03*
X002054Y-002500D03*
X002054Y-002512D03*
X002024Y-002626D03*
X002024Y-002638D03*
X002234Y-002860D03*
X002234Y-002872D03*
X004274Y-001756D03*
X003434Y-000952D03*
X002300Y-001090D03*
D153*
X002081Y-001312D03*
X002069Y-001324D03*
X002051Y-001342D03*
X002039Y-001354D03*
X002399Y-001786D03*
X002333Y-002524D03*
X002243Y-002632D03*
X003683Y-002884D03*
X004235Y-002500D03*
X004253Y-001930D03*
D154*
X003416Y-002020D03*
X003464Y-001612D03*
X003410Y-002722D03*
X003146Y-002866D03*
D155*
X003461Y-002578D03*
X003635Y-002854D03*
X002669Y-002236D03*
X004277Y-001702D03*
D156*
X004142Y-002230D03*
X003632Y-002848D03*
D157*
X003470Y-002752D03*
X003440Y-002686D03*
X003104Y-002830D03*
X003092Y-002194D03*
X003086Y-002188D03*
X002474Y-001612D03*
X002594Y-001372D03*
X004136Y-001510D03*
D158*
X004106Y-001852D03*
X004118Y-002344D03*
X004112Y-002350D03*
X004082Y-002824D03*
X004076Y-002830D03*
X002846Y-002200D03*
X002756Y-002074D03*
X002696Y-002122D03*
X002876Y-001978D03*
X002906Y-002020D03*
X001928Y-001570D03*
X002756Y-001066D03*
D159*
X002621Y-001276D03*
X002423Y-001708D03*
X003461Y-002644D03*
X002153Y-002824D03*
X004181Y-001504D03*
D160*
X003479Y-001072D03*
X002597Y-001360D03*
X002465Y-001636D03*
X002459Y-001642D03*
X003095Y-002824D03*
D161*
X003062Y-002794D03*
X003002Y-002530D03*
X003542Y-002794D03*
X002156Y-002818D03*
X002618Y-001282D03*
X003470Y-001018D03*
D162*
X003476Y-001066D03*
X004082Y-002464D03*
X003488Y-002758D03*
X003446Y-002680D03*
X003092Y-002818D03*
D163*
X003077Y-002806D03*
X003455Y-002662D03*
D164*
X003563Y-002806D03*
D165*
X003539Y-002788D03*
X003461Y-002650D03*
X003065Y-002800D03*
X003005Y-002524D03*
D166*
X003461Y-002638D03*
X003557Y-002800D03*
D167*
X003044Y-002782D03*
X002420Y-001726D03*
X002624Y-001258D03*
D168*
X004022Y-001624D03*
X003242Y-002356D03*
X003032Y-002770D03*
D169*
X003509Y-002770D03*
X002609Y-001318D03*
D170*
X003227Y-002278D03*
X003017Y-002764D03*
D171*
X003239Y-002398D03*
X003245Y-002380D03*
X002045Y-002740D03*
D172*
X003422Y-002728D03*
X003404Y-002038D03*
X003464Y-001414D03*
X003464Y-001402D03*
X003470Y-001396D03*
X003470Y-001384D03*
X003482Y-001204D03*
X003488Y-001198D03*
X003482Y-001192D03*
D173*
X003470Y-001024D03*
X002618Y-001288D03*
X002432Y-001702D03*
X003008Y-002518D03*
X003458Y-002656D03*
X002156Y-002698D03*
X002150Y-002704D03*
D174*
X003248Y-002074D03*
X003422Y-001996D03*
X003374Y-002704D03*
D175*
X004241Y-002506D03*
X004271Y-001480D03*
X002243Y-002656D03*
D176*
X002447Y-002638D03*
X002807Y-002458D03*
X002927Y-002344D03*
X002927Y-002332D03*
X002927Y-002326D03*
X002927Y-002320D03*
X001967Y-001462D03*
D177*
X002411Y-001738D03*
X003467Y-002620D03*
D178*
X003464Y-002608D03*
X003194Y-002458D03*
X003230Y-002314D03*
X004184Y-001912D03*
D179*
X003479Y-001084D03*
X003479Y-001078D03*
X002591Y-001366D03*
X002471Y-001624D03*
X002465Y-001630D03*
X002219Y-002602D03*
D180*
X002081Y-002590D03*
X002081Y-002584D03*
X002663Y-002296D03*
X002231Y-001174D03*
D181*
X002315Y-001114D03*
X002669Y-002230D03*
X002657Y-002284D03*
X003167Y-002464D03*
X004139Y-002158D03*
D182*
X004082Y-002458D03*
D183*
X004088Y-002452D03*
X004088Y-002446D03*
X003368Y-002068D03*
X003266Y-002086D03*
X002594Y-001354D03*
D184*
X002657Y-002290D03*
D185*
X003167Y-002140D03*
D186*
X003407Y-002032D03*
X003467Y-001390D03*
D187*
X003419Y-002008D03*
D188*
X003419Y-002002D03*
D189*
X003422Y-001990D03*
X003428Y-001984D03*
D190*
X003431Y-001960D03*
D191*
X004262Y-001954D03*
X001982Y-001426D03*
D192*
X003434Y-001936D03*
D193*
X003434Y-001906D03*
X003434Y-001894D03*
D194*
X003437Y-001888D03*
X003533Y-001594D03*
D195*
X003437Y-001864D03*
X003437Y-001870D03*
X003437Y-001876D03*
X003437Y-001882D03*
D196*
X003440Y-001858D03*
X003440Y-001852D03*
X003440Y-001846D03*
X003440Y-001834D03*
X003476Y-001810D03*
X003530Y-001756D03*
D197*
X003437Y-001840D03*
D198*
X003440Y-001828D03*
X003440Y-001822D03*
D199*
X003566Y-001798D03*
D200*
X003503Y-001762D03*
X003743Y-001696D03*
D201*
X003590Y-001744D03*
D202*
X003614Y-001738D03*
X003620Y-001636D03*
D203*
X003617Y-001732D03*
D204*
X003620Y-001726D03*
X003626Y-001708D03*
D205*
X003623Y-001720D03*
D206*
X003626Y-001714D03*
X003626Y-001702D03*
X003626Y-001690D03*
D207*
X003677Y-001678D03*
D208*
X003680Y-001672D03*
D209*
X002447Y-001666D03*
D210*
X003671Y-001666D03*
D211*
X003674Y-001660D03*
X003668Y-001654D03*
X003668Y-001642D03*
X003680Y-001570D03*
D212*
X002453Y-001654D03*
D213*
X003665Y-001648D03*
X003665Y-001630D03*
X003677Y-001564D03*
D214*
X003467Y-001606D03*
X003467Y-001618D03*
D215*
X002477Y-001606D03*
D216*
X003596Y-001582D03*
D217*
X002504Y-001564D03*
D218*
X003683Y-001558D03*
X003683Y-001552D03*
D219*
X003692Y-001546D03*
D220*
X003701Y-001540D03*
D221*
X004355Y-001540D03*
D222*
X003782Y-001534D03*
D223*
X003452Y-001450D03*
X003482Y-001156D03*
X003482Y-001144D03*
X003482Y-001138D03*
X002522Y-001528D03*
D224*
X003782Y-001528D03*
D225*
X003779Y-001522D03*
D226*
X002015Y-001384D03*
X002009Y-001390D03*
D227*
X002591Y-001378D03*
D228*
X003473Y-001378D03*
X003473Y-001372D03*
X003473Y-001366D03*
X003479Y-001336D03*
X003485Y-001300D03*
X003485Y-001246D03*
X003485Y-001240D03*
X003485Y-001234D03*
X003485Y-001228D03*
X003485Y-001222D03*
X003485Y-001216D03*
X003485Y-001210D03*
D229*
X002600Y-001342D03*
X002600Y-001348D03*
D230*
X002612Y-001306D03*
D231*
X003485Y-001186D03*
X003485Y-001180D03*
D232*
X003479Y-001096D03*
X003479Y-001090D03*
M02*
