<?xml version="1.0" encoding="UTF-8" standalone="no"?>
<svg
   xmlns:dc="http://purl.org/dc/elements/1.1/"
   xmlns:cc="http://creativecommons.org/ns#"
   xmlns:rdf="http://www.w3.org/1999/02/22-rdf-syntax-ns#"
   xmlns:svg="http://www.w3.org/2000/svg"
   xmlns="http://www.w3.org/2000/svg"
   xmlns:sodipodi="http://sodipodi.sourceforge.net/DTD/sodipodi-0.dtd"
   xmlns:inkscape="http://www.inkscape.org/namespaces/inkscape"
   version="1.1"
   width="146.48749mm"
   height="37.524998mm"
   viewBox="0 0 519.05058 132.96271"
   id="svg4716"
   sodipodi:docname="magstripe-side.svg"
   inkscape:version="0.92.2 (5c3e80d, 2017-08-06)">
  <metadata
     id="metadata4722">
    <rdf:RDF>
      <cc:Work
         rdf:about="">
        <dc:format>image/svg+xml</dc:format>
        <dc:type
           rdf:resource="http://purl.org/dc/dcmitype/StillImage" />
        <dc:title></dc:title>
      </cc:Work>
    </rdf:RDF>
  </metadata>
  <defs
     id="defs4720" />
  <sodipodi:namedview
     pagecolor="#ffffff"
     bordercolor="#666666"
     borderopacity="1"
     objecttolerance="10"
     gridtolerance="10"
     guidetolerance="10"
     inkscape:pageopacity="0"
     inkscape:pageshadow="2"
     inkscape:window-width="1855"
     inkscape:window-height="1056"
     id="namedview4718"
     showgrid="true"
     units="mm"
     inkscape:zoom="0.62838542"
     inkscape:cx="-540.64191"
     inkscape:cy="49.040481"
     inkscape:window-x="65"
     inkscape:window-y="24"
     inkscape:window-maximized="1"
     inkscape:current-layer="svg4716"
     inkscape:measure-start="660.247,309.857"
     inkscape:measure-end="660.591,254.409"
     inkscape:snap-grids="true"
     inkscape:lockguides="true"
     showguides="false"
     inkscape:document-units="mm"
     fit-margin-top="2"
     fit-margin-left="2"
     fit-margin-right="2"
     fit-margin-bottom="2">
    <inkscape:grid
       units="mm"
       spacingx="0.17716551"
       spacingy="0.17716551"
       type="xygrid"
       id="grid150"
       originx="-524.40987"
       originy="-566.92963" />
  </sodipodi:namedview>
  <!-- Front-->
  <!-- Back-->
  <!-- Left-->
  <!-- Right-->
  <!-- Top-->
  <!-- Bottom-->
  <text
     xml:space="preserve"
     style="font-style:normal;font-weight:normal;font-size:15.0000124px;line-height:1.25;font-family:sans-serif;letter-spacing:0px;word-spacing:0px;fill:#000000;fill-opacity:1;stroke:none;stroke-width:0.70866203;stroke-miterlimit:4;stroke-dasharray:none"
     x="692.46606"
     y="99.891815"
     id="text5429"><tspan
       sodipodi:role="line"
       id="tspan5427"
       x="692.46606"
       y="113.1633"
       style="font-size:15.0000124px;stroke-width:0.70866203;stroke-miterlimit:4;stroke-dasharray:none" /></text>
  <g
     id="g133"
     transform="translate(-519.09495,-350.65482)">
    <g
       transform="translate(-11.537911,-114.36036)"
       id="g3927">
      <g
         transform="translate(538.07381,472.45613)"
         id="g4714"
         style="stroke-width:0.70866203;stroke-miterlimit:4;stroke-dasharray:none">
        <polygon
           style="fill:none;stroke:#ff0000;stroke-width:0.70866203;stroke-miterlimit:4;stroke-dasharray:none"
           points="305.23401,0 326.49387,0 326.49387,16.875014 347.75373,16.875014 347.75373,0 369.01359,0 369.01359,16.875014 390.27345,16.875014 390.27345,0 411.53331,0 411.53331,16.875014 432.79317,16.875014 432.79317,0 468.48095,0 468.48095,16.875014 487.29371,16.875014 487.29371,23.616161 504.16872,23.616161 504.16872,47.232322 487.29371,47.232322 487.29371,70.848483 504.16872,70.848483 504.16872,94.464645 487.29371,94.464645 487.29371,101.20579 468.48095,101.20579 468.48095,118.08081 432.79317,118.08081 432.79317,101.20579 411.53331,101.20579 411.53331,118.08081 390.27345,118.08081 390.27345,101.20579 369.01359,101.20579 369.01359,118.08081 347.75373,118.08081 347.75373,101.20579 326.49387,101.20579 326.49387,118.08081 305.23401,118.08081 305.23401,101.20579 283.97415,101.20579 283.97415,118.08081 262.71429,118.08081 262.71429,101.20579 241.45443,101.20579 241.45443,118.08081 220.19457,118.08081 220.19457,101.20579 198.93471,101.20579 198.93471,118.08081 177.67485,118.08081 177.67485,101.20579 156.41499,101.20579 156.41499,118.08081 135.15513,118.08081 135.15513,101.20579 113.89527,101.20579 113.89527,118.08081 92.635411,118.08081 92.635411,101.20579 71.375551,101.20579 71.375551,118.08081 35.687775,118.08081 35.687775,101.20579 16.875014,101.20579 16.875014,94.464645 0,94.464645 0,70.848483 16.875014,70.848483 16.875014,47.232322 0,47.232322 0,23.616161 16.875014,23.616161 16.875014,16.875014 35.687775,16.875014 35.687775,0 71.375551,0 71.375551,16.875014 92.635411,16.875014 92.635411,0 113.89527,0 113.89527,16.875014 135.15513,16.875014 135.15513,0 156.41499,0 156.41499,16.875014 177.67485,16.875014 177.67485,0 198.93471,0 198.93471,16.875014 220.19457,16.875014 220.19457,0 241.45443,0 241.45443,16.875014 262.71429,16.875014 262.71429,0 283.97415,0 283.97415,16.875014 305.23401,16.875014 "
           id="polygon4712" />
      </g>
      <g
         id="g3919"
         transform="translate(0,120.01393)">
        <circle
           r="4.7020817"
           transform="scale(1,-1)"
           cy="-433.15942"
           cx="655.85638"
           id="path5433"
           style="fill:none;stroke:#ff0000;stroke-width:0.67584544;stroke-miterlimit:4;stroke-dasharray:none;stroke-dashoffset:0;stroke-opacity:1" />
        <g
           id="g3914">
          <circle
             transform="scale(1,-1)"
             cy="-389.80579"
             cx="932.89154"
             id="use5450"
             style="fill:none;stroke:#ff0000;stroke-width:0.67584538;stroke-miterlimit:4;stroke-dasharray:none;stroke-dashoffset:0;stroke-opacity:1"
             r="4.7020817" />
        </g>
      </g>
    </g>
    <rect
       y="399.91891"
       x="811.50867"
       height="34.434425"
       width="69.867531"
       id="rect5454"
       style="fill:none;stroke:#ff0000;stroke-width:0.99867344;stroke-miterlimit:4;stroke-dasharray:none;stroke-dashoffset:0;stroke-opacity:1" />
  </g>
</svg>
