<?xml version="1.0" encoding="UTF-8" standalone="no"?>
<svg
   xmlns:dc="http://purl.org/dc/elements/1.1/"
   xmlns:cc="http://creativecommons.org/ns#"
   xmlns:rdf="http://www.w3.org/1999/02/22-rdf-syntax-ns#"
   xmlns:svg="http://www.w3.org/2000/svg"
   xmlns="http://www.w3.org/2000/svg"
   xmlns:sodipodi="http://sodipodi.sourceforge.net/DTD/sodipodi-0.dtd"
   xmlns:inkscape="http://www.inkscape.org/namespaces/inkscape"
   version="1.1"
   width="98.487495mm"
   height="37.524998mm"
   viewBox="0 0 348.97173 132.96271"
   id="svg4716"
   sodipodi:docname="left.svg"
   inkscape:version="0.92.2 (5c3e80d, 2017-08-06)">
  <metadata
     id="metadata4722">
    <rdf:RDF>
      <cc:Work
         rdf:about="">
        <dc:format>image/svg+xml</dc:format>
        <dc:type
           rdf:resource="http://purl.org/dc/dcmitype/StillImage" />
        <dc:title></dc:title>
      </cc:Work>
    </rdf:RDF>
  </metadata>
  <defs
     id="defs4720" />
  <sodipodi:namedview
     pagecolor="#ffffff"
     bordercolor="#666666"
     borderopacity="1"
     objecttolerance="10"
     gridtolerance="10"
     guidetolerance="10"
     inkscape:pageopacity="0"
     inkscape:pageshadow="2"
     inkscape:window-width="1855"
     inkscape:window-height="1056"
     id="namedview4718"
     showgrid="true"
     units="mm"
     inkscape:zoom="0.62838542"
     inkscape:cx="58.638217"
     inkscape:cy="195.16646"
     inkscape:window-x="65"
     inkscape:window-y="24"
     inkscape:window-maximized="1"
     inkscape:current-layer="svg4716"
     inkscape:measure-start="660.247,309.857"
     inkscape:measure-end="660.591,254.409"
     inkscape:snap-grids="true"
     inkscape:lockguides="true"
     showguides="false"
     inkscape:document-units="mm"
     fit-margin-top="2"
     fit-margin-left="2"
     fit-margin-right="2"
     fit-margin-bottom="2">
    <inkscape:grid
       units="mm"
       spacingx="0.17716551"
       spacingy="0.17716551"
       type="xygrid"
       id="grid150"
       originx="-367.64056"
       originy="-429.9364" />
  </sodipodi:namedview>
  <!-- Front-->
  <!-- Back-->
  <!-- Left-->
  <!-- Right-->
  <!-- Top-->
  <!-- Bottom-->
  <g
     id="g3932"
     transform="rotate(90,709.98526,-340.87199)">
    <g
       style="stroke-width:0.70866203;stroke-miterlimit:4;stroke-dasharray:none"
       id="g4702"
       transform="translate(1058.2982,27.582483)">
      <polygon
         id="polygon4700"
         points="101.20579,198.93471 101.20579,220.19457 118.08081,220.19457 118.08081,241.45443 101.20579,241.45443 101.20579,262.71429 118.08081,262.71429 118.08081,298.40207 101.20579,298.40207 101.20579,334.08984 94.464645,334.08984 94.464645,317.21483 70.848483,317.21483 70.848483,334.08984 47.232322,334.08984 47.232322,317.21483 23.616161,317.21483 23.616161,334.08984 16.875014,334.08984 16.875014,298.40207 0,298.40207 0,262.71429 16.875014,262.71429 16.875014,241.45443 0,241.45443 0,220.19457 16.875014,220.19457 16.875014,198.93471 0,198.93471 0,177.67485 16.875014,177.67485 16.875014,156.41499 0,156.41499 0,135.15513 16.875014,135.15513 16.875014,113.89527 0,113.89527 0,92.635411 16.875014,92.635411 16.875014,71.375551 0,71.375551 0,35.687775 16.875014,35.687775 16.875014,0 23.616161,0 23.616161,16.875014 47.232322,16.875014 47.232322,0 70.848483,0 70.848483,16.875014 94.464645,16.875014 94.464645,0 101.20579,0 101.20579,35.687775 118.08081,35.687775 118.08081,71.375551 101.20579,71.375551 101.20579,92.635411 118.08081,92.635411 118.08081,113.89527 101.20579,113.89527 101.20579,135.15513 118.08081,135.15513 118.08081,156.41499 101.20579,156.41499 101.20579,177.67485 118.08081,177.67485 118.08081,198.93471 "
         style="fill:none;stroke:#ff0000;stroke-width:0.70866203;stroke-miterlimit:4;stroke-dasharray:none" />
    </g>
    <rect
       y="79.712708"
       x="1096.0975"
       height="66.612022"
       width="42.482082"
       id="rect5421"
       style="fill:none;stroke:#ff0000;stroke-width:0.71086764;stroke-miterlimit:4;stroke-dasharray:none;stroke-dashoffset:0;stroke-opacity:1" />
  </g>
  <text
     xml:space="preserve"
     style="font-style:normal;font-weight:normal;font-size:15.0000124px;line-height:1.25;font-family:sans-serif;letter-spacing:0px;word-spacing:0px;fill:#000000;fill-opacity:1;stroke:none;stroke-width:0.70866203;stroke-miterlimit:4;stroke-dasharray:none"
     x="849.23541"
     y="-37.101421"
     id="text5429"><tspan
       sodipodi:role="line"
       id="tspan5427"
       x="849.23541"
       y="-23.829935"
       style="font-size:15.0000124px;stroke-width:0.70866203;stroke-miterlimit:4;stroke-dasharray:none" /></text>
</svg>
