<?xml version="1.0" encoding="UTF-8" standalone="no"?>
<svg
   xmlns:dc="http://purl.org/dc/elements/1.1/"
   xmlns:cc="http://creativecommons.org/ns#"
   xmlns:rdf="http://www.w3.org/1999/02/22-rdf-syntax-ns#"
   xmlns:svg="http://www.w3.org/2000/svg"
   xmlns="http://www.w3.org/2000/svg"
   xmlns:sodipodi="http://sodipodi.sourceforge.net/DTD/sodipodi-0.dtd"
   xmlns:inkscape="http://www.inkscape.org/namespaces/inkscape"
   version="1.1"
   width="146.48749mm"
   height="98.487495mm"
   viewBox="0 0 519.05058 348.97176"
   id="svg4716"
   sodipodi:docname="top.svg"
   inkscape:version="0.92.2 (5c3e80d, 2017-08-06)">
  <metadata
     id="metadata4722">
    <rdf:RDF>
      <cc:Work
         rdf:about="">
        <dc:format>image/svg+xml</dc:format>
        <dc:type
           rdf:resource="http://purl.org/dc/dcmitype/StillImage" />
        <dc:title></dc:title>
      </cc:Work>
    </rdf:RDF>
  </metadata>
  <defs
     id="defs4720" />
  <sodipodi:namedview
     pagecolor="#ffffff"
     bordercolor="#666666"
     borderopacity="1"
     objecttolerance="10"
     gridtolerance="10"
     guidetolerance="10"
     inkscape:pageopacity="0"
     inkscape:pageshadow="2"
     inkscape:window-width="1855"
     inkscape:window-height="1056"
     id="namedview4718"
     showgrid="true"
     units="mm"
     inkscape:zoom="0.88867118"
     inkscape:cx="598.16014"
     inkscape:cy="44.558118"
     inkscape:window-x="1985"
     inkscape:window-y="24"
     inkscape:window-maximized="1"
     inkscape:current-layer="svg4716"
     inkscape:measure-start="43.4646,440.031"
     inkscape:measure-end="69.9213,322.866"
     inkscape:snap-grids="true"
     inkscape:lockguides="true"
     showguides="false"
     inkscape:document-units="mm"
     fit-margin-top="2"
     fit-margin-left="2"
     fit-margin-right="2"
     fit-margin-bottom="2">
    <inkscape:grid
       units="mm"
       spacingx="0.17716551"
       spacingy="0.17716551"
       type="xygrid"
       id="grid150"
       originx="-5.3149639"
       originy="-701.57544" />
  </sodipodi:namedview>
  <!-- Front-->
  <!-- Back-->
  <!-- Left-->
  <!-- Right-->
  <!-- Top-->
  <!-- Bottom-->
  <text
     xml:space="preserve"
     style="font-style:normal;font-weight:normal;font-size:15.0000124px;line-height:1.25;font-family:sans-serif;letter-spacing:0px;word-spacing:0px;fill:#000000;fill-opacity:1;stroke:none;stroke-width:0.70866203;stroke-miterlimit:4;stroke-dasharray:none"
     x="1211.561"
     y="450.54663"
     id="text5429"><tspan
       sodipodi:role="line"
       id="tspan5427"
       x="1211.561"
       y="463.81812"
       style="font-size:15.0000124px;stroke-width:0.70866203;stroke-miterlimit:4;stroke-dasharray:none" /></text>
  <g
     id="g85">
    <g
       style="stroke-width:0.70866203;stroke-miterlimit:4;stroke-dasharray:none"
       id="g4694"
       transform="translate(7.4409514,7.440951)">
      <polygon
         id="polygon4692"
         points="283.97415,16.875014 283.97415,0 305.23401,0 305.23401,16.875014 326.49387,16.875014 326.49387,0 347.75373,0 347.75373,16.875014 369.01359,16.875014 369.01359,0 390.27345,0 390.27345,16.875014 411.53331,16.875014 411.53331,0 432.79317,0 432.79317,16.875014 468.48095,16.875014 468.48095,0 504.16872,0 504.16872,35.687775 487.29371,35.687775 487.29371,71.375551 504.16872,71.375551 504.16872,92.635411 487.29371,92.635411 487.29371,113.89527 504.16872,113.89527 504.16872,135.15513 487.29371,135.15513 487.29371,156.41499 504.16872,156.41499 504.16872,177.67485 487.29371,177.67485 487.29371,198.93471 504.16872,198.93471 504.16872,220.19457 487.29371,220.19457 487.29371,241.45443 504.16872,241.45443 504.16872,262.71429 487.29371,262.71429 487.29371,298.40207 504.16872,298.40207 504.16872,334.08984 468.48095,334.08984 468.48095,317.21483 432.79317,317.21483 432.79317,334.08984 411.53331,334.08984 411.53331,317.21483 390.27345,317.21483 390.27345,334.08984 369.01359,334.08984 369.01359,317.21483 347.75373,317.21483 347.75373,334.08984 326.49387,334.08984 326.49387,317.21483 305.23401,317.21483 305.23401,334.08984 283.97415,334.08984 283.97415,317.21483 262.71429,317.21483 262.71429,334.08984 241.45443,334.08984 241.45443,317.21483 220.19457,317.21483 220.19457,334.08984 198.93471,334.08984 198.93471,317.21483 177.67485,317.21483 177.67485,334.08984 156.41499,334.08984 156.41499,317.21483 135.15513,317.21483 135.15513,334.08984 113.89527,334.08984 113.89527,317.21483 92.635411,317.21483 92.635411,334.08984 71.375551,334.08984 71.375551,317.21483 35.687775,317.21483 35.687775,334.08984 0,334.08984 0,298.40207 16.875014,298.40207 16.875014,262.71429 0,262.71429 0,241.45443 16.875014,241.45443 16.875014,220.19457 0,220.19457 0,198.93471 16.875014,198.93471 16.875014,177.67485 0,177.67485 0,156.41499 16.875014,156.41499 16.875014,135.15513 0,135.15513 0,113.89527 16.875014,113.89527 16.875014,92.635411 0,92.635411 0,71.375551 16.875014,71.375551 16.875014,35.687775 0,35.687775 0,0 35.687775,0 35.687775,16.875014 71.375551,16.875014 71.375551,0 92.635411,0 92.635411,16.875014 113.89527,16.875014 113.89527,0 135.15513,0 135.15513,16.875014 156.41499,16.875014 156.41499,0 177.67485,0 177.67485,16.875014 198.93471,16.875014 198.93471,0 220.19457,0 220.19457,16.875014 241.45443,16.875014 241.45443,0 262.71429,0 262.71429,16.875014 "
         style="fill:none;stroke:#ff0000;stroke-width:0.70866203;stroke-miterlimit:4;stroke-dasharray:none" />
    </g>
    <rect
       transform="scale(1,-1)"
       y="-238.7747"
       x="88.93718"
       height="155.19681"
       width="233.14964"
       id="rect4608"
       style="fill:none;fill-opacity:1;stroke:#ff0000;stroke-width:0.70884222;stroke-miterlimit:4;stroke-dasharray:none;stroke-opacity:1" />
    <ellipse
       ry="8.5015888"
       rx="8.5015879"
       cy="109.7983"
       cx="69.094551"
       id="path5312"
       style="fill:none;stroke:#ff0000;stroke-width:0.7133742;stroke-miterlimit:4;stroke-dasharray:none;stroke-opacity:1" />
    <ellipse
       ry="8.4454317"
       rx="8.4454327"
       cy="189.58128"
       cx="69.036041"
       id="path5312-3"
       style="fill:none;stroke:#ff0000;stroke-width:0.70866203;stroke-miterlimit:4;stroke-dasharray:none;stroke-opacity:1" />
    <ellipse
       ry="8.5015888"
       rx="8.5015879"
       cy="109.7983"
       cx="341.92941"
       id="path5312-8"
       style="fill:none;stroke:#ff0000;stroke-width:0.71337414;stroke-miterlimit:4;stroke-dasharray:none;stroke-opacity:1" />
    <ellipse
       ry="8.5015888"
       rx="8.5015879"
       cy="189.52278"
       cx="341.92944"
       id="path5312-8-0"
       style="fill:none;stroke:#ff0000;stroke-width:0.7133742;stroke-miterlimit:4;stroke-dasharray:none;stroke-opacity:1" />
    <rect
       y="179.25665"
       x="379.49799"
       height="41.792114"
       width="41.792114"
       id="rect5359"
       style="fill:none;stroke:#ff0000;stroke-width:0.727606;stroke-miterlimit:4;stroke-dasharray:none;stroke-dashoffset:0;stroke-opacity:1" />
    <rect
       y="127.87865"
       x="352.92316"
       height="41.792118"
       width="41.792118"
       id="rect5359-2"
       style="fill:none;stroke:#ff0000;stroke-width:0.727606;stroke-miterlimit:4;stroke-dasharray:none;stroke-dashoffset:0;stroke-opacity:1" />
    <rect
       y="127.87865"
       x="402.52951"
       height="41.792114"
       width="41.792114"
       id="rect5359-2-4"
       style="fill:none;stroke:#ff0000;stroke-width:0.727606;stroke-miterlimit:4;stroke-dasharray:none;stroke-dashoffset:0;stroke-opacity:1" />
    <rect
       y="76.500656"
       x="379.49799"
       height="41.792114"
       width="41.792114"
       id="rect5359-2-4-8"
       style="fill:none;stroke:#ff0000;stroke-width:0.727606;stroke-miterlimit:4;stroke-dasharray:none;stroke-dashoffset:0;stroke-opacity:1" />
    <circle
       r="8.5015888"
       cy="189.52278"
       cx="453.5437"
       id="path5312-8-0-2"
       style="fill:none;stroke:#ff0000;stroke-width:0.7133742;stroke-miterlimit:4;stroke-dasharray:none;stroke-opacity:1" />
    <circle
       r="8.5015888"
       cy="109.7983"
       cx="452.48071"
       id="path5312-8-0-2-2"
       style="fill:none;stroke:#ff0000;stroke-width:0.7133742;stroke-miterlimit:4;stroke-dasharray:none;stroke-opacity:1" />
  </g>
</svg>
